<svg xmlns="http://www.w3.org/2000/svg" xmlns:xlink="http://www.w3.org/1999/xlink" contentStyleType="text/css" data-diagram-type="DESCRIPTION" height="782px" preserveAspectRatio="none" style="width:2800px;height:782px;background:#FFFFFF;" version="1.1" viewBox="0 0 2800 782" width="2800px" zoomAndPan="magnify"><title>Package Diagram - Project Architecture (excluding deliverables)</title><defs/><g><text fill="#000000" font-family="sans-serif" font-size="14" font-weight="bold" lengthAdjust="spacing" textLength="508.5117" x="1138.8353" y="22.9951">Package Diagram - Project Architecture (excluding deliverables)</text><!--cluster FE--><g class="cluster" data-entity="FE" data-source-line="10" data-uid="ent0002" id="cluster_FE"><path d="M685.5,43.2969 L934.0771,43.2969 A3.75,3.75 0 0 1 936.5771,45.7969 L943.5771,65.5938 L1922.5,65.5938 A2.5,2.5 0 0 1 1925,68.0938 L1925,315.3969 A2.5,2.5 0 0 1 1922.5,317.8969 L685.5,317.8969 A2.5,2.5 0 0 1 683,315.3969 L683,45.7969 A2.5,2.5 0 0 1 685.5,43.2969" fill="#E8F4FD" style="stroke:#000000;stroke-width:1.5;"/><line style="stroke:#000000;stroke-width:1.5;" x1="683" x2="943.5771" y1="65.5938" y2="65.5938"/><text fill="#000000" font-family="sans-serif" font-size="14" font-weight="bold" lengthAdjust="spacing" textLength="247.5771" x="687" y="58.292">Frontend (React) - frontend/src</text></g><!--cluster entry--><g class="cluster" data-entity="entry" data-source-line="11" data-uid="ent0003" id="cluster_entry"><path d="M1683.5,86.2969 L1726.6846,86.2969 A3.75,3.75 0 0 1 1729.1846,88.7969 L1736.1846,108.5938 L1898.5,108.5938 A2.5,2.5 0 0 1 1901,111.0938 L1901,171.0969 A2.5,2.5 0 0 1 1898.5,173.5969 L1683.5,173.5969 A2.5,2.5 0 0 1 1681,171.0969 L1681,88.7969 A2.5,2.5 0 0 1 1683.5,86.2969" fill="none" style="stroke:#000000;stroke-width:1.5;"/><line style="stroke:#000000;stroke-width:1.5;" x1="1681" x2="1736.1846" y1="108.5938" y2="108.5938"/><text fill="#000000" font-family="sans-serif" font-size="14" font-weight="bold" lengthAdjust="spacing" textLength="42.1846" x="1685" y="101.292">entry</text></g><!--cluster pages--><g class="cluster" data-entity="pages" data-source-line="16" data-uid="ent0006" id="cluster_pages"><path d="M1360.5,86.2969 L1408.8184,86.2969 A3.75,3.75 0 0 1 1411.3184,88.7969 L1418.3184,108.5938 L1654.5,108.5938 A2.5,2.5 0 0 1 1657,111.0938 L1657,171.0969 A2.5,2.5 0 0 1 1654.5,173.5969 L1360.5,173.5969 A2.5,2.5 0 0 1 1358,171.0969 L1358,88.7969 A2.5,2.5 0 0 1 1360.5,86.2969" fill="none" style="stroke:#000000;stroke-width:1.5;"/><line style="stroke:#000000;stroke-width:1.5;" x1="1358" x2="1418.3184" y1="108.5938" y2="108.5938"/><text fill="#000000" font-family="sans-serif" font-size="14" font-weight="bold" lengthAdjust="spacing" textLength="47.3184" x="1362" y="101.292">pages</text></g><!--cluster components--><g class="cluster" data-entity="components" data-source-line="21" data-uid="ent0009" id="cluster_components"><path d="M1142.5,86.2969 L1240.0986,86.2969 A3.75,3.75 0 0 1 1242.5986,88.7969 L1249.5986,108.5938 L1331.5,108.5938 A2.5,2.5 0 0 1 1334,111.0938 L1334,171.0969 A2.5,2.5 0 0 1 1331.5,173.5969 L1142.5,173.5969 A2.5,2.5 0 0 1 1140,171.0969 L1140,88.7969 A2.5,2.5 0 0 1 1142.5,86.2969" fill="none" style="stroke:#000000;stroke-width:1.5;"/><line style="stroke:#000000;stroke-width:1.5;" x1="1140" x2="1249.5986" y1="108.5938" y2="108.5938"/><text fill="#000000" font-family="sans-serif" font-size="14" font-weight="bold" lengthAdjust="spacing" textLength="96.5986" x="1144" y="101.292">components</text></g><!--cluster hooks--><g class="cluster" data-entity="hooks" data-source-line="26" data-uid="ent0012" id="cluster_hooks"><path d="M823.5,86.2969 L871.3467,86.2969 A3.75,3.75 0 0 1 873.8467,88.7969 L880.8467,108.5938 L1113.5,108.5938 A2.5,2.5 0 0 1 1116,111.0938 L1116,171.0969 A2.5,2.5 0 0 1 1113.5,173.5969 L823.5,173.5969 A2.5,2.5 0 0 1 821,171.0969 L821,88.7969 A2.5,2.5 0 0 1 823.5,86.2969" fill="none" style="stroke:#000000;stroke-width:1.5;"/><line style="stroke:#000000;stroke-width:1.5;" x1="821" x2="880.8467" y1="108.5938" y2="108.5938"/><text fill="#000000" font-family="sans-serif" font-size="14" font-weight="bold" lengthAdjust="spacing" textLength="46.8467" x="825" y="101.292">hooks</text></g><!--cluster lib--><g class="cluster" data-entity="lib" data-source-line="31" data-uid="ent0015" id="cluster_lib"><path d="M1285.5,206.5969 L1306.1191,206.5969 A3.75,3.75 0 0 1 1308.6191,209.0969 L1315.6191,228.8938 L1472.5,228.8938 A2.5,2.5 0 0 1 1475,231.3938 L1475,291.3969 A2.5,2.5 0 0 1 1472.5,293.8969 L1285.5,293.8969 A2.5,2.5 0 0 1 1283,291.3969 L1283,209.0969 A2.5,2.5 0 0 1 1285.5,206.5969" fill="none" style="stroke:#000000;stroke-width:1.5;"/><line style="stroke:#000000;stroke-width:1.5;" x1="1283" x2="1315.6191" y1="228.8938" y2="228.8938"/><text fill="#000000" font-family="sans-serif" font-size="14" font-weight="bold" lengthAdjust="spacing" textLength="19.6191" x="1287" y="221.592">lib</text></g><!--cluster types--><g class="cluster" data-entity="types" data-source-line="36" data-uid="ent0018" id="cluster_types"><path d="M709.5,86.2969 L754.168,86.2969 A3.75,3.75 0 0 1 756.668,88.7969 L763.668,108.5938 L794.5,108.5938 A2.5,2.5 0 0 1 797,111.0938 L797,171.0969 A2.5,2.5 0 0 1 794.5,173.5969 L709.5,173.5969 A2.5,2.5 0 0 1 707,171.0969 L707,88.7969 A2.5,2.5 0 0 1 709.5,86.2969" fill="none" style="stroke:#000000;stroke-width:1.5;"/><line style="stroke:#000000;stroke-width:1.5;" x1="707" x2="763.668" y1="108.5938" y2="108.5938"/><text fill="#000000" font-family="sans-serif" font-size="14" font-weight="bold" lengthAdjust="spacing" textLength="43.668" x="711" y="101.292">types</text></g><!--cluster BE--><g class="cluster" data-entity="BE" data-source-line="42" data-uid="ent0020" id="cluster_BE"><path d="M8.5,366.8969 L236.8428,366.8969 A3.75,3.75 0 0 1 239.3428,369.3969 L246.3428,389.1938 L2456.5,389.1938 A2.5,2.5 0 0 1 2459,391.6938 L2459,772.9869 A2.5,2.5 0 0 1 2456.5,775.4869 L8.5,775.4869 A2.5,2.5 0 0 1 6,772.9869 L6,369.3969 A2.5,2.5 0 0 1 8.5,366.8969" fill="#F0F8E8" style="stroke:#000000;stroke-width:1.5;"/><line style="stroke:#000000;stroke-width:1.5;" x1="6" x2="246.3428" y1="389.1938" y2="389.1938"/><text fill="#000000" font-family="sans-serif" font-size="14" font-weight="bold" lengthAdjust="spacing" textLength="227.3428" x="10" y="381.892">Backend (FastAPI) - backend</text></g><!--cluster BE_app--><g class="cluster" data-entity="BE_app" data-source-line="46" data-uid="ent0022" id="cluster_BE_app"><path d="M569.5,409.8969 L599.9902,409.8969 A3.75,3.75 0 0 1 602.4902,412.3969 L609.4902,432.1938 L2432.5,432.1938 A2.5,2.5 0 0 1 2435,434.6938 L2435,748.9869 A2.5,2.5 0 0 1 2432.5,751.4869 L569.5,751.4869 A2.5,2.5 0 0 1 567,748.9869 L567,412.3969 A2.5,2.5 0 0 1 569.5,409.8969" fill="none" style="stroke:#000000;stroke-width:1.5;"/><line style="stroke:#000000;stroke-width:1.5;" x1="567" x2="609.4902" y1="432.1938" y2="432.1938"/><text fill="#000000" font-family="sans-serif" font-size="14" font-weight="bold" lengthAdjust="spacing" textLength="29.4902" x="571" y="424.892">app</text></g><!--cluster BE_api_v1--><g class="cluster" data-entity="BE_api_v1" data-source-line="47" data-uid="ent0023" id="cluster_BE_api_v1"><path d="M1385.5,452.8969 L1466.0156,452.8969 A3.75,3.75 0 0 1 1468.5156,455.3969 L1475.5156,475.1938 L2408.5,475.1938 A2.5,2.5 0 0 1 2411,477.6938 L2411,604.6869 A2.5,2.5 0 0 1 2408.5,607.1869 L1385.5,607.1869 A2.5,2.5 0 0 1 1383,604.6869 L1383,455.3969 A2.5,2.5 0 0 1 1385.5,452.8969" fill="none" style="stroke:#000000;stroke-width:1.5;"/><line style="stroke:#000000;stroke-width:1.5;" x1="1383" x2="1475.5156" y1="475.1938" y2="475.1938"/><text fill="#000000" font-family="sans-serif" font-size="14" font-weight="bold" lengthAdjust="spacing" textLength="79.5156" x="1387" y="467.892">api/api_v1</text></g><!--cluster BE_endpoints--><g class="cluster" data-entity="BE_endpoints" data-source-line="49" data-uid="ent0025" id="cluster_BE_endpoints"><path d="M1483.5,495.8969 L1563.4141,495.8969 A3.75,3.75 0 0 1 1565.9141,498.3969 L1572.9141,518.1938 L2384.5,518.1938 A2.5,2.5 0 0 1 2387,520.6938 L2387,580.6869 A2.5,2.5 0 0 1 2384.5,583.1869 L1483.5,583.1869 A2.5,2.5 0 0 1 1481,580.6869 L1481,498.3969 A2.5,2.5 0 0 1 1483.5,495.8969" fill="none" style="stroke:#000000;stroke-width:1.5;"/><line style="stroke:#000000;stroke-width:1.5;" x1="1481" x2="1572.9141" y1="518.1938" y2="518.1938"/><text fill="#000000" font-family="sans-serif" font-size="14" font-weight="bold" lengthAdjust="spacing" textLength="78.9141" x="1485" y="510.892">endpoints</text></g><!--cluster BE_core--><g class="cluster" data-entity="BE_core" data-source-line="60" data-uid="ent0033" id="cluster_BE_core"><path d="M1749.5,640.1869 L1784.8164,640.1869 A3.75,3.75 0 0 1 1787.3164,642.6869 L1794.3164,662.4838 L2076.5,662.4838 A2.5,2.5 0 0 1 2079,664.9838 L2079,724.9869 A2.5,2.5 0 0 1 2076.5,727.4869 L1749.5,727.4869 A2.5,2.5 0 0 1 1747,724.9869 L1747,642.6869 A2.5,2.5 0 0 1 1749.5,640.1869" fill="none" style="stroke:#000000;stroke-width:1.5;"/><line style="stroke:#000000;stroke-width:1.5;" x1="1747" x2="1794.3164" y1="662.4838" y2="662.4838"/><text fill="#000000" font-family="sans-serif" font-size="14" font-weight="bold" lengthAdjust="spacing" textLength="34.3164" x="1751" y="655.182">core</text></g><!--cluster BE_models--><g class="cluster" data-entity="BE_models" data-source-line="66" data-uid="ent0037" id="cluster_BE_models"><path d="M1062.5,640.1869 L1120.3545,640.1869 A3.75,3.75 0 0 1 1122.8545,642.6869 L1129.8545,662.4838 L1193.5,662.4838 A2.5,2.5 0 0 1 1196,664.9838 L1196,724.9869 A2.5,2.5 0 0 1 1193.5,727.4869 L1062.5,727.4869 A2.5,2.5 0 0 1 1060,724.9869 L1060,642.6869 A2.5,2.5 0 0 1 1062.5,640.1869" fill="#FFF2E8" style="stroke:#000000;stroke-width:1.5;"/><line style="stroke:#000000;stroke-width:1.5;" x1="1060" x2="1129.8545" y1="662.4838" y2="662.4838"/><text fill="#000000" font-family="sans-serif" font-size="14" font-weight="bold" lengthAdjust="spacing" textLength="56.8545" x="1064" y="655.182">models</text></g><!--cluster BE_services--><g class="cluster" data-entity="BE_services" data-source-line="70" data-uid="ent0039" id="cluster_BE_services"><path d="M902.5,495.8969 L968.2842,495.8969 A3.75,3.75 0 0 1 970.7842,498.3969 L977.7842,518.1938 L1356.5,518.1938 A2.5,2.5 0 0 1 1359,520.6938 L1359,580.6869 A2.5,2.5 0 0 1 1356.5,583.1869 L902.5,583.1869 A2.5,2.5 0 0 1 900,580.6869 L900,498.3969 A2.5,2.5 0 0 1 902.5,495.8969" fill="none" style="stroke:#000000;stroke-width:1.5;"/><line style="stroke:#000000;stroke-width:1.5;" x1="900" x2="977.7842" y1="518.1938" y2="518.1938"/><text fill="#000000" font-family="sans-serif" font-size="14" font-weight="bold" lengthAdjust="spacing" textLength="64.7842" x="904" y="510.892">services</text></g><!--cluster BE_utils--><g class="cluster" data-entity="BE_utils" data-source-line="76" data-uid="ent0043" id="cluster_BE_utils"><path d="M593.5,495.8969 L629.0898,495.8969 A3.75,3.75 0 0 1 631.5898,498.3969 L638.5898,518.1938 L873.5,518.1938 A2.5,2.5 0 0 1 876,520.6938 L876,580.6869 A2.5,2.5 0 0 1 873.5,583.1869 L593.5,583.1869 A2.5,2.5 0 0 1 591,580.6869 L591,498.3969 A2.5,2.5 0 0 1 593.5,495.8969" fill="none" style="stroke:#000000;stroke-width:1.5;"/><line style="stroke:#000000;stroke-width:1.5;" x1="591" x2="638.5898" y1="518.1938" y2="518.1938"/><text fill="#000000" font-family="sans-serif" font-size="14" font-weight="bold" lengthAdjust="spacing" textLength="34.5898" x="595" y="510.892">utils</text></g><!--cluster BE_tests--><g class="cluster" data-entity="BE_tests" data-source-line="82" data-uid="ent0046" id="cluster_BE_tests"><path d="M292.5,495.8969 L333.0459,495.8969 A3.75,3.75 0 0 1 335.5459,498.3969 L342.5459,518.1938 L540.5,518.1938 A2.5,2.5 0 0 1 543,520.6938 L543,580.6869 A2.5,2.5 0 0 1 540.5,583.1869 L292.5,583.1869 A2.5,2.5 0 0 1 290,580.6869 L290,498.3969 A2.5,2.5 0 0 1 292.5,495.8969" fill="none" style="stroke:#000000;stroke-width:1.5;"/><line style="stroke:#000000;stroke-width:1.5;" x1="290" x2="342.5459" y1="518.1938" y2="518.1938"/><text fill="#000000" font-family="sans-serif" font-size="14" font-weight="bold" lengthAdjust="spacing" textLength="39.5459" x="294" y="510.892">tests</text></g><!--entity FE_entry_main--><g class="entity" data-entity="FE_entry_main" data-source-line="12" data-uid="ent0004" id="entity_FE_entry_main"><rect fill="#F1F1F1" height="36.2969" rx="2.5" ry="2.5" style="stroke:#181818;stroke-width:0.5;" width="80.498" x="1804.75" y="121.2969"/><text fill="#000000" font-family="sans-serif" font-size="14" lengthAdjust="spacing" textLength="60.498" x="1814.75" y="144.292">main.tsx</text></g><!--entity FE_entry_app--><g class="entity" data-entity="FE_entry_app" data-source-line="13" data-uid="ent0005" id="entity_FE_entry_app"><rect fill="#F1F1F1" height="36.2969" rx="2.5" ry="2.5" style="stroke:#181818;stroke-width:0.5;" width="72.8691" x="1696.57" y="121.2969"/><text fill="#000000" font-family="sans-serif" font-size="14" lengthAdjust="spacing" textLength="52.8691" x="1706.57" y="144.292">App.tsx</text></g><!--entity FE_pages_home--><g class="entity" data-entity="FE_pages_home" data-source-line="17" data-uid="ent0007" id="entity_FE_pages_home"><rect fill="#F1F1F1" height="36.2969" rx="2.5" ry="2.5" style="stroke:#181818;stroke-width:0.5;" width="120.3926" x="1520.8" y="121.2969"/><text fill="#000000" font-family="sans-serif" font-size="14" lengthAdjust="spacing" textLength="100.3926" x="1530.8" y="144.292">HomeView.tsx</text></g><!--entity FE_pages_main--><g class="entity" data-entity="FE_pages_main" data-source-line="18" data-uid="ent0008" id="entity_FE_pages_main"><rect fill="#F1F1F1" height="36.2969" rx="2.5" ry="2.5" style="stroke:#181818;stroke-width:0.5;" width="112.4697" x="1373.77" y="121.2969"/><text fill="#000000" font-family="sans-serif" font-size="14" lengthAdjust="spacing" textLength="92.4697" x="1383.77" y="144.292">MainView.tsx</text></g><!--entity FE_components_ui--><g class="entity" data-entity="FE_components_ui" data-source-line="22" data-uid="ent0010" id="entity_FE_components_ui"><rect fill="#F1F1F1" height="36.2969" rx="2.5" ry="2.5" style="stroke:#181818;stroke-width:0.5;" width="44.4795" x="1273.76" y="121.2969"/><text fill="#000000" font-family="sans-serif" font-size="14" lengthAdjust="spacing" textLength="24.4795" x="1283.76" y="144.292">ui/*</text></g><!--entity FE_components_layouts--><g class="entity" data-entity="FE_components_layouts" data-source-line="23" data-uid="ent0011" id="entity_FE_components_layouts"><rect fill="#F1F1F1" height="36.2969" rx="2.5" ry="2.5" style="stroke:#181818;stroke-width:0.5;" width="82.6924" x="1155.65" y="121.2969"/><text fill="#000000" font-family="sans-serif" font-size="14" lengthAdjust="spacing" textLength="62.6924" x="1165.65" y="144.292">layouts/*</text></g><!--entity FE_hooks_useDeliveryApp--><g class="entity" data-entity="FE_hooks_useDeliveryApp" data-source-line="27" data-uid="ent0013" id="entity_FE_hooks_useDeliveryApp"><rect fill="#F1F1F1" height="36.2969" rx="2.5" ry="2.5" style="stroke:#181818;stroke-width:0.5;" width="130.2432" x="969.88" y="121.2969"/><text fill="#000000" font-family="sans-serif" font-size="14" lengthAdjust="spacing" textLength="110.2432" x="979.88" y="144.292">useDeliveryApp</text></g><!--entity FE_hooks_useMobile--><g class="entity" data-entity="FE_hooks_useMobile" data-source-line="28" data-uid="ent0014" id="entity_FE_hooks_useMobile"><rect fill="#F1F1F1" height="36.2969" rx="2.5" ry="2.5" style="stroke:#181818;stroke-width:0.5;" width="97.3145" x="837.34" y="121.2969"/><text fill="#000000" font-family="sans-serif" font-size="14" lengthAdjust="spacing" textLength="77.3145" x="847.34" y="144.292">use-mobile</text></g><!--entity FE_lib_api--><g class="entity" data-entity="FE_lib_api" data-source-line="32" data-uid="ent0016" id="entity_FE_lib_api"><rect fill="#F1F1F1" height="36.2969" rx="2.5" ry="2.5" style="stroke:#181818;stroke-width:0.5;" width="58.5889" x="1400.71" y="241.5969"/><text fill="#000000" font-family="sans-serif" font-size="14" lengthAdjust="spacing" textLength="38.5889" x="1410.71" y="264.592">api.ts</text></g><!--entity FE_lib_utils--><g class="entity" data-entity="FE_lib_utils" data-source-line="33" data-uid="ent0017" id="entity_FE_lib_utils"><rect fill="#F1F1F1" height="36.2969" rx="2.5" ry="2.5" style="stroke:#181818;stroke-width:0.5;" width="66.6689" x="1298.67" y="241.5969"/><text fill="#000000" font-family="sans-serif" font-size="14" lengthAdjust="spacing" textLength="46.6689" x="1308.67" y="264.592">utils.ts</text></g><!--entity FE_types_api--><g class="entity" data-entity="FE_types_api" data-source-line="37" data-uid="ent0019" id="entity_FE_types_api"><rect fill="#F1F1F1" height="36.2969" rx="2.5" ry="2.5" style="stroke:#181818;stroke-width:0.5;" width="58.5889" x="722.71" y="121.2969"/><text fill="#000000" font-family="sans-serif" font-size="14" lengthAdjust="spacing" textLength="38.5889" x="732.71" y="144.292">api.ts</text></g><!--entity BE_main--><g class="entity" data-entity="BE_main" data-source-line="44" data-uid="ent0021" id="entity_BE_main"><rect fill="#F1F1F1" height="36.2969" rx="2.5" ry="2.5" style="stroke:#181818;stroke-width:0.5;" width="76.6016" x="194.7" y="530.8969"/><text fill="#000000" font-family="sans-serif" font-size="14" lengthAdjust="spacing" textLength="56.6016" x="204.7" y="553.892">main.py</text></g><!--entity BE_requirements--><g class="entity" data-entity="BE_requirements" data-source-line="87" data-uid="ent0049" id="entity_BE_requirements"><rect fill="#F1F1F1" height="36.2969" rx="2.5" ry="2.5" style="stroke:#181818;stroke-width:0.5;" width="138.0088" x="22" y="530.8969"/><text fill="#000000" font-family="sans-serif" font-size="14" lengthAdjust="spacing" textLength="118.0088" x="32" y="553.892">requirements.txt</text></g><!--entity BE_api_v1_api--><g class="entity" data-entity="BE_api_v1_api" data-source-line="48" data-uid="ent0024" id="entity_BE_api_v1_api"><rect fill="#F1F1F1" height="36.2969" rx="2.5" ry="2.5" style="stroke:#181818;stroke-width:0.5;" width="62.9775" x="1398.51" y="530.8969"/><text fill="#000000" font-family="sans-serif" font-size="14" lengthAdjust="spacing" textLength="42.9775" x="1408.51" y="553.892">api.py</text></g><!--entity BE_ep_map--><g class="entity" data-entity="BE_ep_map" data-source-line="50" data-uid="ent0026" id="entity_BE_ep_map"><rect fill="#F1F1F1" height="36.2969" rx="2.5" ry="2.5" style="stroke:#181818;stroke-width:0.5;" width="72.7256" x="1496.64" y="530.8969"/><text fill="#000000" font-family="sans-serif" font-size="14" lengthAdjust="spacing" textLength="52.7256" x="1506.64" y="553.892">map.py</text></g><!--entity BE_ep_requests--><g class="entity" data-entity="BE_ep_requests" data-source-line="51" data-uid="ent0027" id="entity_BE_ep_requests"><rect fill="#F1F1F1" height="36.2969" rx="2.5" ry="2.5" style="stroke:#181818;stroke-width:0.5;" width="102.4414" x="1716.78" y="530.8969"/><text fill="#000000" font-family="sans-serif" font-size="14" lengthAdjust="spacing" textLength="82.4414" x="1726.78" y="553.892">requests.py</text></g><!--entity BE_ep_couriers--><g class="entity" data-entity="BE_ep_couriers" data-source-line="52" data-uid="ent0028" id="entity_BE_ep_couriers"><rect fill="#F1F1F1" height="36.2969" rx="2.5" ry="2.5" style="stroke:#181818;stroke-width:0.5;" width="98.0664" x="1966.97" y="530.8969"/><text fill="#000000" font-family="sans-serif" font-size="14" lengthAdjust="spacing" textLength="78.0664" x="1976.97" y="553.892">couriers.py</text></g><!--entity BE_ep_tours--><g class="entity" data-entity="BE_ep_tours" data-source-line="53" data-uid="ent0029" id="entity_BE_ep_tours"><rect fill="#F1F1F1" height="36.2969" rx="2.5" ry="2.5" style="stroke:#181818;stroke-width:0.5;" width="77.5996" x="1854.2" y="530.8969"/><text fill="#000000" font-family="sans-serif" font-size="14" lengthAdjust="spacing" textLength="57.5996" x="1864.2" y="553.892">tours.py</text></g><!--entity BE_ep_deliveries--><g class="entity" data-entity="BE_ep_deliveries" data-source-line="54" data-uid="ent0030" id="entity_BE_ep_deliveries"><rect fill="#F1F1F1" height="36.2969" rx="2.5" ry="2.5" style="stroke:#181818;stroke-width:0.5;" width="109.3525" x="2100.32" y="530.8969"/><text fill="#000000" font-family="sans-serif" font-size="14" lengthAdjust="spacing" textLength="89.3525" x="2110.32" y="553.892">deliveries.py</text></g><!--entity BE_ep_state--><g class="entity" data-entity="BE_ep_state" data-source-line="55" data-uid="ent0031" id="entity_BE_ep_state"><rect fill="#F1F1F1" height="36.2969" rx="2.5" ry="2.5" style="stroke:#181818;stroke-width:0.5;" width="77.0869" x="1604.46" y="530.8969"/><text fill="#000000" font-family="sans-serif" font-size="14" lengthAdjust="spacing" textLength="57.0869" x="1614.46" y="553.892">state.py</text></g><!--entity BE_ep_saved_tours--><g class="entity" data-entity="BE_ep_saved_tours" data-source-line="56" data-uid="ent0032" id="entity_BE_ep_saved_tours"><rect fill="#F1F1F1" height="36.2969" rx="2.5" ry="2.5" style="stroke:#181818;stroke-width:0.5;" width="126.2578" x="2244.87" y="530.8969"/><text fill="#000000" font-family="sans-serif" font-size="14" lengthAdjust="spacing" textLength="106.2578" x="2254.87" y="553.892">saved_tours.py</text></g><!--entity BE_core_config--><g class="entity" data-entity="BE_core_config" data-source-line="61" data-uid="ent0034" id="entity_BE_core_config"><rect fill="#F1F1F1" height="36.2969" rx="2.5" ry="2.5" style="stroke:#181818;stroke-width:0.5;" width="84.4629" x="1865.77" y="675.1869"/><text fill="#000000" font-family="sans-serif" font-size="14" lengthAdjust="spacing" textLength="64.4629" x="1875.77" y="698.182">config.py</text></g><!--entity BE_core_env--><g class="entity" data-entity="BE_core_env" data-source-line="62" data-uid="ent0035" id="entity_BE_core_env"><rect fill="#F1F1F1" height="36.2969" rx="2.5" ry="2.5" style="stroke:#181818;stroke-width:0.5;" width="67.3936" x="1763.3" y="675.1869"/><text fill="#000000" font-family="sans-serif" font-size="14" lengthAdjust="spacing" textLength="47.3936" x="1773.3" y="698.182">env.py</text></g><!--entity BE_core_state--><g class="entity" data-entity="BE_core_state" data-source-line="63" data-uid="ent0036" id="entity_BE_core_state"><rect fill="#F1F1F1" height="36.2969" rx="2.5" ry="2.5" style="stroke:#181818;stroke-width:0.5;" width="77.0869" x="1985.46" y="675.1869"/><text fill="#000000" font-family="sans-serif" font-size="14" lengthAdjust="spacing" textLength="57.0869" x="1995.46" y="698.182">state.py</text></g><!--entity BE_models_schemas--><g class="entity" data-entity="BE_models_schemas" data-source-line="67" data-uid="ent0038" id="entity_BE_models_schemas"><rect fill="#F1F1F1" height="36.2969" rx="2.5" ry="2.5" style="stroke:#181818;stroke-width:0.5;" width="103.6104" x="1076.19" y="675.1869"/><text fill="#000000" font-family="sans-serif" font-size="14" lengthAdjust="spacing" textLength="83.6104" x="1086.19" y="698.182">schemas.py</text></g><!--entity BE_services_TSP--><g class="entity" data-entity="BE_services_TSP" data-source-line="71" data-uid="ent0040" id="entity_BE_services_TSP"><rect fill="#F1F1F1" height="36.2969" rx="2.5" ry="2.5" style="stroke:#181818;stroke-width:0.5;" width="119.2441" x="916.38" y="530.8969"/><text fill="#000000" font-family="sans-serif" font-size="14" lengthAdjust="spacing" textLength="99.2441" x="926.38" y="553.892">TSPService.py</text></g><!--entity BE_services_XML--><g class="entity" data-entity="BE_services_XML" data-source-line="72" data-uid="ent0041" id="entity_BE_services_XML"><rect fill="#F1F1F1" height="36.2969" rx="2.5" ry="2.5" style="stroke:#181818;stroke-width:0.5;" width="115.5322" x="1070.23" y="530.8969"/><text fill="#000000" font-family="sans-serif" font-size="14" lengthAdjust="spacing" textLength="95.5322" x="1080.23" y="553.892">XMLParser.py</text></g><!--entity BE_services_Map--><g class="entity" data-entity="BE_services_Map" data-source-line="73" data-uid="ent0042" id="entity_BE_services_Map"><rect fill="#F1F1F1" height="36.2969" rx="2.5" ry="2.5" style="stroke:#181818;stroke-width:0.5;" width="122.9082" x="1220.55" y="530.8969"/><text fill="#000000" font-family="sans-serif" font-size="14" lengthAdjust="spacing" textLength="102.9082" x="1230.55" y="553.892">MapService.py</text></g><!--entity BE_utils_TSP--><g class="entity" data-entity="BE_utils_TSP" data-source-line="77" data-uid="ent0044" id="entity_BE_utils_TSP"><rect fill="#F1F1F1" height="36.2969" rx="2.5" ry="2.5" style="stroke:#181818;stroke-width:0.5;" width="57.5977" x="802.2" y="530.8969"/><text fill="#000000" font-family="sans-serif" font-size="14" lengthAdjust="spacing" textLength="37.5977" x="812.2" y="553.892">TSP/*</text></g><!--entity BE_utils_networkx--><g class="entity" data-entity="BE_utils_networkx" data-source-line="78" data-uid="ent0045" id="entity_BE_utils_networkx"><rect fill="#F1F1F1" height="36.2969" rx="2.5" ry="2.5" style="stroke:#181818;stroke-width:0.5;" width="159.4326" x="607.28" y="530.8969"/><text fill="#000000" font-family="sans-serif" font-size="14" lengthAdjust="spacing" textLength="139.4326" x="617.28" y="553.892">Astar/TSP_networkx</text></g><!--entity BE_tests_api--><g class="entity" data-entity="BE_tests_api" data-source-line="83" data-uid="ent0047" id="entity_BE_tests_api"><rect fill="#F1F1F1" height="36.2969" rx="2.5" ry="2.5" style="stroke:#181818;stroke-width:0.5;" width="96.8633" x="430.57" y="530.8969"/><text fill="#000000" font-family="sans-serif" font-size="14" lengthAdjust="spacing" textLength="76.8633" x="440.57" y="553.892">test_api.py</text></g><!--entity BE_tests_tsp--><g class="entity" data-entity="BE_tests_tsp" data-source-line="84" data-uid="ent0048" id="entity_BE_tests_tsp"><rect fill="#F1F1F1" height="36.2969" rx="2.5" ry="2.5" style="stroke:#181818;stroke-width:0.5;" width="89.5557" x="306.22" y="530.8969"/><text fill="#000000" font-family="sans-serif" font-size="14" lengthAdjust="spacing" textLength="69.5557" x="316.22" y="553.892">test_tsp_*</text></g><g class="entity" data-entity="GMN61" data-source-line="108" data-uid="ent0062" id="entity_GMN61"><path d="M1941.01,224.4769 L1941.01,255.7469 L1459.65,259.7469 L1941.01,263.7469 L1941.01,295.0081 A0,0 0 0 0 1941.01,295.0081 L2238.9963,295.0081 A0,0 0 0 0 2238.9963,295.0081 L2238.9963,234.4769 L2228.9963,224.4769 L1941.01,224.4769 A0,0 0 0 0 1941.01,224.4769" fill="#FEFFDD" style="stroke:#181818;stroke-width:0.5;"/><path d="M2228.9963,224.4769 L2228.9963,234.4769 L2238.9963,234.4769 L2228.9963,224.4769" fill="#FEFFDD" style="stroke:#181818;stroke-width:0.5;"/><text fill="#000000" font-family="sans-serif" font-size="13" lengthAdjust="spacing" textLength="252.2432" x="1947.01" y="241.5438">API client that calls backend endpoints</text><text fill="#000000" font-family="sans-serif" font-size="13" lengthAdjust="spacing" textLength="276.3325" x="1947.01" y="256.6766">(map, requests, couriers, tours, deliveries,</text><text fill="#000000" font-family="sans-serif" font-size="13" lengthAdjust="spacing" textLength="276.9863" x="1947.01" y="271.8094">saved_tours, state). Main integration point</text><text fill="#000000" font-family="sans-serif" font-size="13" lengthAdjust="spacing" textLength="208.2856" x="1947.01" y="286.9422">between frontend and backend.</text></g><g class="entity" data-entity="GMN64" data-source-line="115" data-uid="ent0065" id="entity_GMN64"><path d="M2474.82,665.6369 L2474.82,689.3369 L2063.02,693.3369 L2474.82,697.3369 L2474.82,721.0353 A0,0 0 0 0 2474.82,721.0353 L2793.1823,721.0353 A0,0 0 0 0 2793.1823,721.0353 L2793.1823,675.6369 L2783.1823,665.6369 L2474.82,665.6369 A0,0 0 0 0 2474.82,665.6369" fill="#FEFFDD" style="stroke:#181818;stroke-width:0.5;"/><path d="M2783.1823,665.6369 L2783.1823,675.6369 L2793.1823,675.6369 L2783.1823,665.6369" fill="#FEFFDD" style="stroke:#181818;stroke-width:0.5;"/><text fill="#000000" font-family="sans-serif" font-size="13" lengthAdjust="spacing" textLength="297.3623" x="2480.82" y="682.7038">In-memory application state (map, deliveries,</text><text fill="#000000" font-family="sans-serif" font-size="13" lengthAdjust="spacing" textLength="261.8789" x="2480.82" y="697.8366">couriers, tours) plus persistence helpers</text><text fill="#000000" font-family="sans-serif" font-size="13" lengthAdjust="spacing" textLength="268.4106" x="2480.82" y="712.9694">(persist/load snapshots, save/load state).</text></g><!--link FE_lib_api to BE_api_v1_api--><g class="link" data-entity-1="FE_lib_api" data-entity-2="BE_api_v1_api" data-source-line="91" data-uid="lnk50" id="link_FE_lib_api_BE_api_v1_api"><path d="M1430,278.2869 C1430,329.6969 1430,473.6169 1430,524.7369" fill="none" id="FE_lib_api-to-BE_api_v1_api" style="stroke:#181818;stroke-width:1;stroke-dasharray:7.0,7.0;"/><polygon fill="#181818" points="1430,530.7369,1434,521.7369,1430,525.7369,1426,521.7369,1430,530.7369" style="stroke:#181818;stroke-width:1;"/><text fill="#000000" font-family="sans-serif" font-size="13" lengthAdjust="spacing" textLength="145.9961" x="1431" y="346.9638">HTTP/REST (API client)</text></g><!--link FE_pages_main to FE_lib_api--><g class="link" data-entity-1="FE_pages_main" data-entity-2="FE_lib_api" data-source-line="94" data-uid="lnk51" id="link_FE_pages_main_FE_lib_api"><path d="M1430,157.9069 C1430,180.2669 1430,212.8169 1430,235.2169" fill="none" id="FE_pages_main-to-FE_lib_api" style="stroke:#181818;stroke-width:1;"/><polygon fill="#181818" points="1430,241.2169,1434,232.2169,1430,236.2169,1426,232.2169,1430,241.2169" style="stroke:#181818;stroke-width:1;"/></g><!--link FE_hooks_useDeliveryApp to FE_lib_api--><g class="link" data-entity-1="FE_hooks_useDeliveryApp" data-entity-2="FE_lib_api" data-source-line="95" data-uid="lnk52" id="link_FE_hooks_useDeliveryApp_FE_lib_api"><path d="M1071.55,157.9369 C1091.35,166.5969 1116.51,176.2969 1140,181.5969 C1192.81,193.4969 1335.2,173.1869 1383,198.5969 C1400.55,207.9269 1410.7596,221.73 1418.6196,235.9" fill="none" id="FE_hooks_useDeliveryApp-to-FE_lib_api" style="stroke:#181818;stroke-width:1;"/><polygon fill="#181818" points="1421.53,241.1469,1420.6623,231.3363,1419.1047,236.7745,1413.6665,235.2168,1421.53,241.1469" style="stroke:#181818;stroke-width:1;"/></g><!--link BE_ep_map to BE_core_state--><g class="link" data-entity-1="BE_ep_map" data-entity-2="BE_core_state" data-source-line="97" data-uid="lnk53" id="link_BE_ep_map_BE_core_state"><path d="M1541.89,567.4269 C1550.92,583.0269 1566.48,604.9869 1587,615.1869 C1605.97,624.6269 1948.77,623.3069 1968,632.1869 C1987.56,641.2269 2000.139,655.577 2009.949,669.897" fill="none" id="BE_ep_map-to-BE_core_state" style="stroke:#181818;stroke-width:1;"/><polygon fill="#181818" points="2013.34,674.8469,2011.5535,665.1614,2010.5142,670.722,2004.9536,669.6827,2013.34,674.8469" style="stroke:#181818;stroke-width:1;"/></g><!--link BE_ep_requests to BE_core_state--><g class="link" data-entity-1="BE_ep_requests" data-entity-2="BE_core_state" data-source-line="98" data-uid="lnk54" id="link_BE_ep_requests_BE_core_state"><path d="M1781.22,567.6469 C1793.76,582.9469 1814.08,604.3169 1837,615.1869 C1890.05,640.3469 1915.79,605.3369 1968,632.1869 C1986.9,641.9169 1999.2895,655.8095 2009.2595,669.8095" fill="none" id="BE_ep_requests-to-BE_core_state" style="stroke:#181818;stroke-width:1;"/><polygon fill="#181818" points="2012.74,674.6969,2010.7775,665.0455,2009.8396,670.6241,2004.261,669.6862,2012.74,674.6969" style="stroke:#181818;stroke-width:1;"/></g><!--link BE_ep_tours to BE_core_state--><g class="link" data-entity-1="BE_ep_tours" data-entity-2="BE_core_state" data-source-line="99" data-uid="lnk55" id="link_BE_ep_tours_BE_core_state"><path d="M1906.92,567.4569 C1917.91,580.8969 1933.86,599.7469 1949,615.1869 C1956.93,623.2769 1959.91,624.2569 1968,632.1869 C1982.16,646.0769 1993.43,658.1627 2004.45,670.3727" fill="none" id="BE_ep_tours-to-BE_core_state" style="stroke:#181818;stroke-width:1;"/><polygon fill="#181818" points="2008.47,674.8269,2005.4094,665.4656,2005.12,671.1151,1999.4705,670.8257,2008.47,674.8269" style="stroke:#181818;stroke-width:1;"/></g><!--link BE_ep_deliveries to BE_core_state--><g class="link" data-entity-1="BE_ep_deliveries" data-entity-2="BE_core_state" data-source-line="100" data-uid="lnk56" id="link_BE_ep_deliveries_BE_core_state"><path d="M2138.94,567.4869 C2113.79,594.7969 2069.4843,642.9331 2044.2543,670.3331" fill="none" id="BE_ep_deliveries-to-BE_core_state" style="stroke:#181818;stroke-width:1;"/><polygon fill="#181818" points="2040.19,674.7469,2049.2289,670.8357,2043.5769,671.0687,2043.3438,665.4166,2040.19,674.7469" style="stroke:#181818;stroke-width:1;"/></g><!--link BE_ep_saved_tours to BE_core_state--><g class="link" data-entity-1="BE_ep_saved_tours" data-entity-2="BE_core_state" data-source-line="101" data-uid="lnk57" id="link_BE_ep_saved_tours_BE_core_state"><path d="M2289.61,567.6669 C2273.94,581.9469 2250.33,601.8269 2227,615.1869 C2173.35,645.9269 2110.8793,667.2307 2068.7693,679.8007" fill="none" id="BE_ep_saved_tours-to-BE_core_state" style="stroke:#181818;stroke-width:1;"/><polygon fill="#181818" points="2063.02,681.5169,2072.7881,682.7755,2067.8111,680.0867,2070.4998,675.1097,2063.02,681.5169" style="stroke:#181818;stroke-width:1;"/></g><!--link BE_services_TSP to BE_models_schemas--><g class="link" data-entity-1="BE_services_TSP" data-entity-2="BE_models_schemas" data-source-line="103" data-uid="lnk58" id="link_BE_services_TSP_BE_models_schemas"><path d="M994.64,567.4869 C1023.81,594.7969 1075.5597,643.2465 1104.8297,670.6465" fill="none" id="BE_services_TSP-to-BE_models_schemas" style="stroke:#181818;stroke-width:1;"/><polygon fill="#181818" points="1109.21,674.7469,1105.3732,665.6761,1105.5598,671.3299,1099.906,671.5164,1109.21,674.7469" style="stroke:#181818;stroke-width:1;"/></g><!--link BE_services_XML to BE_models_schemas--><g class="link" data-entity-1="BE_services_XML" data-entity-2="BE_models_schemas" data-source-line="104" data-uid="lnk59" id="link_BE_services_XML_BE_models_schemas"><path d="M1128,567.4869 C1128,594.7969 1128,641.3469 1128,668.7469" fill="none" id="BE_services_XML-to-BE_models_schemas" style="stroke:#181818;stroke-width:1;"/><polygon fill="#181818" points="1128,674.7469,1132,665.7469,1128,669.7469,1124,665.7469,1128,674.7469" style="stroke:#181818;stroke-width:1;"/></g><!--link BE_services_Map to BE_models_schemas--><g class="link" data-entity-1="BE_services_Map" data-entity-2="BE_models_schemas" data-source-line="105" data-uid="lnk60" id="link_BE_services_Map_BE_models_schemas"><path d="M1263.12,567.4869 C1233.56,594.7969 1181.0965,643.2747 1151.4465,670.6747" fill="none" id="BE_services_Map-to-BE_models_schemas" style="stroke:#181818;stroke-width:1;"/><polygon fill="#181818" points="1147.04,674.7469,1156.3646,671.5763,1150.7121,671.3534,1150.935,665.701,1147.04,674.7469" style="stroke:#181818;stroke-width:1;"/></g><!--SRC=[ZLPBRnit4BxlhvWwXrg1BBL53qOF0UHOGe9OiM0RHMyRUZMIME-Ix99hMmZytplaSbzSgkb1mdBccoVdGSDDZh1XsHFR8rnpjYzP0HUmAUNVc1bObDc16_ggIeHpVCtoQil57hQOysSisMEEUf8aFsrnnmN2wkxswyFowtNwyVRczWxUBIzNlw-kM_RLukENZWllLh-iBfUNBNjzUxsyQPYMlLhzHkn4Ft6Xc7KiauMI0eMvDqVokoJ7cDZdc2G_mwgKmg3OmZaZTraEEvbliTJp7ISdeH9qW6yxZvhhClisIPIF_AoJlaEIdr0E-j0pO1fMop30xmb0guBSAezdZWQTft1MC2vcHhzw7Qd3fPOQ8XTAZO5CASAz9NrJYlvrnDGdMU2V75_wMXmsFH0dHA_9XJZQEpSqsah6B5Ty_hxHqG7JYeV0d1rbPNGKxNaZomSfdw96DLxNXNYar3KA7JeTyYAI5uLyfCeOIQqTUUH3pXyZ7Z35PpOVjGx2q7MDGguCptK0SxIH4NDKqNiTcd4eR-WjURF5VqKQVbZxZpMeN_Qjt8ffizXyjdNlOSxQrJ9esk_Mtx2urT63wyBfHyJylH2FFdraFIwVqozz_hK3sPF7ZNBG6QfnRRO7RRXLaWkVhYlRHfxGQWqYK3szg2W65SEL-4-5skWXkA76939PbPnkOIZHK6CIXdW1t95YM3-2EGO27JqcfGqpE1Hmf2YMFUCsZVZKOtYvjwJ-7rvl9ajinEntx5epANPytzDlWMbD7QDHF8TG8YK_3DCXkq13Hmj9MMiBfZuDrb74SPqTi63zpDHogMT43Maidtc6hQdc73FmSB-vhzaz6ur0Ijono5_hcmqh2HEJ8EPOOitKVnXP-rO8mt3Jgq6xmua0_9XlK76l5tGnvPnOgK3p8ikdrw5GGqsQIWk6fks_Hi8TnWFKajFX1778sBXsMADL-du89L9ZEnWBlCJ2Bh2PUJMDJ9zUp-YxIXXUe1KkAi4pPhWK6XYDtn8rwTESDWytjdExPGApsOVXm8C_uDF3msP-jxn_W7CQsf3bdCnCh94lUAJ7cQAPXo8ZJKxzBfSlJcUttU7YuaD_PPtOco4iQKUaummxQpWHJmBSt3Z9xSRNIKXl_4GmIT0b3IJepg0p_WTgtGKTe18X3Rr6-VvWGEw6Bu7kVi0Sc86CvTGjViT2kvi8UKvPdKAJlYaqYs8ABjGfTAcP4hoNXIcuq2Spi4yw87r8xtXRNk2q4_gHUWXHj8zQLnVUYrbY2JO67qcEEnT8E3W_Yui22raUWNPvxYkujksz7xeOH301bLSQ556u9YSoX0Fcgjw5vvuypoNRWXPCwOEqQR1nUc8TPEVjlm00]--></g></svg>