<svg xmlns="http://www.w3.org/2000/svg" xmlns:xlink="http://www.w3.org/1999/xlink" contentStyleType="text/css" data-diagram-type="DESCRIPTION" height="819px" preserveAspectRatio="none" style="width:1147px;height:819px;background:#FFFFFF;" version="1.1" viewBox="0 0 1147 819" width="1147px" zoomAndPan="magnify"><defs/><g><!--cluster Frontend (React)--><g class="cluster" data-entity="Frontend (React)" data-source-line="7" data-uid="ent0002" id="cluster_Frontend (React)"><path d="M353.5,6 L489.1133,6 A3.75,3.75 0 0 1 491.6133,8.5 L498.6133,28.2969 L1137.5,28.2969 A2.5,2.5 0 0 1 1140,30.7969 L1140,208.09 A2.5,2.5 0 0 1 1137.5,210.59 L353.5,210.59 A2.5,2.5 0 0 1 351,208.09 L351,8.5 A2.5,2.5 0 0 1 353.5,6" fill="#E8F4FD" style="stroke:#000000;stroke-width:1.5;"/><line style="stroke:#000000;stroke-width:1.5;" x1="351" x2="498.6133" y1="28.2969" y2="28.2969"/><text fill="#000000" font-family="sans-serif" font-size="14" font-weight="bold" lengthAdjust="spacing" textLength="134.6133" x="355" y="20.9951">Frontend (React)</text></g><!--cluster Backend (FastAPI)--><g class="cluster" data-entity="Backend (FastAPI)" data-source-line="17" data-uid="ent0009" id="cluster_Backend (FastAPI)"><path d="M8.5,259.59 L154.7227,259.59 A3.75,3.75 0 0 1 157.2227,262.09 L164.2227,281.8869 L1050.5,281.8869 A2.5,2.5 0 0 1 1053,284.3869 L1053,810.28 A2.5,2.5 0 0 1 1050.5,812.78 L8.5,812.78 A2.5,2.5 0 0 1 6,810.28 L6,262.09 A2.5,2.5 0 0 1 8.5,259.59" fill="#F0F8E8" style="stroke:#000000;stroke-width:1.5;"/><line style="stroke:#000000;stroke-width:1.5;" x1="6" x2="164.2227" y1="281.8869" y2="281.8869"/><text fill="#000000" font-family="sans-serif" font-size="14" font-weight="bold" lengthAdjust="spacing" textLength="145.2227" x="10" y="274.5851">Backend (FastAPI)</text></g><!--cluster Controllers--><g class="cluster" data-entity="Controllers" data-source-line="20" data-uid="ent0010" id="cluster_Controllers"><path d="M483.5,302.59 L571.9043,302.59 A3.75,3.75 0 0 1 574.4043,305.09 L581.4043,324.8869 L1026.5,324.8869 A2.5,2.5 0 0 1 1029,327.3869 L1029,397.39 A2.5,2.5 0 0 1 1026.5,399.89 L483.5,399.89 A2.5,2.5 0 0 1 481,397.39 L481,305.09 A2.5,2.5 0 0 1 483.5,302.59" fill="none" style="stroke:#000000;stroke-width:1.5;"/><line style="stroke:#000000;stroke-width:1.5;" x1="481" x2="581.4043" y1="324.8869" y2="324.8869"/><text fill="#000000" font-family="sans-serif" font-size="14" font-weight="bold" lengthAdjust="spacing" textLength="87.4043" x="485" y="317.5851">Controllers</text></g><!--cluster Services--><g class="cluster" data-entity="Services" data-source-line="27" data-uid="ent0014" id="cluster_Services"><path d="M702.5,432.89 L770.0342,432.89 A3.75,3.75 0 0 1 772.5342,435.39 L779.5342,455.1869 L1026.5,455.1869 A2.5,2.5 0 0 1 1029,457.6869 L1029,655.98 A2.5,2.5 0 0 1 1026.5,658.48 L702.5,658.48 A2.5,2.5 0 0 1 700,655.98 L700,435.39 A2.5,2.5 0 0 1 702.5,432.89" fill="none" style="stroke:#000000;stroke-width:1.5;"/><line style="stroke:#000000;stroke-width:1.5;" x1="700" x2="779.5342" y1="455.1869" y2="455.1869"/><text fill="#000000" font-family="sans-serif" font-size="14" font-weight="bold" lengthAdjust="spacing" textLength="66.5342" x="704" y="447.8851">Services</text></g><!--cluster Models--><g class="cluster" data-entity="Models" data-source-line="34" data-uid="ent0018" id="cluster_Models"><path d="M32.5,561.19 L89.6982,561.19 A3.75,3.75 0 0 1 92.1982,563.69 L99.1982,583.4869 L673.5,583.4869 A2.5,2.5 0 0 1 676,585.9869 L676,786.28 A2.5,2.5 0 0 1 673.5,788.78 L32.5,788.78 A2.5,2.5 0 0 1 30,786.28 L30,563.69 A2.5,2.5 0 0 1 32.5,561.19" fill="#FFF2E8" style="stroke:#000000;stroke-width:1.5;"/><line style="stroke:#000000;stroke-width:1.5;" x1="30" x2="99.1982" y1="583.4869" y2="583.4869"/><text fill="#000000" font-family="sans-serif" font-size="14" font-weight="bold" lengthAdjust="spacing" textLength="56.1982" x="34" y="576.1851">Models</text></g><!--cluster Utils--><g class="cluster" data-entity="Utils" data-source-line="44" data-uid="ent0025" id="cluster_Utils"><path d="M718.5,691.48 L755.4912,691.48 A3.75,3.75 0 0 1 757.9912,693.98 L764.9912,713.7769 L1010.5,713.7769 A2.5,2.5 0 0 1 1013,716.2769 L1013,786.28 A2.5,2.5 0 0 1 1010.5,788.78 L718.5,788.78 A2.5,2.5 0 0 1 716,786.28 L716,693.98 A2.5,2.5 0 0 1 718.5,691.48" fill="none" style="stroke:#000000;stroke-width:1.5;"/><line style="stroke:#000000;stroke-width:1.5;" x1="716" x2="764.9912" y1="713.7769" y2="713.7769"/><text fill="#000000" font-family="sans-serif" font-size="14" font-weight="bold" lengthAdjust="spacing" textLength="35.9912" x="720" y="706.4751">Utils</text></g><!--entity MapView--><g class="entity" data-entity="MapView" data-source-line="8" data-uid="ent0003" id="entity_MapView"><rect fill="#F1F1F1" height="46.2969" rx="2.5" ry="2.5" style="stroke:#181818;stroke-width:0.5;" width="103.0752" x="1020.46" y="41"/><rect fill="#F1F1F1" height="10" style="stroke:#181818;stroke-width:0.5;" width="15" x="1103.5352" y="46"/><rect fill="#F1F1F1" height="2" style="stroke:#181818;stroke-width:0.5;" width="4" x="1101.5352" y="48"/><rect fill="#F1F1F1" height="2" style="stroke:#181818;stroke-width:0.5;" width="4" x="1101.5352" y="52"/><text fill="#000000" font-family="sans-serif" font-size="14" lengthAdjust="spacing" textLength="63.0752" x="1035.46" y="73.9951">MapView</text></g><!--entity CourierPanel--><g class="entity" data-entity="CourierPanel" data-source-line="9" data-uid="ent0004" id="entity_CourierPanel"><rect fill="#F1F1F1" height="46.2969" rx="2.5" ry="2.5" style="stroke:#181818;stroke-width:0.5;" width="129.626" x="856.19" y="41"/><rect fill="#F1F1F1" height="10" style="stroke:#181818;stroke-width:0.5;" width="15" x="965.816" y="46"/><rect fill="#F1F1F1" height="2" style="stroke:#181818;stroke-width:0.5;" width="4" x="963.816" y="48"/><rect fill="#F1F1F1" height="2" style="stroke:#181818;stroke-width:0.5;" width="4" x="963.816" y="52"/><text fill="#000000" font-family="sans-serif" font-size="14" lengthAdjust="spacing" textLength="89.626" x="871.19" y="73.9951">CourierPanel</text></g><!--entity DeliveryForm--><g class="entity" data-entity="DeliveryForm" data-source-line="10" data-uid="ent0005" id="entity_DeliveryForm"><rect fill="#F1F1F1" height="46.2969" rx="2.5" ry="2.5" style="stroke:#181818;stroke-width:0.5;" width="134.124" x="686.94" y="41"/><rect fill="#F1F1F1" height="10" style="stroke:#181818;stroke-width:0.5;" width="15" x="801.064" y="46"/><rect fill="#F1F1F1" height="2" style="stroke:#181818;stroke-width:0.5;" width="4" x="799.064" y="48"/><rect fill="#F1F1F1" height="2" style="stroke:#181818;stroke-width:0.5;" width="4" x="799.064" y="52"/><text fill="#000000" font-family="sans-serif" font-size="14" lengthAdjust="spacing" textLength="94.124" x="701.94" y="73.9951">DeliveryForm</text></g><!--entity TourDisplay--><g class="entity" data-entity="TourDisplay" data-source-line="11" data-uid="ent0006" id="entity_TourDisplay"><rect fill="#F1F1F1" height="46.2969" rx="2.5" ry="2.5" style="stroke:#181818;stroke-width:0.5;" width="123.3506" x="528.32" y="41"/><rect fill="#F1F1F1" height="10" style="stroke:#181818;stroke-width:0.5;" width="15" x="631.6706" y="46"/><rect fill="#F1F1F1" height="2" style="stroke:#181818;stroke-width:0.5;" width="4" x="629.6706" y="48"/><rect fill="#F1F1F1" height="2" style="stroke:#181818;stroke-width:0.5;" width="4" x="629.6706" y="52"/><text fill="#000000" font-family="sans-serif" font-size="14" lengthAdjust="spacing" textLength="83.3506" x="543.32" y="73.9951">TourDisplay</text></g><!--entity FileManager--><g class="entity" data-entity="FileManager" data-source-line="12" data-uid="ent0007" id="entity_FileManager"><rect fill="#F1F1F1" height="46.2969" rx="2.5" ry="2.5" style="stroke:#181818;stroke-width:0.5;" width="125.8115" x="367.09" y="41"/><rect fill="#F1F1F1" height="10" style="stroke:#181818;stroke-width:0.5;" width="15" x="472.9015" y="46"/><rect fill="#F1F1F1" height="2" style="stroke:#181818;stroke-width:0.5;" width="4" x="470.9015" y="48"/><rect fill="#F1F1F1" height="2" style="stroke:#181818;stroke-width:0.5;" width="4" x="470.9015" y="52"/><text fill="#000000" font-family="sans-serif" font-size="14" lengthAdjust="spacing" textLength="85.8115" x="382.09" y="73.9951">FileManager</text></g><!--entity APIClient--><g class="entity" data-entity="APIClient" data-source-line="13" data-uid="ent0008" id="entity_APIClient"><rect fill="#F1F1F1" height="46.2969" rx="2.5" ry="2.5" style="stroke:#181818;stroke-width:0.5;" width="102.6787" x="702.66" y="148.3"/><rect fill="#F1F1F1" height="10" style="stroke:#181818;stroke-width:0.5;" width="15" x="785.3387" y="153.3"/><rect fill="#F1F1F1" height="2" style="stroke:#181818;stroke-width:0.5;" width="4" x="783.3387" y="155.3"/><rect fill="#F1F1F1" height="2" style="stroke:#181818;stroke-width:0.5;" width="4" x="783.3387" y="159.3"/><text fill="#000000" font-family="sans-serif" font-size="14" lengthAdjust="spacing" textLength="62.6787" x="717.66" y="181.2951">APIClient</text></g><!--entity MapController--><g class="entity" data-entity="MapController" data-source-line="21" data-uid="ent0011" id="entity_MapController"><rect fill="#F1F1F1" height="46.2969" rx="2.5" ry="2.5" style="stroke:#181818;stroke-width:0.5;" width="138.7178" x="496.64" y="337.59"/><rect fill="#F1F1F1" height="10" style="stroke:#181818;stroke-width:0.5;" width="15" x="615.3578" y="342.59"/><rect fill="#F1F1F1" height="2" style="stroke:#181818;stroke-width:0.5;" width="4" x="613.3578" y="344.59"/><rect fill="#F1F1F1" height="2" style="stroke:#181818;stroke-width:0.5;" width="4" x="613.3578" y="348.59"/><text fill="#000000" font-family="sans-serif" font-size="14" lengthAdjust="spacing" textLength="98.7178" x="511.64" y="370.5851">MapController</text></g><!--entity DeliveryController--><g class="entity" data-entity="DeliveryController" data-source-line="22" data-uid="ent0012" id="entity_DeliveryController"><rect fill="#F1F1F1" height="46.2969" rx="2.5" ry="2.5" style="stroke:#181818;stroke-width:0.5;" width="167.2852" x="670.36" y="337.59"/><rect fill="#F1F1F1" height="10" style="stroke:#181818;stroke-width:0.5;" width="15" x="817.6452" y="342.59"/><rect fill="#F1F1F1" height="2" style="stroke:#181818;stroke-width:0.5;" width="4" x="815.6452" y="344.59"/><rect fill="#F1F1F1" height="2" style="stroke:#181818;stroke-width:0.5;" width="4" x="815.6452" y="348.59"/><text fill="#000000" font-family="sans-serif" font-size="14" lengthAdjust="spacing" textLength="127.2852" x="685.36" y="370.5851">DeliveryController</text></g><!--entity TourController--><g class="entity" data-entity="TourController" data-source-line="23" data-uid="ent0013" id="entity_TourController"><rect fill="#F1F1F1" height="46.2969" rx="2.5" ry="2.5" style="stroke:#181818;stroke-width:0.5;" width="140.9189" x="872.54" y="337.59"/><rect fill="#F1F1F1" height="10" style="stroke:#181818;stroke-width:0.5;" width="15" x="993.4589" y="342.59"/><rect fill="#F1F1F1" height="2" style="stroke:#181818;stroke-width:0.5;" width="4" x="991.4589" y="344.59"/><rect fill="#F1F1F1" height="2" style="stroke:#181818;stroke-width:0.5;" width="4" x="991.4589" y="348.59"/><text fill="#000000" font-family="sans-serif" font-size="14" lengthAdjust="spacing" textLength="100.9189" x="887.54" y="370.5851">TourController</text></g><!--entity MapService--><g class="entity" data-entity="MapService" data-source-line="28" data-uid="ent0015" id="entity_MapService"><rect fill="#F1F1F1" height="46.2969" rx="2.5" ry="2.5" style="stroke:#181818;stroke-width:0.5;" width="121.2861" x="716.36" y="467.89"/><rect fill="#F1F1F1" height="10" style="stroke:#181818;stroke-width:0.5;" width="15" x="817.6461" y="472.89"/><rect fill="#F1F1F1" height="2" style="stroke:#181818;stroke-width:0.5;" width="4" x="815.6461" y="474.89"/><rect fill="#F1F1F1" height="2" style="stroke:#181818;stroke-width:0.5;" width="4" x="815.6461" y="478.89"/><text fill="#000000" font-family="sans-serif" font-size="14" lengthAdjust="spacing" textLength="81.2861" x="731.36" y="500.8851">MapService</text></g><!--entity TourOptimizer--><g class="entity" data-entity="TourOptimizer" data-source-line="29" data-uid="ent0016" id="entity_TourOptimizer"><rect fill="#F1F1F1" height="46.2969" rx="2.5" ry="2.5" style="stroke:#181818;stroke-width:0.5;" width="140.2764" x="872.86" y="467.89"/><rect fill="#F1F1F1" height="10" style="stroke:#181818;stroke-width:0.5;" width="15" x="993.1364" y="472.89"/><rect fill="#F1F1F1" height="2" style="stroke:#181818;stroke-width:0.5;" width="4" x="991.1364" y="474.89"/><rect fill="#F1F1F1" height="2" style="stroke:#181818;stroke-width:0.5;" width="4" x="991.1364" y="478.89"/><text fill="#000000" font-family="sans-serif" font-size="14" lengthAdjust="spacing" textLength="100.2764" x="887.86" y="500.8851">TourOptimizer</text></g><!--entity XMLParser--><g class="entity" data-entity="XMLParser" data-source-line="30" data-uid="ent0017" id="entity_XMLParser"><rect fill="#F1F1F1" height="46.2969" rx="2.5" ry="2.5" style="stroke:#181818;stroke-width:0.5;" width="113.9102" x="858.04" y="596.19"/><rect fill="#F1F1F1" height="10" style="stroke:#181818;stroke-width:0.5;" width="15" x="951.9502" y="601.19"/><rect fill="#F1F1F1" height="2" style="stroke:#181818;stroke-width:0.5;" width="4" x="949.9502" y="603.19"/><rect fill="#F1F1F1" height="2" style="stroke:#181818;stroke-width:0.5;" width="4" x="949.9502" y="607.19"/><text fill="#000000" font-family="sans-serif" font-size="14" lengthAdjust="spacing" textLength="73.9102" x="873.04" y="629.1851">XMLParser</text></g><!--entity Map--><g class="entity" data-entity="Map" data-source-line="35" data-uid="ent0019" id="entity_Map"><rect fill="#F1F1F1" height="46.2969" rx="2.5" ry="2.5" style="stroke:#181818;stroke-width:0.5;" width="69.5449" x="239.23" y="596.19"/><rect fill="#F1F1F1" height="10" style="stroke:#181818;stroke-width:0.5;" width="15" x="288.7749" y="601.19"/><rect fill="#F1F1F1" height="2" style="stroke:#181818;stroke-width:0.5;" width="4" x="286.7749" y="603.19"/><rect fill="#F1F1F1" height="2" style="stroke:#181818;stroke-width:0.5;" width="4" x="286.7749" y="607.19"/><text fill="#000000" font-family="sans-serif" font-size="14" lengthAdjust="spacing" textLength="29.5449" x="254.23" y="629.1851">Map</text></g><!--entity Intersection--><g class="entity" data-entity="Intersection" data-source-line="36" data-uid="ent0020" id="entity_Intersection"><rect fill="#F1F1F1" height="46.2969" rx="2.5" ry="2.5" style="stroke:#181818;stroke-width:0.5;" width="123.2822" x="46.36" y="726.48"/><rect fill="#F1F1F1" height="10" style="stroke:#181818;stroke-width:0.5;" width="15" x="149.6422" y="731.48"/><rect fill="#F1F1F1" height="2" style="stroke:#181818;stroke-width:0.5;" width="4" x="147.6422" y="733.48"/><rect fill="#F1F1F1" height="2" style="stroke:#181818;stroke-width:0.5;" width="4" x="147.6422" y="737.48"/><text fill="#000000" font-family="sans-serif" font-size="14" lengthAdjust="spacing" textLength="83.2822" x="61.36" y="759.4751">Intersection</text></g><!--entity RoadSegment--><g class="entity" data-entity="RoadSegment" data-source-line="37" data-uid="ent0021" id="entity_RoadSegment"><rect fill="#F1F1F1" height="46.2969" rx="2.5" ry="2.5" style="stroke:#181818;stroke-width:0.5;" width="138.7588" x="204.62" y="726.48"/><rect fill="#F1F1F1" height="10" style="stroke:#181818;stroke-width:0.5;" width="15" x="323.3788" y="731.48"/><rect fill="#F1F1F1" height="2" style="stroke:#181818;stroke-width:0.5;" width="4" x="321.3788" y="733.48"/><rect fill="#F1F1F1" height="2" style="stroke:#181818;stroke-width:0.5;" width="4" x="321.3788" y="737.48"/><text fill="#000000" font-family="sans-serif" font-size="14" lengthAdjust="spacing" textLength="98.7588" x="219.62" y="759.4751">RoadSegment</text></g><!--entity Courier--><g class="entity" data-entity="Courier" data-source-line="38" data-uid="ent0022" id="entity_Courier"><rect fill="#F1F1F1" height="46.2969" rx="2.5" ry="2.5" style="stroke:#181818;stroke-width:0.5;" width="91.2285" x="378.39" y="726.48"/><rect fill="#F1F1F1" height="10" style="stroke:#181818;stroke-width:0.5;" width="15" x="449.6185" y="731.48"/><rect fill="#F1F1F1" height="2" style="stroke:#181818;stroke-width:0.5;" width="4" x="447.6185" y="733.48"/><rect fill="#F1F1F1" height="2" style="stroke:#181818;stroke-width:0.5;" width="4" x="447.6185" y="737.48"/><text fill="#000000" font-family="sans-serif" font-size="14" lengthAdjust="spacing" textLength="51.2285" x="393.39" y="759.4751">Courier</text></g><!--entity DeliveryRequest--><g class="entity" data-entity="DeliveryRequest" data-source-line="39" data-uid="ent0023" id="entity_DeliveryRequest"><rect fill="#F1F1F1" height="46.2969" rx="2.5" ry="2.5" style="stroke:#181818;stroke-width:0.5;" width="155.6094" x="504.2" y="726.48"/><rect fill="#F1F1F1" height="10" style="stroke:#181818;stroke-width:0.5;" width="15" x="639.8094" y="731.48"/><rect fill="#F1F1F1" height="2" style="stroke:#181818;stroke-width:0.5;" width="4" x="637.8094" y="733.48"/><rect fill="#F1F1F1" height="2" style="stroke:#181818;stroke-width:0.5;" width="4" x="637.8094" y="737.48"/><text fill="#000000" font-family="sans-serif" font-size="14" lengthAdjust="spacing" textLength="115.6094" x="519.2" y="759.4751">DeliveryRequest</text></g><!--entity Tour--><g class="entity" data-entity="Tour" data-source-line="40" data-uid="ent0024" id="entity_Tour"><rect fill="#F1F1F1" height="46.2969" rx="2.5" ry="2.5" style="stroke:#181818;stroke-width:0.5;" width="71.7461" x="546.13" y="596.19"/><rect fill="#F1F1F1" height="10" style="stroke:#181818;stroke-width:0.5;" width="15" x="597.8761" y="601.19"/><rect fill="#F1F1F1" height="2" style="stroke:#181818;stroke-width:0.5;" width="4" x="595.8761" y="603.19"/><rect fill="#F1F1F1" height="2" style="stroke:#181818;stroke-width:0.5;" width="4" x="595.8761" y="607.19"/><text fill="#000000" font-family="sans-serif" font-size="14" lengthAdjust="spacing" textLength="31.7461" x="561.13" y="629.1851">Tour</text></g><!--entity TSPSolver--><g class="entity" data-entity="TSPSolver" data-source-line="45" data-uid="ent0026" id="entity_TSPSolver"><rect fill="#F1F1F1" height="46.2969" rx="2.5" ry="2.5" style="stroke:#181818;stroke-width:0.5;" width="109.877" x="732.06" y="726.48"/><rect fill="#F1F1F1" height="10" style="stroke:#181818;stroke-width:0.5;" width="15" x="821.937" y="731.48"/><rect fill="#F1F1F1" height="2" style="stroke:#181818;stroke-width:0.5;" width="4" x="819.937" y="733.48"/><rect fill="#F1F1F1" height="2" style="stroke:#181818;stroke-width:0.5;" width="4" x="819.937" y="737.48"/><text fill="#000000" font-family="sans-serif" font-size="14" lengthAdjust="spacing" textLength="69.877" x="747.06" y="759.4751">TSPSolver</text></g><!--entity FileHandler--><g class="entity" data-entity="FileHandler" data-source-line="46" data-uid="ent0027" id="entity_FileHandler"><rect fill="#F1F1F1" height="46.2969" rx="2.5" ry="2.5" style="stroke:#181818;stroke-width:0.5;" width="119.5703" x="877.21" y="726.48"/><rect fill="#F1F1F1" height="10" style="stroke:#181818;stroke-width:0.5;" width="15" x="976.7803" y="731.48"/><rect fill="#F1F1F1" height="2" style="stroke:#181818;stroke-width:0.5;" width="4" x="974.7803" y="733.48"/><rect fill="#F1F1F1" height="2" style="stroke:#181818;stroke-width:0.5;" width="4" x="974.7803" y="737.48"/><text fill="#000000" font-family="sans-serif" font-size="14" lengthAdjust="spacing" textLength="79.5703" x="892.21" y="759.4751">FileHandler</text></g><!--link APIClient to MapController--><g class="link" data-entity-1="APIClient" data-entity-2="MapController" data-source-line="52" data-uid="lnk28" id="link_APIClient_MapController"><path d="M715.14,195 C701.17,203.98 685.72,214.94 673,226.59 C635.39,261.04 603.4017,304.3606 584.2417,332.3206" fill="none" id="APIClient-to-MapController" style="stroke:#181818;stroke-width:1;stroke-dasharray:7.0,7.0;"/><polygon fill="#181818" points="580.85,337.27,589.2371,332.107,583.6764,333.1455,582.6379,327.5848,580.85,337.27" style="stroke:#181818;stroke-width:1;"/><text fill="#000000" font-family="sans-serif" font-size="13" lengthAdjust="spacing" textLength="71.3159" x="674" y="239.6569">HTTP/REST</text></g><!--link APIClient to DeliveryController--><g class="link" data-entity-1="APIClient" data-entity-2="DeliveryController" data-source-line="53" data-uid="lnk29" id="link_APIClient_DeliveryController"><path d="M754,195.04 C754,231.13 754,295.4 754,331.36" fill="none" id="APIClient-to-DeliveryController" style="stroke:#181818;stroke-width:1;stroke-dasharray:7.0,7.0;"/><polygon fill="#181818" points="754,337.36,758,328.36,754,332.36,750,328.36,754,337.36" style="stroke:#181818;stroke-width:1;"/><text fill="#000000" font-family="sans-serif" font-size="13" lengthAdjust="spacing" textLength="71.3159" x="755" y="239.6569">HTTP/REST</text></g><!--link APIClient to TourController--><g class="link" data-entity-1="APIClient" data-entity-2="TourController" data-source-line="54" data-uid="lnk30" id="link_APIClient_TourController"><path d="M792.83,195.03 C806.8,204.01 822.25,214.97 835,226.59 C872.83,261.09 905.16,304.4002 924.55,332.3502" fill="none" id="APIClient-to-TourController" style="stroke:#181818;stroke-width:1;stroke-dasharray:7.0,7.0;"/><polygon fill="#181818" points="927.97,337.28,926.1265,327.6052,925.12,333.1718,919.5534,332.1652,927.97,337.28" style="stroke:#181818;stroke-width:1;"/><text fill="#000000" font-family="sans-serif" font-size="13" lengthAdjust="spacing" textLength="71.3159" x="852" y="239.6569">HTTP/REST</text></g><!--link MapView to APIClient--><g class="link" data-entity-1="MapView" data-entity-2="APIClient" data-source-line="57" data-uid="lnk31" id="link_MapView_APIClient"><path d="M1020.2,82.3 C961.07,101.88 870.5958,131.8336 811.4758,151.4136" fill="none" id="MapView-to-APIClient" style="stroke:#181818;stroke-width:1;"/><polygon fill="#181818" points="805.78,153.3,815.5812,154.2676,810.5265,151.728,813.066,146.6733,805.78,153.3" style="stroke:#181818;stroke-width:1;"/></g><!--link CourierPanel to APIClient--><g class="link" data-entity-1="CourierPanel" data-entity-2="APIClient" data-source-line="58" data-uid="lnk32" id="link_CourierPanel_APIClient"><path d="M885.17,87.74 C857,105.5 823.0058,126.9406 794.8458,144.6906" fill="none" id="CourierPanel-to-APIClient" style="stroke:#181818;stroke-width:1;"/><polygon fill="#181818" points="789.77,147.89,799.5166,146.4747,793.9998,145.2238,795.2508,139.707,789.77,147.89" style="stroke:#181818;stroke-width:1;"/></g><!--link DeliveryForm to APIClient--><g class="link" data-entity-1="DeliveryForm" data-entity-2="APIClient" data-source-line="59" data-uid="lnk33" id="link_DeliveryForm_APIClient"><path d="M754,87.74 C754,105.5 754,124.14 754,141.89" fill="none" id="DeliveryForm-to-APIClient" style="stroke:#181818;stroke-width:1;"/><polygon fill="#181818" points="754,147.89,758,138.89,754,142.89,750,138.89,754,147.89" style="stroke:#181818;stroke-width:1;"/></g><!--link TourDisplay to APIClient--><g class="link" data-entity-1="TourDisplay" data-entity-2="APIClient" data-source-line="60" data-uid="lnk34" id="link_TourDisplay_APIClient"><path d="M625.18,87.74 C652.85,105.5 686.1703,126.8995 713.8303,144.6495" fill="none" id="TourDisplay-to-APIClient" style="stroke:#181818;stroke-width:1;"/><polygon fill="#181818" points="718.88,147.89,713.4658,139.6628,714.6719,145.1896,709.1452,146.3957,718.88,147.89" style="stroke:#181818;stroke-width:1;"/></g><!--link FileManager to APIClient--><g class="link" data-entity-1="FileManager" data-entity-2="APIClient" data-source-line="61" data-uid="lnk35" id="link_FileManager_APIClient"><path d="M493.24,85.7 C554.29,105.54 639.8939,133.3552 696.6839,151.8152" fill="none" id="FileManager-to-APIClient" style="stroke:#181818;stroke-width:1;"/><polygon fill="#181818" points="702.39,153.67,695.0674,147.0837,697.6349,152.1243,692.5943,154.6919,702.39,153.67" style="stroke:#181818;stroke-width:1;"/></g><!--link MapController to MapService--><g class="link" data-entity-1="MapController" data-entity-2="MapService" data-source-line="64" data-uid="lnk36" id="link_MapController_MapService"><path d="M603.24,384.38 C641.69,407.76 696.2137,440.9121 734.6537,464.2921" fill="none" id="MapController-to-MapService" style="stroke:#181818;stroke-width:1;"/><polygon fill="#181818" points="739.78,467.41,734.1692,459.3156,735.5081,464.8117,730.012,466.1507,739.78,467.41" style="stroke:#181818;stroke-width:1;"/></g><!--link DeliveryController to TourOptimizer--><g class="link" data-entity-1="DeliveryController" data-entity-2="TourOptimizer" data-source-line="65" data-uid="lnk37" id="link_DeliveryController_TourOptimizer"><path d="M791.39,384.15 C810.63,395.92 834.32,410.8 855,424.89 C874.95,438.48 891.9887,450.9952 908.8987,463.8152" fill="none" id="DeliveryController-to-TourOptimizer" style="stroke:#181818;stroke-width:1;"/><polygon fill="#181818" points="913.68,467.44,908.9246,458.8152,909.6956,464.4193,904.0915,465.1903,913.68,467.44" style="stroke:#181818;stroke-width:1;"/></g><!--link TourController to TourOptimizer--><g class="link" data-entity-1="TourController" data-entity-2="TourOptimizer" data-source-line="66" data-uid="lnk38" id="link_TourController_TourOptimizer"><path d="M943,384.38 C943,407.83 943,438.26 943,461.62" fill="none" id="TourController-to-TourOptimizer" style="stroke:#181818;stroke-width:1;"/><polygon fill="#181818" points="943,467.62,947,458.62,943,462.62,939,458.62,943,467.62" style="stroke:#181818;stroke-width:1;"/></g><!--link MapService to XMLParser--><g class="link" data-entity-1="MapService" data-entity-2="XMLParser" data-source-line="68" data-uid="lnk39" id="link_MapService_XMLParser"><path d="M801.67,514.62 C826.79,537.61 861.0741,568.9789 886.1141,591.8989" fill="none" id="MapService-to-XMLParser" style="stroke:#181818;stroke-width:1;"/><polygon fill="#181818" points="890.54,595.95,886.602,586.9227,886.8518,592.574,881.2004,592.8239,890.54,595.95" style="stroke:#181818;stroke-width:1;"/></g><!--link MapService to Map--><g class="link" data-entity-1="MapService" data-entity-2="Map" data-source-line="69" data-uid="lnk40" id="link_MapService_Map"><path d="M716.07,506.91 C665.84,519.21 592.76,537.18 529,553.19 C450.34,572.93 363.9802,595.1228 314.8502,607.7828" fill="none" id="MapService-to-Map" style="stroke:#181818;stroke-width:1;"/><polygon fill="#181818" points="309.04,609.28,318.7534,610.9077,313.8818,608.0323,316.7572,603.1607,309.04,609.28" style="stroke:#181818;stroke-width:1;"/></g><!--link TourOptimizer to TSPSolver--><g class="link" data-entity-1="TourOptimizer" data-entity-2="TSPSolver" data-source-line="70" data-uid="lnk41" id="link_TourOptimizer_TSPSolver"><path d="M888.66,514.61 C871.25,524.21 853.31,537 841,553.19 C800.83,606.01 790.9433,681.0236 788.3133,720.0636" fill="none" id="TourOptimizer-to-TSPSolver" style="stroke:#181818;stroke-width:1;"/><polygon fill="#181818" points="787.91,726.05,792.5059,717.3392,788.2461,721.0613,784.524,716.8015,787.91,726.05" style="stroke:#181818;stroke-width:1;"/></g><!--link TourOptimizer to Tour--><g class="link" data-entity-1="TourOptimizer" data-entity-2="Tour" data-source-line="71" data-uid="lnk42" id="link_TourOptimizer_Tour"><path d="M872.39,509.81 C866.51,511.29 860.65,512.76 855,514.19 C786.11,531.52 766.09,527.14 700,553.19 C670.94,564.64 645.2312,578.7603 622.3612,592.6203" fill="none" id="TourOptimizer-to-Tour" style="stroke:#181818;stroke-width:1;"/><polygon fill="#181818" points="617.23,595.73,627,594.4863,621.506,593.1386,622.8537,587.6446,617.23,595.73" style="stroke:#181818;stroke-width:1;"/></g><!--link XMLParser to FileHandler--><g class="link" data-entity-1="XMLParser" data-entity-2="FileHandler" data-source-line="72" data-uid="lnk43" id="link_XMLParser_FileHandler"><path d="M918.88,642.98 C922.9,666.43 928.1353,696.9364 932.1453,720.3064" fill="none" id="XMLParser-to-FileHandler" style="stroke:#181818;stroke-width:1;"/><polygon fill="#181818" points="933.16,726.22,935.5803,716.6732,932.3144,721.292,927.6956,718.0261,933.16,726.22" style="stroke:#181818;stroke-width:1;"/></g><!--link Map to Intersection--><g class="link" data-entity-1="Map" data-entity-2="Intersection" data-source-line="75" data-uid="lnk44" id="link_Map_Intersection"><path d="M241.83,642.96 C225.27,654.8 204.86,669.66 187,683.48 C169.15,697.3 154.1554,709.5823 138.9554,722.3423" fill="none" id="Map-to-Intersection" style="stroke:#181818;stroke-width:1;"/><polygon fill="#181818" points="134.36,726.2,143.825,723.477,138.1895,722.9852,138.6813,717.3498,134.36,726.2" style="stroke:#181818;stroke-width:1;"/></g><!--link Map to RoadSegment--><g class="link" data-entity-1="Map" data-entity-2="RoadSegment" data-source-line="76" data-uid="lnk45" id="link_Map_RoadSegment"><path d="M274,642.98 C274,666.43 274,696.85 274,720.22" fill="none" id="Map-to-RoadSegment" style="stroke:#181818;stroke-width:1;"/><polygon fill="#181818" points="274,726.22,278,717.22,274,721.22,270,717.22,274,726.22" style="stroke:#181818;stroke-width:1;"/></g><!--link Tour to Courier--><g class="link" data-entity-1="Tour" data-entity-2="Courier" data-source-line="77" data-uid="lnk46" id="link_Tour_Courier"><path d="M545.97,641.7 C527.64,653.2 505.41,668.15 487,683.48 C471.4,696.47 459.5628,708.4674 447.6528,721.5874" fill="none" id="Tour-to-Courier" style="stroke:#181818;stroke-width:1;"/><polygon fill="#181818" points="443.62,726.03,452.631,722.0547,446.9807,722.3279,446.7075,716.6776,443.62,726.03" style="stroke:#181818;stroke-width:1;"/></g><!--link Tour to DeliveryRequest--><g class="link" data-entity-1="Tour" data-entity-2="DeliveryRequest" data-source-line="78" data-uid="lnk47" id="link_Tour_DeliveryRequest"><path d="M582,642.98 C582,666.43 582,696.85 582,720.22" fill="none" id="Tour-to-DeliveryRequest" style="stroke:#181818;stroke-width:1;"/><polygon fill="#181818" points="582,726.22,586,717.22,582,721.22,578,717.22,582,726.22" style="stroke:#181818;stroke-width:1;"/></g><!--SRC=[XLHTRvim57tdLxZPGzE7TDEqXsWFbHB0QhLG4B2gKXLD5jnbrepD3CdKJVtlCn-X1fik3mdnERRFlPnpBtBuJZaW78VtgN_lVNF3NHYZT_uQVyAUSz73sutxHKFn1xpsrmCQX9w_6p2CFohCkKHO2bu3pr4C9AlHfYmPpKXD1NTAalqa1q2BWRDiILUBgPA_3bAVJ1IbuC1hz1IGye72x_rqtHL7IK56X0CpG0yOFO5yna8M1fYgdHwjIaQU3GnJ1W7XIgiqi4rqvpAg7lVEIrFlLXNLb899LIlCNl2PjEnPgk9nSxk2swzBvAhkIC4Oo0ejWmSNhRIbgvOqdAnn5_qfPkjUINiRuzod_z2QZaqfBxhk1EI9PZ28tXuhPPIgGZjneDb4-9ayhxfdp6e9oveMzC-CsiTW5n5PMOK68WSso6p_JTHrZCN8v7CwhTVVAOEhsxF61rP2B4YUmA5edMJ1UsU_-S9Y-7M4gfxjaANqhpLbjAPGZUjjbkTUHPf4YM2d6IrDLcu9ppLBg5peWw0MGqXSKHH7Vew7bYLqVNqpjIhwZ6xJD7eV-qbgSYscVNl3nBuZiYxNWrBz0C-Q9Ws31wrMDwFmZqUF2O-6ZmdhuyT4zG5aeDhGCRJg1RRxz1nPUzQo9d4oUcKZEVhP7KFBd0csIPaSqX_yQZ0xtbfPExrR7ZdFwLED9B3MNTKFMdOzwUdZH6h0A8dTPHqmH51VDBBt3m00]--></g></svg>