<svg xmlns="http://www.w3.org/2000/svg" xmlns:xlink="http://www.w3.org/1999/xlink" contentStyleType="text/css" data-diagram-type="CLASS" height="1353.3333px" preserveAspectRatio="none" style="width:5486px;height:1353px;background:#FFFFFF;" version="1.1" viewBox="0 0 5486 1353" width="5486.6667px" zoomAndPan="magnify"><defs/><g><!--cluster backend--><g class="cluster" data-entity="backend" data-source-line="18" data-uid="ent0002" id="cluster_backend"><rect fill="#E8F4FF" height="1331.6667" rx="6.6667" ry="6.6667" style="stroke:#000000;stroke-width:2.5;" width="5465" x="11.6667" y="11.6667"/><text fill="#000000" font-family="sans-serif" font-size="30" font-weight="bold" lengthAdjust="spacing" textLength="142.6318" x="2672.8507" y="42.8467">backend</text></g><!--cluster api--><g class="cluster" data-entity="api" data-source-line="20" data-uid="ent0003" id="cluster_api"><rect fill="#E3FCEF" height="148.3333" rx="6.6667" ry="6.6667" style="stroke:#000000;stroke-width:2.5;" width="3248.3333" x="1236.6667" y="90"/><text fill="#000000" font-family="sans-serif" font-size="30" font-weight="bold" lengthAdjust="spacing" textLength="52.002" x="2834.8324" y="121.18">api</text></g><!--cluster core--><g class="cluster" data-entity="core" data-source-line="30" data-uid="ent0011" id="cluster_core"><rect fill="#FCE8FF" height="148.3333" rx="6.6667" ry="6.6667" style="stroke:#000000;stroke-width:2.5;" width="811.6667" x="811.6667" y="358.3333"/><text fill="#000000" font-family="sans-serif" font-size="30" font-weight="bold" lengthAdjust="spacing" textLength="73.5352" x="1180.7324" y="389.5133">core</text></g><!--cluster TSP_services--><g class="cluster" data-entity="TSP_services" data-source-line="35" data-uid="ent0014" id="cluster_TSP_services"><rect fill="#FFF0F0" height="148.3333" rx="6.6667" ry="6.6667" style="stroke:#000000;stroke-width:2.5;" width="840" x="3966.6667" y="358.3333"/><text fill="#000000" font-family="sans-serif" font-size="30" font-weight="bold" lengthAdjust="spacing" textLength="217.8809" x="4277.7262" y="389.5133">TSP_services</text></g><!--cluster models--><g class="cluster" data-entity="models" data-source-line="40" data-uid="ent0017" id="cluster_models"><rect fill="#FFF7E8" height="148.3333" rx="6.6667" ry="6.6667" style="stroke:#000000;stroke-width:2.5;" width="243.3333" x="2975" y="1155"/><text fill="#000000" font-family="sans-serif" font-size="30" font-weight="bold" lengthAdjust="spacing" textLength="121.8311" x="3035.7511" y="1186.18">models</text></g><!--cluster services--><g class="cluster" data-entity="services" data-source-line="44" data-uid="ent0019" id="cluster_services"><rect fill="#FFF1E6" height="148.3333" rx="6.6667" ry="6.6667" style="stroke:#000000;stroke-width:2.5;" width="270" x="2403.3333" y="358.3333"/><text fill="#000000" font-family="sans-serif" font-size="30" font-weight="bold" lengthAdjust="spacing" textLength="138.8232" x="2468.9217" y="389.5133">services</text></g><!--cluster TSP_utils--><g class="cluster" data-entity="TSP_utils" data-source-line="48" data-uid="ent0021" id="cluster_TSP_utils"><rect fill="#F0F0FF" height="408.3333" rx="6.6667" ry="6.6667" style="stroke:#000000;stroke-width:2.5;" width="2061.6667" x="2283.3333" y="626.6667"/><text fill="#000000" font-family="sans-serif" font-size="30" font-weight="bold" lengthAdjust="spacing" textLength="153.1787" x="3237.5773" y="657.8467">TSP_utils</text></g><!--class couriers--><g class="entity" data-entity="couriers" data-source-line="21" data-uid="ent0004" id="entity_couriers"><rect fill="#F1F1F1" height="56.6667" rx="6.6667" ry="6.6667" style="stroke:#181818;stroke-width:0.8333;" width="177.6188" x="1262.85" y="155"/><ellipse cx="1289.5167" cy="183.3333" fill="#ADD1B2" rx="20" ry="20" style="stroke:#181818;stroke-width:1.6667;"/><path d="M1294.5167,193.5417 Q1293.501,194.0625 1292.3552,194.3229 Q1291.2354,194.5833 1289.9854,194.5833 Q1285.5583,194.5833 1283.2406,191.6667 Q1280.9229,188.75 1280.9229,183.2552 Q1280.9229,177.7344 1283.2406,174.8177 Q1285.5583,171.901 1289.9854,171.901 Q1291.2354,171.901 1292.3813,172.1615 Q1293.5271,172.4219 1294.5167,172.9427 L1294.5167,177.7604 Q1293.3969,176.7448 1292.3552,176.276 Q1291.3135,175.7813 1290.1938,175.7813 Q1287.824,175.7813 1286.6,177.6823 Q1285.4021,179.5573 1285.4021,183.2552 Q1285.4021,186.9531 1286.6,188.8281 Q1287.824,190.7031 1290.1938,190.7031 Q1291.3135,190.7031 1292.3552,190.2344 Q1293.3969,189.7656 1294.5167,188.724 L1294.5167,193.5417 Z " fill="#000000"/><text fill="#000000" font-family="sans-serif" font-size="30" lengthAdjust="spacing" textLength="120.9521" x="1314.5167" y="193.7191">couriers</text></g><!--class deliveries--><g class="entity" data-entity="deliveries" data-source-line="22" data-uid="ent0005" id="entity_deliveries"><rect fill="#F1F1F1" height="56.6667" rx="6.6667" ry="6.6667" style="stroke:#181818;stroke-width:0.8333;" width="201.8034" x="2239.1" y="155"/><ellipse cx="2265.7667" cy="183.3333" fill="#ADD1B2" rx="20" ry="20" style="stroke:#181818;stroke-width:1.6667;"/><path d="M2270.7667,193.5417 Q2269.751,194.0625 2268.6052,194.3229 Q2267.4854,194.5833 2266.2354,194.5833 Q2261.8083,194.5833 2259.4906,191.6667 Q2257.1729,188.75 2257.1729,183.2552 Q2257.1729,177.7344 2259.4906,174.8177 Q2261.8083,171.901 2266.2354,171.901 Q2267.4854,171.901 2268.6313,172.1615 Q2269.7771,172.4219 2270.7667,172.9427 L2270.7667,177.7604 Q2269.6469,176.7448 2268.6052,176.276 Q2267.5635,175.7813 2266.4438,175.7813 Q2264.074,175.7813 2262.85,177.6823 Q2261.6521,179.5573 2261.6521,183.2552 Q2261.6521,186.9531 2262.85,188.8281 Q2264.074,190.7031 2266.4438,190.7031 Q2267.5635,190.7031 2268.6052,190.2344 Q2269.6469,189.7656 2270.7667,188.724 L2270.7667,193.5417 Z " fill="#000000"/><text fill="#000000" font-family="sans-serif" font-size="30" lengthAdjust="spacing" textLength="145.1367" x="2290.7667" y="193.7191">deliveries</text></g><!--class map--><g class="entity" data-entity="map" data-source-line="23" data-uid="ent0006" id="entity_map"><rect fill="#F1F1F1" height="56.6667" rx="6.6667" ry="6.6667" style="stroke:#181818;stroke-width:0.8333;" width="123.3171" x="2775" y="155"/><ellipse cx="2801.6667" cy="183.3333" fill="#ADD1B2" rx="20" ry="20" style="stroke:#181818;stroke-width:1.6667;"/><path d="M2806.6667,193.5417 Q2805.651,194.0625 2804.5052,194.3229 Q2803.3854,194.5833 2802.1354,194.5833 Q2797.7083,194.5833 2795.3906,191.6667 Q2793.0729,188.75 2793.0729,183.2552 Q2793.0729,177.7344 2795.3906,174.8177 Q2797.7083,171.901 2802.1354,171.901 Q2803.3854,171.901 2804.5313,172.1615 Q2805.6771,172.4219 2806.6667,172.9427 L2806.6667,177.7604 Q2805.5469,176.7448 2804.5052,176.276 Q2803.4635,175.7813 2802.3438,175.7813 Q2799.974,175.7813 2798.75,177.6823 Q2797.5521,179.5573 2797.5521,183.2552 Q2797.5521,186.9531 2798.75,188.8281 Q2799.974,190.7031 2802.3438,190.7031 Q2803.4635,190.7031 2804.5052,190.2344 Q2805.5469,189.7656 2806.6667,188.724 L2806.6667,193.5417 Z " fill="#000000"/><text fill="#000000" font-family="sans-serif" font-size="30" lengthAdjust="spacing" textLength="66.6504" x="2826.6667" y="193.7191">map</text></g><!--class requests--><g class="entity" data-entity="requests" data-source-line="24" data-uid="ent0007" id="entity_requests"><rect fill="#F1F1F1" height="56.6667" rx="6.6667" ry="6.6667" style="stroke:#181818;stroke-width:0.8333;" width="186.9938" x="3231.5" y="155"/><ellipse cx="3258.1667" cy="183.3333" fill="#ADD1B2" rx="20" ry="20" style="stroke:#181818;stroke-width:1.6667;"/><path d="M3263.1667,193.5417 Q3262.151,194.0625 3261.0052,194.3229 Q3259.8854,194.5833 3258.6354,194.5833 Q3254.2083,194.5833 3251.8906,191.6667 Q3249.5729,188.75 3249.5729,183.2552 Q3249.5729,177.7344 3251.8906,174.8177 Q3254.2083,171.901 3258.6354,171.901 Q3259.8854,171.901 3261.0313,172.1615 Q3262.1771,172.4219 3263.1667,172.9427 L3263.1667,177.7604 Q3262.0469,176.7448 3261.0052,176.276 Q3259.9635,175.7813 3258.8438,175.7813 Q3256.474,175.7813 3255.25,177.6823 Q3254.0521,179.5573 3254.0521,183.2552 Q3254.0521,186.9531 3255.25,188.8281 Q3256.474,190.7031 3258.8438,190.7031 Q3259.9635,190.7031 3261.0052,190.2344 Q3262.0469,189.7656 3263.1667,188.724 L3263.1667,193.5417 Z " fill="#000000"/><text fill="#000000" font-family="sans-serif" font-size="30" lengthAdjust="spacing" textLength="130.3271" x="3283.1667" y="193.7191">requests</text></g><!--class saved_tours--><g class="entity" data-entity="saved_tours" data-source-line="25" data-uid="ent0008" id="entity_saved_tours"><rect fill="#F1F1F1" height="56.6667" rx="6.6667" ry="6.6667" style="stroke:#181818;stroke-width:0.8333;" width="238.029" x="3752.65" y="155"/><ellipse cx="3779.3167" cy="183.3333" fill="#ADD1B2" rx="20" ry="20" style="stroke:#181818;stroke-width:1.6667;"/><path d="M3784.3167,193.5417 Q3783.301,194.0625 3782.1552,194.3229 Q3781.0354,194.5833 3779.7854,194.5833 Q3775.3583,194.5833 3773.0406,191.6667 Q3770.7229,188.75 3770.7229,183.2552 Q3770.7229,177.7344 3773.0406,174.8177 Q3775.3583,171.901 3779.7854,171.901 Q3781.0354,171.901 3782.1813,172.1615 Q3783.3271,172.4219 3784.3167,172.9427 L3784.3167,177.7604 Q3783.1969,176.7448 3782.1552,176.276 Q3781.1135,175.7813 3779.9938,175.7813 Q3777.624,175.7813 3776.4,177.6823 Q3775.2021,179.5573 3775.2021,183.2552 Q3775.2021,186.9531 3776.4,188.8281 Q3777.624,190.7031 3779.9938,190.7031 Q3781.1135,190.7031 3782.1552,190.2344 Q3783.1969,189.7656 3784.3167,188.724 L3784.3167,193.5417 Z " fill="#000000"/><text fill="#000000" font-family="sans-serif" font-size="30" lengthAdjust="spacing" textLength="181.3623" x="3804.3167" y="193.7191">saved_tours</text></g><!--class state--><g class="entity" data-entity="state" data-source-line="26" data-uid="ent0009" id="entity_state"><rect fill="#F1F1F1" height="56.6667" rx="6.6667" ry="6.6667" style="stroke:#181818;stroke-width:0.8333;" width="132.6628" x="1773.6667" y="155"/><ellipse cx="1800.3333" cy="183.3333" fill="#ADD1B2" rx="20" ry="20" style="stroke:#181818;stroke-width:1.6667;"/><path d="M1805.3333,193.5417 Q1804.3177,194.0625 1803.1719,194.3229 Q1802.0521,194.5833 1800.8021,194.5833 Q1796.375,194.5833 1794.0573,191.6667 Q1791.7396,188.75 1791.7396,183.2552 Q1791.7396,177.7344 1794.0573,174.8177 Q1796.375,171.901 1800.8021,171.901 Q1802.0521,171.901 1803.1979,172.1615 Q1804.3438,172.4219 1805.3333,172.9427 L1805.3333,177.7604 Q1804.2135,176.7448 1803.1719,176.276 Q1802.1302,175.7813 1801.0104,175.7813 Q1798.6406,175.7813 1797.4167,177.6823 Q1796.2188,179.5573 1796.2188,183.2552 Q1796.2188,186.9531 1797.4167,188.8281 Q1798.6406,190.7031 1801.0104,190.7031 Q1802.1302,190.7031 1803.1719,190.2344 Q1804.2135,189.7656 1805.3333,188.724 L1805.3333,193.5417 Z " fill="#000000"/><text fill="#000000" font-family="sans-serif" font-size="30" lengthAdjust="spacing" textLength="75.9961" x="1825.3333" y="193.7191">state</text></g><!--class tours--><g class="entity" data-entity="tours" data-source-line="27" data-uid="ent0010" id="entity_tours"><rect fill="#F1F1F1" height="56.6667" rx="6.6667" ry="6.6667" style="stroke:#181818;stroke-width:0.8333;" width="133.7614" x="4324.7833" y="155"/><ellipse cx="4351.45" cy="183.3333" fill="#ADD1B2" rx="20" ry="20" style="stroke:#181818;stroke-width:1.6667;"/><path d="M4356.45,193.5417 Q4355.4344,194.0625 4354.2885,194.3229 Q4353.1688,194.5833 4351.9188,194.5833 Q4347.4917,194.5833 4345.174,191.6667 Q4342.8563,188.75 4342.8563,183.2552 Q4342.8563,177.7344 4345.174,174.8177 Q4347.4917,171.901 4351.9188,171.901 Q4353.1688,171.901 4354.3146,172.1615 Q4355.4604,172.4219 4356.45,172.9427 L4356.45,177.7604 Q4355.3302,176.7448 4354.2885,176.276 Q4353.2469,175.7813 4352.1271,175.7813 Q4349.7573,175.7813 4348.5333,177.6823 Q4347.3354,179.5573 4347.3354,183.2552 Q4347.3354,186.9531 4348.5333,188.8281 Q4349.7573,190.7031 4352.1271,190.7031 Q4353.2469,190.7031 4354.2885,190.2344 Q4355.3302,189.7656 4356.45,188.724 L4356.45,193.5417 Z " fill="#000000"/><text fill="#000000" font-family="sans-serif" font-size="30" lengthAdjust="spacing" textLength="77.0947" x="4376.45" y="193.7191">tours</text></g><!--class config--><g class="entity" data-entity="config" data-source-line="31" data-uid="ent0012" id="entity_config"><rect fill="#F1F1F1" height="56.6667" rx="6.6667" ry="6.6667" style="stroke:#181818;stroke-width:0.8333;" width="148.4684" x="1447.4333" y="423.3333"/><ellipse cx="1474.1" cy="451.6667" fill="#ADD1B2" rx="20" ry="20" style="stroke:#181818;stroke-width:1.6667;"/><path d="M1479.1,461.875 Q1478.0844,462.3958 1476.9385,462.6563 Q1475.8188,462.9167 1474.5688,462.9167 Q1470.1417,462.9167 1467.824,460 Q1465.5063,457.0833 1465.5063,451.5885 Q1465.5063,446.0677 1467.824,443.151 Q1470.1417,440.2344 1474.5688,440.2344 Q1475.8188,440.2344 1476.9646,440.4948 Q1478.1104,440.7552 1479.1,441.276 L1479.1,446.0938 Q1477.9802,445.0781 1476.9385,444.6094 Q1475.8969,444.1146 1474.7771,444.1146 Q1472.4073,444.1146 1471.1833,446.0156 Q1469.9854,447.8906 1469.9854,451.5885 Q1469.9854,455.2865 1471.1833,457.1615 Q1472.4073,459.0365 1474.7771,459.0365 Q1475.8969,459.0365 1476.9385,458.5677 Q1477.9802,458.099 1479.1,457.0573 L1479.1,461.875 Z " fill="#000000"/><text fill="#000000" font-family="sans-serif" font-size="30" lengthAdjust="spacing" textLength="91.8018" x="1499.1" y="462.0524">config</text></g><!--class error_handlers--><g class="entity" data-entity="error_handlers" data-source-line="32" data-uid="ent0013" id="entity_error_handlers"><rect fill="#F1F1F1" height="56.6667" rx="6.6667" ry="6.6667" style="stroke:#181818;stroke-width:0.8333;" width="275.6901" x="838.8167" y="423.3333"/><ellipse cx="865.4833" cy="451.6667" fill="#ADD1B2" rx="20" ry="20" style="stroke:#181818;stroke-width:1.6667;"/><path d="M870.4833,461.875 Q869.4677,462.3958 868.3219,462.6563 Q867.2021,462.9167 865.9521,462.9167 Q861.525,462.9167 859.2073,460 Q856.8896,457.0833 856.8896,451.5885 Q856.8896,446.0677 859.2073,443.151 Q861.525,440.2344 865.9521,440.2344 Q867.2021,440.2344 868.3479,440.4948 Q869.4938,440.7552 870.4833,441.276 L870.4833,446.0938 Q869.3635,445.0781 868.3219,444.6094 Q867.2802,444.1146 866.1604,444.1146 Q863.7906,444.1146 862.5667,446.0156 Q861.3688,447.8906 861.3688,451.5885 Q861.3688,455.2865 862.5667,457.1615 Q863.7906,459.0365 866.1604,459.0365 Q867.2802,459.0365 868.3219,458.5677 Q869.3635,458.099 870.4833,457.0573 L870.4833,461.875 Z " fill="#000000"/><text fill="#000000" font-family="sans-serif" font-size="30" lengthAdjust="spacing" textLength="219.0234" x="890.4833" y="462.0524">error_handlers</text></g><!--class MapService--><g class="entity" data-entity="MapService" data-source-line="36" data-uid="ent0015" id="entity_MapService"><rect fill="#F1F1F1" height="56.6667" rx="6.6667" ry="6.6667" style="stroke:#181818;stroke-width:0.8333;" width="230.8512" x="3992.9" y="423.3333"/><ellipse cx="4019.5667" cy="451.6667" fill="#ADD1B2" rx="20" ry="20" style="stroke:#181818;stroke-width:1.6667;"/><path d="M4024.5667,461.875 Q4023.551,462.3958 4022.4052,462.6563 Q4021.2854,462.9167 4020.0354,462.9167 Q4015.6083,462.9167 4013.2906,460 Q4010.9729,457.0833 4010.9729,451.5885 Q4010.9729,446.0677 4013.2906,443.151 Q4015.6083,440.2344 4020.0354,440.2344 Q4021.2854,440.2344 4022.4312,440.4948 Q4023.5771,440.7552 4024.5667,441.276 L4024.5667,446.0938 Q4023.4469,445.0781 4022.4052,444.6094 Q4021.3635,444.1146 4020.2437,444.1146 Q4017.874,444.1146 4016.65,446.0156 Q4015.4521,447.8906 4015.4521,451.5885 Q4015.4521,455.2865 4016.65,457.1615 Q4017.874,459.0365 4020.2437,459.0365 Q4021.3635,459.0365 4022.4052,458.5677 Q4023.4469,458.099 4024.5667,457.0573 L4024.5667,461.875 Z " fill="#000000"/><text fill="#000000" font-family="sans-serif" font-size="30" lengthAdjust="spacing" textLength="174.1846" x="4044.5667" y="462.0524">MapService</text></g><!--class TSPService--><g class="entity" data-entity="TSPService" data-source-line="37" data-uid="ent0016" id="entity_TSPService"><rect fill="#F1F1F1" height="56.6667" rx="6.6667" ry="6.6667" style="stroke:#181818;stroke-width:0.8333;" width="222.9997" x="4556.8333" y="423.3333"/><ellipse cx="4583.5" cy="451.6667" fill="#ADD1B2" rx="20" ry="20" style="stroke:#181818;stroke-width:1.6667;"/><path d="M4588.5,461.875 Q4587.4844,462.3958 4586.3385,462.6563 Q4585.2188,462.9167 4583.9688,462.9167 Q4579.5417,462.9167 4577.224,460 Q4574.9063,457.0833 4574.9063,451.5885 Q4574.9063,446.0677 4577.224,443.151 Q4579.5417,440.2344 4583.9688,440.2344 Q4585.2188,440.2344 4586.3646,440.4948 Q4587.5104,440.7552 4588.5,441.276 L4588.5,446.0938 Q4587.3802,445.0781 4586.3385,444.6094 Q4585.2969,444.1146 4584.1771,444.1146 Q4581.8073,444.1146 4580.5833,446.0156 Q4579.3854,447.8906 4579.3854,451.5885 Q4579.3854,455.2865 4580.5833,457.1615 Q4581.8073,459.0365 4584.1771,459.0365 Q4585.2969,459.0365 4586.3385,458.5677 Q4587.3802,458.099 4588.5,457.0573 L4588.5,461.875 Z " fill="#000000"/><text fill="#000000" font-family="sans-serif" font-size="30" lengthAdjust="spacing" textLength="166.333" x="4608.5" y="462.0524">TSPService</text></g><!--class schemas--><g class="entity" data-entity="schemas" data-source-line="41" data-uid="ent0018" id="entity_schemas"><rect fill="#F1F1F1" height="56.6667" rx="6.6667" ry="6.6667" style="stroke:#181818;stroke-width:0.8333;" width="189.4987" x="3001.9167" y="1220"/><ellipse cx="3028.5833" cy="1248.3333" fill="#ADD1B2" rx="20" ry="20" style="stroke:#181818;stroke-width:1.6667;"/><path d="M3033.5833,1258.5417 Q3032.5677,1259.0625 3031.4219,1259.3229 Q3030.3021,1259.5833 3029.0521,1259.5833 Q3024.625,1259.5833 3022.3073,1256.6667 Q3019.9896,1253.75 3019.9896,1248.2552 Q3019.9896,1242.7344 3022.3073,1239.8177 Q3024.625,1236.901 3029.0521,1236.901 Q3030.3021,1236.901 3031.4479,1237.1615 Q3032.5938,1237.4219 3033.5833,1237.9427 L3033.5833,1242.7604 Q3032.4635,1241.7448 3031.4219,1241.276 Q3030.3802,1240.7813 3029.2604,1240.7813 Q3026.8906,1240.7813 3025.6667,1242.6823 Q3024.4688,1244.5573 3024.4688,1248.2552 Q3024.4688,1251.9531 3025.6667,1253.8281 Q3026.8906,1255.7031 3029.2604,1255.7031 Q3030.3802,1255.7031 3031.4219,1255.2344 Q3032.4635,1254.7656 3033.5833,1253.724 L3033.5833,1258.5417 Z " fill="#000000"/><text fill="#000000" font-family="sans-serif" font-size="30" lengthAdjust="spacing" textLength="132.832" x="3053.5833" y="1258.7191">schemas</text></g><!--class XMLParser--><g class="entity" data-entity="XMLParser" data-source-line="45" data-uid="ent0020" id="entity_XMLParser"><rect fill="#F1F1F1" height="56.6667" rx="6.6667" ry="6.6667" style="stroke:#181818;stroke-width:0.8333;" width="215.0456" x="2430.8167" y="423.3333"/><ellipse cx="2457.4833" cy="451.6667" fill="#ADD1B2" rx="20" ry="20" style="stroke:#181818;stroke-width:1.6667;"/><path d="M2462.4833,461.875 Q2461.4677,462.3958 2460.3219,462.6563 Q2459.2021,462.9167 2457.9521,462.9167 Q2453.525,462.9167 2451.2073,460 Q2448.8896,457.0833 2448.8896,451.5885 Q2448.8896,446.0677 2451.2073,443.151 Q2453.525,440.2344 2457.9521,440.2344 Q2459.2021,440.2344 2460.3479,440.4948 Q2461.4938,440.7552 2462.4833,441.276 L2462.4833,446.0938 Q2461.3635,445.0781 2460.3219,444.6094 Q2459.2802,444.1146 2458.1604,444.1146 Q2455.7906,444.1146 2454.5667,446.0156 Q2453.3688,447.8906 2453.3688,451.5885 Q2453.3688,455.2865 2454.5667,457.1615 Q2455.7906,459.0365 2458.1604,459.0365 Q2459.2802,459.0365 2460.3219,458.5677 Q2461.3635,458.099 2462.4833,457.0573 L2462.4833,461.875 Z " fill="#000000"/><text fill="#000000" font-family="sans-serif" font-size="30" lengthAdjust="spacing" textLength="158.3789" x="2482.4833" y="462.0524">XMLParser</text></g><!--class TSP_base--><g class="entity" data-entity="TSP_base" data-source-line="49" data-uid="ent0022" id="entity_TSP_base"><rect fill="#F1F1F1" height="56.6667" rx="6.6667" ry="6.6667" style="stroke:#181818;stroke-width:0.8333;" width="198.6393" x="4119.0167" y="951.6667"/><ellipse cx="4145.6833" cy="980" fill="#ADD1B2" rx="20" ry="20" style="stroke:#181818;stroke-width:1.6667;"/><path d="M4150.6833,990.2083 Q4149.6677,990.7292 4148.5219,990.9896 Q4147.4021,991.25 4146.1521,991.25 Q4141.725,991.25 4139.4073,988.3333 Q4137.0896,985.4167 4137.0896,979.9219 Q4137.0896,974.401 4139.4073,971.4844 Q4141.725,968.5677 4146.1521,968.5677 Q4147.4021,968.5677 4148.5479,968.8281 Q4149.6938,969.0885 4150.6833,969.6094 L4150.6833,974.4271 Q4149.5635,973.4115 4148.5219,972.9427 Q4147.4802,972.4479 4146.3604,972.4479 Q4143.9906,972.4479 4142.7667,974.349 Q4141.5688,976.224 4141.5688,979.9219 Q4141.5688,983.6198 4142.7667,985.4948 Q4143.9906,987.3698 4146.3604,987.3698 Q4147.4802,987.3698 4148.5219,986.901 Q4149.5635,986.4323 4150.6833,985.3906 L4150.6833,990.2083 Z " fill="#000000"/><text fill="#000000" font-family="sans-serif" font-size="30" lengthAdjust="spacing" textLength="141.9727" x="4170.6833" y="990.3857">TSP_base</text></g><!--class TSP_solver--><g class="entity" data-entity="TSP_solver" data-source-line="50" data-uid="ent0023" id="entity_TSP_solver"><rect fill="#F1F1F1" height="56.6667" rx="6.6667" ry="6.6667" style="stroke:#181818;stroke-width:0.8333;" width="217.9899" x="3564.3333" y="691.6667"/><ellipse cx="3591" cy="720" fill="#ADD1B2" rx="20" ry="20" style="stroke:#181818;stroke-width:1.6667;"/><path d="M3596,730.2083 Q3594.9844,730.7292 3593.8385,730.9896 Q3592.7188,731.25 3591.4688,731.25 Q3587.0417,731.25 3584.724,728.3333 Q3582.4063,725.4167 3582.4063,719.9219 Q3582.4063,714.401 3584.724,711.4844 Q3587.0417,708.5677 3591.4688,708.5677 Q3592.7188,708.5677 3593.8646,708.8281 Q3595.0104,709.0885 3596,709.6094 L3596,714.4271 Q3594.8802,713.4115 3593.8385,712.9427 Q3592.7969,712.4479 3591.6771,712.4479 Q3589.3073,712.4479 3588.0833,714.349 Q3586.8854,716.224 3586.8854,719.9219 Q3586.8854,723.6198 3588.0833,725.4948 Q3589.3073,727.3698 3591.6771,727.3698 Q3592.7969,727.3698 3593.8385,726.901 Q3594.8802,726.4323 3596,725.3906 L3596,730.2083 Z " fill="#000000"/><text fill="#000000" font-family="sans-serif" font-size="30" lengthAdjust="spacing" textLength="161.3232" x="3616" y="730.3857">TSP_solver</text></g><!--class TSP_heuristics--><g class="entity" data-entity="TSP_heuristics" data-source-line="51" data-uid="ent0024" id="entity_TSP_heuristics"><rect fill="#F1F1F1" height="56.6667" rx="6.6667" ry="6.6667" style="stroke:#181818;stroke-width:0.8333;" width="272.1305" x="2310.6" y="951.6667"/><ellipse cx="2337.2667" cy="980" fill="#ADD1B2" rx="20" ry="20" style="stroke:#181818;stroke-width:1.6667;"/><path d="M2342.2667,990.2083 Q2341.251,990.7292 2340.1052,990.9896 Q2338.9854,991.25 2337.7354,991.25 Q2333.3083,991.25 2330.9906,988.3333 Q2328.6729,985.4167 2328.6729,979.9219 Q2328.6729,974.401 2330.9906,971.4844 Q2333.3083,968.5677 2337.7354,968.5677 Q2338.9854,968.5677 2340.1313,968.8281 Q2341.2771,969.0885 2342.2667,969.6094 L2342.2667,974.4271 Q2341.1469,973.4115 2340.1052,972.9427 Q2339.0635,972.4479 2337.9438,972.4479 Q2335.574,972.4479 2334.35,974.349 Q2333.1521,976.224 2333.1521,979.9219 Q2333.1521,983.6198 2334.35,985.4948 Q2335.574,987.3698 2337.9438,987.3698 Q2339.0635,987.3698 2340.1052,986.901 Q2341.1469,986.4323 2342.2667,985.3906 L2342.2667,990.2083 Z " fill="#000000"/><text fill="#000000" font-family="sans-serif" font-size="30" lengthAdjust="spacing" textLength="215.4639" x="2362.2667" y="990.3857">TSP_heuristics</text></g><!--class TSP_local_search--><g class="entity" data-entity="TSP_local_search" data-source-line="52" data-uid="ent0025" id="entity_TSP_local_search"><rect fill="#F1F1F1" height="56.6667" rx="6.6667" ry="6.6667" style="stroke:#181818;stroke-width:0.8333;" width="312.3405" x="2915.5" y="951.6667"/><ellipse cx="2942.1667" cy="980" fill="#ADD1B2" rx="20" ry="20" style="stroke:#181818;stroke-width:1.6667;"/><path d="M2947.1667,990.2083 Q2946.151,990.7292 2945.0052,990.9896 Q2943.8854,991.25 2942.6354,991.25 Q2938.2083,991.25 2935.8906,988.3333 Q2933.5729,985.4167 2933.5729,979.9219 Q2933.5729,974.401 2935.8906,971.4844 Q2938.2083,968.5677 2942.6354,968.5677 Q2943.8854,968.5677 2945.0313,968.8281 Q2946.1771,969.0885 2947.1667,969.6094 L2947.1667,974.4271 Q2946.0469,973.4115 2945.0052,972.9427 Q2943.9635,972.4479 2942.8438,972.4479 Q2940.474,972.4479 2939.25,974.349 Q2938.0521,976.224 2938.0521,979.9219 Q2938.0521,983.6198 2939.25,985.4948 Q2940.474,987.3698 2942.8438,987.3698 Q2943.9635,987.3698 2945.0052,986.901 Q2946.0469,986.4323 2947.1667,985.3906 L2947.1667,990.2083 Z " fill="#000000"/><text fill="#000000" font-family="sans-serif" font-size="30" lengthAdjust="spacing" textLength="255.6738" x="2967.1667" y="990.3857">TSP_local_search</text></g><!--class TSP_metric--><g class="entity" data-entity="TSP_metric" data-source-line="53" data-uid="ent0026" id="entity_TSP_metric"><rect fill="#F1F1F1" height="56.6667" rx="6.6667" ry="6.6667" style="stroke:#181818;stroke-width:0.8333;" width="223.7321" x="3561.4667" y="951.6667"/><ellipse cx="3588.1333" cy="980" fill="#ADD1B2" rx="20" ry="20" style="stroke:#181818;stroke-width:1.6667;"/><path d="M3593.1333,990.2083 Q3592.1177,990.7292 3590.9719,990.9896 Q3589.8521,991.25 3588.6021,991.25 Q3584.175,991.25 3581.8573,988.3333 Q3579.5396,985.4167 3579.5396,979.9219 Q3579.5396,974.401 3581.8573,971.4844 Q3584.175,968.5677 3588.6021,968.5677 Q3589.8521,968.5677 3590.9979,968.8281 Q3592.1438,969.0885 3593.1333,969.6094 L3593.1333,974.4271 Q3592.0135,973.4115 3590.9719,972.9427 Q3589.9302,972.4479 3588.8104,972.4479 Q3586.4406,972.4479 3585.2167,974.349 Q3584.0188,976.224 3584.0188,979.9219 Q3584.0188,983.6198 3585.2167,985.4948 Q3586.4406,987.3698 3588.8104,987.3698 Q3589.9302,987.3698 3590.9719,986.901 Q3592.0135,986.4323 3593.1333,985.3906 L3593.1333,990.2083 Z " fill="#000000"/><text fill="#000000" font-family="sans-serif" font-size="30" lengthAdjust="spacing" textLength="167.0654" x="3613.1333" y="990.3857">TSP_metric</text></g><!--link map to XMLParser--><g class="link" data-entity-1="map" data-entity-2="XMLParser" data-source-line="62" data-uid="lnk27" id="link_map_XMLParser"><path codeLine="62" d="M2805.8667,212.3667 C2748.55,263.2667 2633.6436,365.3429 2576.4436,416.1429" fill="none" id="map-to-XMLParser" style="stroke:#181818;stroke-width:1.6667;"/><polygon fill="#181818" points="2568.9667,422.7833,2584.6091,417.8074,2575.1975,417.2497,2575.7552,407.8381,2568.9667,422.7833" style="stroke:#181818;stroke-width:1.6667;"/><text fill="#000000" font-family="sans-serif" font-size="30" lengthAdjust="spacing" textLength="68.7305" x="2706.6667" y="324.5133">uses</text></g><!--link map to schemas--><g class="link" data-entity-1="map" data-entity-2="schemas" data-source-line="63" data-uid="lnk28" id="link_map_schemas"><path codeLine="63" d="M2774.2667,203.2167 C2706.6667,222.95 2608.3333,251.6667 2608.3333,251.6667 C2608.3333,251.6667 2306.6667,295 2306.6667,295 C2306.6667,295 1613.3333,613.3333 1613.3333,613.3333 C1613.3333,613.3333 1613.3333,748.3333 1613.3333,748.3333 C1613.3333,748.3333 1750,1048.3333 1750,1048.3333 C1750,1048.3333 1795,1128.3333 1795,1128.3333 C1795,1128.3333 2691.4577,1209.8278 2991.5244,1237.1112" fill="none" id="map-to-schemas" style="stroke:#181818;stroke-width:1.6667;"/><polygon fill="#181818" points="3001.4833,1238.0167,2987.1486,1230.0191,2993.1842,1237.2621,2985.9413,1243.2977,3001.4833,1238.0167" style="stroke:#181818;stroke-width:1.6667;"/><text fill="#000000" font-family="sans-serif" font-size="30" lengthAdjust="spacing" textLength="68.7305" x="1615" y="731.18">uses</text></g><!--link map to MapService--><g class="link" data-entity-1="map" data-entity-2="MapService" data-source-line="64" data-uid="lnk29" id="link_map_MapService"><path codeLine="64" d="M2899.0667,203.2167 C2966.6667,222.95 3065,251.6667 3065,251.6667 C3065,251.6667 3710.4092,374.3663 3982.3592,426.0496" fill="none" id="map-to-MapService" style="stroke:#181818;stroke-width:1.6667;"/><polygon fill="#181818" points="3992.1833,427.9167,3978.6918,418.5666,3983.9965,426.3608,3976.2024,431.6655,3992.1833,427.9167" style="stroke:#181818;stroke-width:1.6667;"/><text fill="#000000" font-family="sans-serif" font-size="30" lengthAdjust="spacing" textLength="68.7305" x="3463.3333" y="324.5133">uses</text></g><!--link map to config--><g class="link" data-entity-1="map" data-entity-2="config" data-source-line="65" data-uid="lnk30" id="link_map_config"><path codeLine="65" d="M2774.2667,203.2167 C2706.6667,222.95 2608.3333,251.6667 2608.3333,251.6667 C2608.3333,251.6667 1155,295 1155,295 C1155,295 1155,331.6667 1155,331.6667 C1155,331.6667 1281.6667,345 1281.6667,345 C1281.6667,345 1378.9715,387.5758 1450.0715,418.6758" fill="none" id="map-to-config" style="stroke:#181818;stroke-width:1.6667;"/><polygon fill="#181818" points="1459.2333,422.6833,1448.1622,410.5642,1451.5984,419.3437,1442.8189,422.78,1459.2333,422.6833" style="stroke:#181818;stroke-width:1.6667;"/><text fill="#000000" font-family="sans-serif" font-size="30" lengthAdjust="spacing" textLength="68.7305" x="1156.6667" y="324.5133">uses</text></g><!--link requests to XMLParser--><g class="link" data-entity-1="requests" data-entity-2="XMLParser" data-source-line="67" data-uid="lnk31" id="link_requests_XMLParser"><path codeLine="67" d="M3243.7833,212.3667 C3092.8333,263.2 2780.2267,368.5076 2629.1767,419.391" fill="none" id="requests-to-XMLParser" style="stroke:#181818;stroke-width:1.6667;"/><polygon fill="#181818" points="2619.7,422.5833,2636.0434,424.1126,2627.5973,419.923,2631.7869,411.4769,2619.7,422.5833" style="stroke:#181818;stroke-width:1.6667;"/><text fill="#000000" font-family="sans-serif" font-size="30" lengthAdjust="spacing" textLength="68.7305" x="2980" y="324.5133">uses</text></g><!--link requests to schemas--><g class="link" data-entity-1="requests" data-entity-2="schemas" data-source-line="68" data-uid="lnk32" id="link_requests_schemas"><path codeLine="68" d="M3289.4,212.25 C3233.9667,254.65 3133.3333,331.6667 3133.3333,331.6667 C3133.3333,331.6667 2743.3333,520 2743.3333,520 C2743.3333,520 2141.6667,613.3333 2141.6667,613.3333 C2141.6667,613.3333 2141.6667,748.3333 2141.6667,748.3333 C2141.6667,748.3333 2213.3333,1048.3333 2213.3333,1048.3333 C2213.3333,1048.3333 2763.1262,1171.776 2991.5429,1223.0594" fill="none" id="requests-to-schemas" style="stroke:#181818;stroke-width:1.6667;"/><polygon fill="#181818" points="3001.3,1225.25,2988.1248,1215.4593,2993.1691,1223.4245,2985.2039,1228.4688,3001.3,1225.25" style="stroke:#181818;stroke-width:1.6667;"/><text fill="#000000" font-family="sans-serif" font-size="30" lengthAdjust="spacing" textLength="68.7305" x="2143.3333" y="731.18">uses</text></g><!--link requests to config--><g class="link" data-entity-1="requests" data-entity-2="config" data-source-line="69" data-uid="lnk33" id="link_requests_config"><path codeLine="69" d="M3231.1333,209.0667 C3156.6667,228.1667 3065,251.6667 3065,251.6667 C3065,251.6667 1568.3333,295 1568.3333,295 C1568.3333,295 1546.0494,369.0245 1532.6827,413.4245" fill="none" id="requests-to-config" style="stroke:#181818;stroke-width:1.6667;"/><polygon fill="#181818" points="1529.8,423,1540.5077,410.5586,1532.2023,415.0204,1527.7404,406.715,1529.8,423" style="stroke:#181818;stroke-width:1.6667;"/><text fill="#000000" font-family="sans-serif" font-size="30" lengthAdjust="spacing" textLength="68.7305" x="1570" y="324.5133">uses</text></g><!--link deliveries to XMLParser--><g class="link" data-entity-1="deliveries" data-entity-2="XMLParser" data-source-line="71" data-uid="lnk34" id="link_deliveries_XMLParser"><path codeLine="71" d="M2352.2333,211.9 C2371.4667,254.25 2406.6667,331.6667 2406.6667,331.6667 C2406.6667,331.6667 2461.4614,380.9167 2500.3614,415.8667" fill="none" id="deliveries-to-XMLParser" style="stroke:#181818;stroke-width:1.6667;"/><polygon fill="#181818" points="2507.8,422.55,2501.0976,407.5659,2501.6011,416.9806,2492.1865,417.4841,2507.8,422.55" style="stroke:#181818;stroke-width:1.6667;"/><text fill="#000000" font-family="sans-serif" font-size="30" lengthAdjust="spacing" textLength="68.7305" x="2408.3333" y="324.5133">uses</text></g><!--link deliveries to schemas--><g class="link" data-entity-1="deliveries" data-entity-2="schemas" data-source-line="72" data-uid="lnk35" id="link_deliveries_schemas"><path codeLine="72" d="M2238.4167,210.4 C2163.0667,229.2333 2073.3333,251.6667 2073.3333,251.6667 C2073.3333,251.6667 658.3333,295 658.3333,295 C658.3333,295 658.3333,331.6667 658.3333,331.6667 C658.3333,331.6667 741.6667,520 741.6667,520 C741.6667,520 1690,1128.3333 1690,1128.3333 C1690,1128.3333 2674.5185,1211.1617 2991.1185,1237.7951" fill="none" id="deliveries-to-schemas" style="stroke:#181818;stroke-width:1.6667;"/><polygon fill="#181818" points="3001.0833,1238.6333,2986.695,1230.7327,2992.7793,1237.9348,2985.5773,1244.0191,3001.0833,1238.6333" style="stroke:#181818;stroke-width:1.6667;"/><text fill="#000000" font-family="sans-serif" font-size="30" lengthAdjust="spacing" textLength="68.7305" x="1091.6667" y="731.18">uses</text></g><!--link deliveries to config--><g class="link" data-entity-1="deliveries" data-entity-2="config" data-source-line="73" data-uid="lnk36" id="link_deliveries_config"><path codeLine="73" d="M2238.4167,210.4 C2163.0667,229.2333 2073.3333,251.6667 2073.3333,251.6667 C2073.3333,251.6667 741.6667,295 741.6667,295 C741.6667,295 741.6667,331.6667 741.6667,331.6667 C741.6667,331.6667 1281.6667,345 1281.6667,345 C1281.6667,345 1378.9715,387.5758 1450.0715,418.6758" fill="none" id="deliveries-to-config" style="stroke:#181818;stroke-width:1.6667;"/><polygon fill="#181818" points="1459.2333,422.6833,1448.1622,410.5642,1451.5984,419.3437,1442.8189,422.78,1459.2333,422.6833" style="stroke:#181818;stroke-width:1.6667;"/><text fill="#000000" font-family="sans-serif" font-size="30" lengthAdjust="spacing" textLength="68.7305" x="743.3333" y="324.5133">uses</text></g><!--link couriers to config--><g class="link" data-entity-1="couriers" data-entity-2="config" data-source-line="75" data-uid="lnk37" id="link_couriers_config"><path codeLine="75" d="M1262.0833,194.5167 C1010.65,221.25 316.6667,295 316.6667,295 C316.6667,295 316.6667,331.6667 316.6667,331.6667 C316.6667,331.6667 1281.6667,345 1281.6667,345 C1281.6667,345 1378.9715,387.5758 1450.0715,418.6758" fill="none" id="couriers-to-config" style="stroke:#181818;stroke-width:1.6667;"/><polygon fill="#181818" points="1459.2333,422.6833,1448.1622,410.5642,1451.5984,419.3437,1442.8189,422.78,1459.2333,422.6833" style="stroke:#181818;stroke-width:1.6667;"/><text fill="#000000" font-family="sans-serif" font-size="30" lengthAdjust="spacing" textLength="68.7305" x="318.3333" y="324.5133">uses</text></g><!--link tours to TSPService--><g class="link" data-entity-1="tours" data-entity-2="TSPService" data-source-line="77" data-uid="lnk38" id="link_tours_TSPService"><path codeLine="77" d="M4447.0333,212.4667 C4512.6833,245.05 4613.3333,295 4613.3333,295 C4613.3333,295 4639.6568,369.1754 4655.4068,413.5754" fill="none" id="tours-to-TSPService" style="stroke:#181818;stroke-width:1.6667;"/><polygon fill="#181818" points="4658.75,423,4660.0183,406.6343,4655.964,415.1462,4647.4522,411.0919,4658.75,423" style="stroke:#181818;stroke-width:1.6667;"/><text fill="#000000" font-family="sans-serif" font-size="30" lengthAdjust="spacing" textLength="68.7305" x="4626.6667" y="324.5133">uses</text></g><!--link tours to schemas--><g class="link" data-entity-1="tours" data-entity-2="schemas" data-source-line="78" data-uid="lnk39" id="link_tours_schemas"><path codeLine="78" d="M4458.7167,203 C4680.7833,262.65 5378.3333,450 5378.3333,450 C5378.3333,450 5378.3333,450 5378.3333,981.6667 C5378.3333,981.6667 4276.6667,1128.3333 4276.6667,1128.3333 C4276.6667,1128.3333 3483.1001,1207.919 3202.1834,1236.0857" fill="none" id="tours-to-schemas" style="stroke:#181818;stroke-width:1.6667;"/><polygon fill="#181818" points="3192.2333,1237.0833,3207.8236,1242.2202,3200.5251,1236.2519,3206.4934,1228.9534,3192.2333,1237.0833" style="stroke:#181818;stroke-width:1.6667;"/><text fill="#000000" font-family="sans-serif" font-size="30" lengthAdjust="spacing" textLength="68.7305" x="5380" y="731.18">uses</text></g><!--link tours to config--><g class="link" data-entity-1="tours" data-entity-2="config" data-source-line="79" data-uid="lnk40" id="link_tours_config"><path codeLine="79" d="M4356.0667,212.25 C4300.6333,254.65 4200,331.6667 4200,331.6667 C4200,331.6667 2333.3333,345 2333.3333,345 C2333.3333,345 1807.4173,413.0334 1606.484,439.0334" fill="none" id="tours-to-config" style="stroke:#181818;stroke-width:1.6667;"/><polygon fill="#181818" points="1596.5667,440.3167,1612.2982,445.0033,1604.8311,439.2473,1610.5871,431.7802,1596.5667,440.3167" style="stroke:#181818;stroke-width:1.6667;"/><text fill="#000000" font-family="sans-serif" font-size="30" lengthAdjust="spacing" textLength="68.7305" x="4246.6667" y="324.5133">uses</text></g><!--link saved_tours to TSPService--><g class="link" data-entity-1="saved_tours" data-entity-2="TSPService" data-source-line="81" data-uid="lnk41" id="link_saved_tours_TSPService"><path codeLine="81" d="M3908.8167,212.25 C3966.65,254.65 4071.6667,331.6667 4071.6667,331.6667 C4071.6667,331.6667 4390,345 4390,345 C4390,345 4504.1099,388.0547 4586.5766,419.1547" fill="none" id="saved_tours-to-TSPService" style="stroke:#181818;stroke-width:1.6667;"/><polygon fill="#181818" points="4595.9333,422.6833,4584.2506,411.1525,4588.136,419.7428,4579.5458,423.6282,4595.9333,422.6833" style="stroke:#181818;stroke-width:1.6667;"/><text fill="#000000" font-family="sans-serif" font-size="30" lengthAdjust="spacing" textLength="68.7305" x="4073.3333" y="324.5133">uses</text></g><!--link saved_tours to config--><g class="link" data-entity-1="saved_tours" data-entity-2="config" data-source-line="82" data-uid="lnk42" id="link_saved_tours_config"><path codeLine="82" d="M3754.2333,212.3167 C3675.0667,230.7167 3585,251.6667 3585,251.6667 C3585,251.6667 2235,295 2235,295 C2235,295 1789.5721,391.794 1606.4221,431.5773" fill="none" id="saved_tours-to-config" style="stroke:#181818;stroke-width:1.6667;"/><polygon fill="#181818" points="1596.65,433.7,1612.7233,437.0307,1604.7934,431.9311,1609.8931,424.0012,1596.65,433.7" style="stroke:#181818;stroke-width:1.6667;"/><text fill="#000000" font-family="sans-serif" font-size="30" lengthAdjust="spacing" textLength="68.7305" x="2236.6667" y="324.5133">uses</text></g><!--link XMLParser to schemas--><g class="link" data-entity-1="XMLParser" data-entity-2="schemas" data-source-line="85" data-uid="lnk43" id="link_XMLParser_schemas"><path codeLine="85" d="M2430.45,475.75 C2218.55,519.7833 1768.3333,613.3333 1768.3333,613.3333 C1768.3333,613.3333 1768.3333,748.3333 1768.3333,748.3333 C1768.3333,748.3333 1890,1128.3333 1890,1128.3333 C1890,1128.3333 2706.5978,1208.4071 2991.5311,1236.3571" fill="none" id="XMLParser-to-schemas" style="stroke:#181818;stroke-width:1.6667;"/><polygon fill="#181818" points="3001.4833,1237.3333,2987.2058,1229.2341,2993.1898,1236.5198,2985.9042,1242.5038,3001.4833,1237.3333" style="stroke:#181818;stroke-width:1.6667;"/><text fill="#000000" font-family="sans-serif" font-size="30" lengthAdjust="spacing" textLength="138.3691" x="1806.6667" y="861.18">produces</text></g><!--link MapService to schemas--><g class="link" data-entity-1="MapService" data-entity-2="schemas" data-source-line="86" data-uid="lnk44" id="link_MapService_schemas"><path codeLine="86" d="M4142.7,480.5833 C4196.2,522.9833 4293.3333,600 4293.3333,600 C4293.3333,600 4365,613.3333 4365,613.3333 C4365,613.3333 4415,951.6667 4415,951.6667 C4415,951.6667 4415,1048.3333 4415,1048.3333 C4415,1048.3333 3900,1128.3333 3900,1128.3333 C3900,1128.3333 3414.6599,1199.8259 3201.8599,1231.1759" fill="none" id="MapService-to-schemas" style="stroke:#181818;stroke-width:1.6667;"/><polygon fill="#181818" points="3191.9667,1232.6333,3207.7781,1237.0426,3200.211,1231.4188,3205.8348,1223.8516,3191.9667,1232.6333" style="stroke:#181818;stroke-width:1.6667;"/><text fill="#000000" font-family="sans-serif" font-size="30" lengthAdjust="spacing" textLength="68.7305" x="4403.3333" y="861.18">uses</text></g><!--link TSPService to schemas--><g class="link" data-entity-1="TSPService" data-entity-2="schemas" data-source-line="87" data-uid="lnk45" id="link_TSPService_schemas"><path codeLine="87" d="M4661,480.5667 C4636.1667,572.8833 4556.6667,868.3333 4556.6667,868.3333 C4556.6667,868.3333 4500,1048.3333 4500,1048.3333 C4500,1048.3333 4101.6667,1128.3333 4101.6667,1128.3333 C4101.6667,1128.3333 3452.9147,1204.7135 3202.048,1234.2635" fill="none" id="TSPService-to-schemas" style="stroke:#181818;stroke-width:1.6667;"/><polygon fill="#181818" points="3192.1167,1235.4333,3207.7936,1240.2995,3200.3928,1234.4585,3206.2338,1227.0577,3192.1167,1235.4333" style="stroke:#181818;stroke-width:1.6667;"/><text fill="#000000" font-family="sans-serif" font-size="30" lengthAdjust="spacing" textLength="68.7305" x="4566.6667" y="861.18">uses</text></g><!--link TSPService to TSP_solver--><g class="link" data-entity-1="TSPService" data-entity-2="TSP_solver" data-source-line="88" data-uid="lnk46" id="link_TSPService_TSP_solver"><path codeLine="88" d="M4565.1333,480.8167 C4373.9833,531.7333 3976.6464,637.5429 3785.7964,688.3762" fill="none" id="TSPService-to-TSP_solver" style="stroke:#181818;stroke-width:1.6667;"/><polygon fill="#181818" points="3776.1333,690.95,3792.3439,693.5314,3784.1859,688.8052,3788.9121,680.6472,3776.1333,690.95" style="stroke:#181818;stroke-width:1.6667;"/><text fill="#000000" font-family="sans-serif" font-size="30" lengthAdjust="spacing" textLength="68.7305" x="4231.6667" y="592.8467">uses</text></g><!--reverse link TSP_solver to TSP_base--><g class="link" data-entity-1="TSP_solver" data-entity-2="TSP_base" data-source-line="91" data-uid="lnk47" id="link_TSP_solver_TSP_base"><path codeLine="91" d="M3758.791,761.9147 C3863.691,811.3147 4055.8333,901.8 4160.4333,951.0667" fill="none" id="TSP_solver-backto-TSP_base" style="stroke:#181818;stroke-width:1.6667;"/><polygon fill="none" points="3731.65,749.1333,3754.5306,770.9617,3763.0515,752.8677,3731.65,749.1333" style="stroke:#181818;stroke-width:1.6667;"/><text fill="#000000" font-family="sans-serif" font-size="30" lengthAdjust="spacing" textLength="120.1172" x="3980" y="861.18">extends</text></g><!--link TSP_solver to TSP_metric--><g class="link" data-entity-1="TSP_solver" data-entity-2="TSP_metric" data-source-line="92" data-uid="lnk48" id="link_TSP_solver_TSP_metric"><path codeLine="92" d="M3667.9833,748.85 C3661.5667,781.4333 3651.6667,831.6667 3651.6667,831.6667 C3651.6667,831.6667 3651.6667,868.3333 3651.6667,868.3333 C3651.6667,868.3333 3659.6345,908.7551 3666.0511,941.3384" fill="none" id="TSP_solver-to-TSP_metric" style="stroke:#181818;stroke-width:1.6667;stroke-dasharray:7.0,7.0;"/><polygon fill="#181818" points="3667.9833,951.15,3671.6261,935.1445,3666.3732,942.9737,3658.544,937.7208,3667.9833,951.15" style="stroke:#181818;stroke-width:1.6667;"/><text fill="#000000" font-family="sans-serif" font-size="30" lengthAdjust="spacing" textLength="68.7305" x="3653.3333" y="861.18">uses</text></g><!--link TSP_solver to TSP_heuristics--><g class="link" data-entity-1="TSP_solver" data-entity-2="TSP_heuristics" data-source-line="93" data-uid="lnk49" id="link_TSP_solver_TSP_heuristics"><path codeLine="93" d="M3563.9333,744.55 C3338.15,791.8 2831.1714,897.8855 2587.8047,948.8022" fill="none" id="TSP_solver-to-TSP_heuristics" style="stroke:#181818;stroke-width:1.6667;stroke-dasharray:7.0,7.0;"/><polygon fill="#181818" points="2578.0167,950.85,2594.064,954.3036,2586.1734,949.1435,2591.3335,941.2529,2578.0167,950.85" style="stroke:#181818;stroke-width:1.6667;"/><text fill="#000000" font-family="sans-serif" font-size="30" lengthAdjust="spacing" textLength="68.7305" x="3135" y="861.18">uses</text></g><!--link TSP_solver to TSP_local_search--><g class="link" data-entity-1="TSP_solver" data-entity-2="TSP_local_search" data-source-line="94" data-uid="lnk50" id="link_TSP_solver_TSP_local_search"><path codeLine="94" d="M3608.95,749.1333 C3493.3,798.4667 3260.8981,897.6097 3145.2481,946.943" fill="none" id="TSP_solver-to-TSP_local_search" style="stroke:#181818;stroke-width:1.6667;stroke-dasharray:7.0,7.0;"/><polygon fill="#181818" points="3136.05,950.8667,3152.4629,951.1132,3143.7151,947.5969,3147.2314,938.8491,3136.05,950.8667" style="stroke:#181818;stroke-width:1.6667;"/><text fill="#000000" font-family="sans-serif" font-size="30" lengthAdjust="spacing" textLength="68.7305" x="3410" y="861.18">uses</text></g><!--link TSP_base to schemas--><g class="link" data-entity-1="TSP_base" data-entity-2="schemas" data-source-line="95" data-uid="lnk51" id="link_TSP_base_schemas"><path codeLine="95" d="M4118.2833,1006.6833 C4042.6167,1025.6 3951.6667,1048.3333 3951.6667,1048.3333 C3951.6667,1048.3333 3423.7914,1170.7906 3201.1747,1222.4239" fill="none" id="TSP_base-to-schemas" style="stroke:#181818;stroke-width:1.6667;stroke-dasharray:7.0,7.0;"/><polygon fill="#181818" points="3191.4333,1224.6833,3207.5517,1227.7885,3199.5512,1222.8005,3204.5392,1214.8,3191.4333,1224.6833" style="stroke:#181818;stroke-width:1.6667;"/><text fill="#000000" font-family="sans-serif" font-size="30" lengthAdjust="spacing" textLength="68.7305" x="3746.6667" y="1121.18">uses</text></g><!--SRC=[XLJBRjim4BphAnRD8QS4TbAaHb44A08BAD00Hjr3RmOjhYqY5CcIb5ltyUzT-X4j6RKLVB1cXhD3SbVHEeWMrZP6su5K7fkehAd2ap9EUD61LWRZtY4ug_VfXN5hqJnjlUsDVB3QUhZO71wc2AsGzfioMzW87VXQHsl55fTnhn5IMM6scWi2EhYTLAsI2DYvk8SEkpNwK36HiHAJy6OoOQWNvYcXqmmzLLm8ALEW6yurjdFMe8cFmc-LoKdf54plCWGtejUnjYOkrG-4wOnNJmVIM6_GmwogJcNXLJejDF8LNCndzUkwXfyL0FsU1SAfHDxM3_CZ2T1e4GAbwxrAEnyWYLhja50ETiAnDuzVUmoH2uBOeLn5iilGA2AozpF_k-BfQ4T8yIZSh2xZcOtQCW2zjtxL2YCrZZXzNYvM0VrEDHYIOrrFwadc-2ZSyYXW82qRmDonepRG9wytyrdc5PeME_4oHPvWEh_BLdrv_BWGdZIZwVkeZkKeU74OYLwBK0HV1Qjt1pCEjaZt6g9gGa5esmXDPoHyqnPKXz6hvf2ASbt2rOk7m4-eHPhZq2eNnaM4lbzy06f8PvM9r52E_gDfKajH8z6Q- -4Ku2tqWH6dGotXuTvAvjWZPxGwz-PubOmjIcLSuJeCnRXlmHVE1LjudsTmZ3iCp84OUlHC3bnHRY0ADpQaV_4i5ON19PprsQKEnv6dSTxAdWQXOhStafV5-3yxj3nBHI0eqz8HqyU-ILzztgLioRjVLrVFWqG6-3tIDZB9zVKz6mUMeXGCC_OF4PytBZlKJw9Yjty0]--></g></svg>