<svg xmlns="http://www.w3.org/2000/svg" xmlns:xlink="http://www.w3.org/1999/xlink" contentStyleType="text/css" data-diagram-type="SEQUENCE" height="545px" preserveAspectRatio="none" style="width:510px;height:545px;background:#FFFFFF;" version="1.1" viewBox="0 0 510 545" width="510px" zoomAndPan="magnify"><title>parse_deliveries() Method</title><defs/><g><text fill="#000000" font-family="sans-serif" font-size="14" font-weight="bold" lengthAdjust="spacing" textLength="205.8643" x="153.8523" y="27.9951">parse_deliveries() Method</text><rect fill="none" height="201.7969" style="stroke:#000000;stroke-width:1.5;" width="330.5356" x="174.0332" y="262.2578"/><g><title>Client</title><rect fill="#000000" fill-opacity="0.00000" height="436.5938" width="8" x="28.2651" y="73.5938"/><line style="stroke:#181818;stroke-width:0.5;stroke-dasharray:5.0,5.0;" x1="32" x2="32" y1="73.5938" y2="510.1875"/></g><g><title>XMLParser</title><rect fill="#000000" fill-opacity="0.00000" height="436.5938" width="8" x="223.9883" y="73.5938"/><line style="stroke:#181818;stroke-width:0.5;stroke-dasharray:5.0,5.0;" x1="227.0332" x2="227.0332" y1="73.5938" y2="510.1875"/></g><g><title>File</title><rect fill="#000000" fill-opacity="0.00000" height="436.5938" width="8" x="389.2339" y="73.5938"/><line style="stroke:#181818;stroke-width:0.5;stroke-dasharray:5.0,5.0;" x1="393.0112" x2="393.0112" y1="73.5938" y2="510.1875"/></g><g><title>Delivery</title><rect fill="#000000" fill-opacity="0.00000" height="436.5938" width="8" x="454.5127" y="73.5938"/><line style="stroke:#181818;stroke-width:0.5;stroke-dasharray:5.0,5.0;" x1="458.4565" x2="458.4565" y1="73.5938" y2="510.1875"/></g><g class="participant participant-head" data-participant="Client"><rect fill="#E2E2F0" height="30.2969" rx="2.5" ry="2.5" style="stroke:#181818;stroke-width:0.5;" width="54.5303" x="5" y="42.2969"/><text fill="#000000" font-family="sans-serif" font-size="14" lengthAdjust="spacing" textLength="40.5303" x="12" y="62.292">Client</text></g><g class="participant participant-tail" data-participant="Client"><rect fill="#E2E2F0" height="30.2969" rx="2.5" ry="2.5" style="stroke:#181818;stroke-width:0.5;" width="54.5303" x="5" y="509.1875"/><text fill="#000000" font-family="sans-serif" font-size="14" lengthAdjust="spacing" textLength="40.5303" x="12" y="529.1826">Client</text></g><g class="participant participant-head" data-participant="XMLParser"><rect fill="#E2E2F0" height="30.2969" rx="2.5" ry="2.5" style="stroke:#181818;stroke-width:0.5;" width="87.9102" x="184.0332" y="42.2969"/><text fill="#000000" font-family="sans-serif" font-size="14" lengthAdjust="spacing" textLength="73.9102" x="191.0332" y="62.292">XMLParser</text></g><g class="participant participant-tail" data-participant="XMLParser"><rect fill="#E2E2F0" height="30.2969" rx="2.5" ry="2.5" style="stroke:#181818;stroke-width:0.5;" width="87.9102" x="184.0332" y="509.1875"/><text fill="#000000" font-family="sans-serif" font-size="14" lengthAdjust="spacing" textLength="73.9102" x="191.0332" y="529.1826">XMLParser</text></g><g class="participant participant-head" data-participant="File"><rect fill="#E2E2F0" height="30.2969" rx="2.5" ry="2.5" style="stroke:#181818;stroke-width:0.5;" width="38.4453" x="374.0112" y="42.2969"/><text fill="#000000" font-family="sans-serif" font-size="14" lengthAdjust="spacing" textLength="24.4453" x="381.0112" y="62.292">File</text></g><g class="participant participant-tail" data-participant="File"><rect fill="#E2E2F0" height="30.2969" rx="2.5" ry="2.5" style="stroke:#181818;stroke-width:0.5;" width="38.4453" x="374.0112" y="509.1875"/><text fill="#000000" font-family="sans-serif" font-size="14" lengthAdjust="spacing" textLength="24.4453" x="381.0112" y="529.1826">File</text></g><g class="participant participant-head" data-participant="Delivery"><rect fill="#E2E2F0" height="30.2969" rx="2.5" ry="2.5" style="stroke:#181818;stroke-width:0.5;" width="72.1123" x="422.4565" y="42.2969"/><text fill="#000000" font-family="sans-serif" font-size="14" lengthAdjust="spacing" textLength="58.1123" x="429.4565" y="62.292">Delivery</text></g><g class="participant participant-tail" data-participant="Delivery"><rect fill="#E2E2F0" height="30.2969" rx="2.5" ry="2.5" style="stroke:#181818;stroke-width:0.5;" width="72.1123" x="422.4565" y="509.1875"/><text fill="#000000" font-family="sans-serif" font-size="14" lengthAdjust="spacing" textLength="58.1123" x="429.4565" y="529.1826">Delivery</text></g><g class="message" data-participant-1="Client" data-participant-2="XMLParser"><polygon fill="#181818" points="215.9883,100.7266,225.9883,104.7266,215.9883,108.7266,219.9883,104.7266" style="stroke:#181818;stroke-width:1;"/><line style="stroke:#181818;stroke-width:1;" x1="32.2651" x2="221.9883" y1="104.7266" y2="104.7266"/><text fill="#000000" font-family="sans-serif" font-size="13" lengthAdjust="spacing" textLength="171.7231" x="39.2651" y="99.6606">parse_deliveries(file_path)</text></g><g class="message" data-participant-1="XMLParser" data-participant-2="File"><polygon fill="#181818" points="381.2339,129.8594,391.2339,133.8594,381.2339,137.8594,385.2339,133.8594" style="stroke:#181818;stroke-width:1;"/><line style="stroke:#181818;stroke-width:1;" x1="227.9883" x2="387.2339" y1="133.8594" y2="133.8594"/><text fill="#000000" font-family="sans-serif" font-size="13" lengthAdjust="spacing" textLength="84.9888" x="234.9883" y="128.7935">read XML file</text></g><g class="message" data-participant-1="File" data-participant-2="XMLParser"><polygon fill="#181818" points="238.9883,158.9922,228.9883,162.9922,238.9883,166.9922,234.9883,162.9922" style="stroke:#181818;stroke-width:1;"/><line style="stroke:#181818;stroke-width:1;stroke-dasharray:2.0,2.0;" x1="232.9883" x2="392.2339" y1="162.9922" y2="162.9922"/><text fill="#000000" font-family="sans-serif" font-size="13" lengthAdjust="spacing" textLength="80.2407" x="244.9883" y="157.9263">xml_content</text></g><g class="message" data-participant-1="XMLParser" data-participant-2="XMLParser"><line style="stroke:#181818;stroke-width:1;" x1="227.9883" x2="269.9883" y1="192.125" y2="192.125"/><line style="stroke:#181818;stroke-width:1;" x1="269.9883" x2="269.9883" y1="192.125" y2="205.125"/><line style="stroke:#181818;stroke-width:1;" x1="228.9883" x2="269.9883" y1="205.125" y2="205.125"/><polygon fill="#181818" points="238.9883,201.125,228.9883,205.125,238.9883,209.125,234.9883,205.125" style="stroke:#181818;stroke-width:1;"/><text fill="#000000" font-family="sans-serif" font-size="13" lengthAdjust="spacing" textLength="98.3125" x="234.9883" y="187.0591">parse XML root</text></g><g class="message" data-participant-1="XMLParser" data-participant-2="XMLParser"><line style="stroke:#181818;stroke-width:1;" x1="227.9883" x2="269.9883" y1="234.2578" y2="234.2578"/><line style="stroke:#181818;stroke-width:1;" x1="269.9883" x2="269.9883" y1="234.2578" y2="247.2578"/><line style="stroke:#181818;stroke-width:1;" x1="228.9883" x2="269.9883" y1="247.2578" y2="247.2578"/><polygon fill="#181818" points="238.9883,243.2578,228.9883,247.2578,238.9883,251.2578,234.9883,247.2578" style="stroke:#181818;stroke-width:1;"/><text fill="#000000" font-family="sans-serif" font-size="13" lengthAdjust="spacing" textLength="151.2456" x="234.9883" y="229.1919">extract hour_departure</text></g><path d="M174.0332,262.2578 L250.6572,262.2578 L250.6572,269.3906 L240.6572,279.3906 L174.0332,279.3906 L174.0332,262.2578" fill="#EEEEEE" style="stroke:#000000;stroke-width:1.5;"/><rect fill="none" height="201.7969" style="stroke:#000000;stroke-width:1.5;" width="330.5356" x="174.0332" y="262.2578"/><text fill="#000000" font-family="sans-serif" font-size="13" font-weight="bold" lengthAdjust="spacing" textLength="31.624" x="189.0332" y="275.3247">loop</text><text fill="#000000" font-family="sans-serif" font-size="11" font-weight="bold" lengthAdjust="spacing" textLength="172.5142" x="265.6572" y="274.4683">[for each livraison element]</text><g class="message" data-participant-1="XMLParser" data-participant-2="XMLParser"><line style="stroke:#181818;stroke-width:1;" x1="227.9883" x2="269.9883" y1="300.5234" y2="300.5234"/><line style="stroke:#181818;stroke-width:1;" x1="269.9883" x2="269.9883" y1="300.5234" y2="313.5234"/><line style="stroke:#181818;stroke-width:1;" x1="228.9883" x2="269.9883" y1="313.5234" y2="313.5234"/><polygon fill="#181818" points="238.9883,309.5234,228.9883,313.5234,238.9883,317.5234,234.9883,313.5234" style="stroke:#181818;stroke-width:1;"/><text fill="#000000" font-family="sans-serif" font-size="13" lengthAdjust="spacing" textLength="87.4009" x="234.9883" y="295.4575">generate_id()</text></g><g class="message" data-participant-1="XMLParser" data-participant-2="XMLParser"><line style="stroke:#181818;stroke-width:1;" x1="227.9883" x2="269.9883" y1="342.6563" y2="342.6563"/><line style="stroke:#181818;stroke-width:1;" x1="269.9883" x2="269.9883" y1="342.6563" y2="355.6563"/><line style="stroke:#181818;stroke-width:1;" x1="228.9883" x2="269.9883" y1="355.6563" y2="355.6563"/><polygon fill="#181818" points="238.9883,351.6563,228.9883,355.6563,238.9883,359.6563,234.9883,355.6563" style="stroke:#181818;stroke-width:1;"/><text fill="#000000" font-family="sans-serif" font-size="13" lengthAdjust="spacing" textLength="136.0938" x="234.9883" y="337.5903">extract delivery data</text></g><g class="message" data-participant-1="XMLParser" data-participant-2="Delivery"><polygon fill="#181818" points="446.5127,380.7891,456.5127,384.7891,446.5127,388.7891,450.5127,384.7891" style="stroke:#181818;stroke-width:1;"/><line style="stroke:#181818;stroke-width:1;" x1="227.9883" x2="452.5127" y1="384.7891" y2="384.7891"/><text fill="#000000" font-family="sans-serif" font-size="13" lengthAdjust="spacing" textLength="95.1069" x="234.9883" y="379.7231">new Delivery()</text></g><g class="message" data-participant-1="Delivery" data-participant-2="XMLParser"><polygon fill="#181818" points="238.9883,409.9219,228.9883,413.9219,238.9883,417.9219,234.9883,413.9219" style="stroke:#181818;stroke-width:1;"/><line style="stroke:#181818;stroke-width:1;stroke-dasharray:2.0,2.0;" x1="232.9883" x2="457.5127" y1="413.9219" y2="413.9219"/><text fill="#000000" font-family="sans-serif" font-size="13" lengthAdjust="spacing" textLength="96.3955" x="244.9883" y="408.856">delivery object</text></g><g class="message" data-participant-1="XMLParser" data-participant-2="XMLParser"><line style="stroke:#181818;stroke-width:1;" x1="227.9883" x2="269.9883" y1="443.0547" y2="443.0547"/><line style="stroke:#181818;stroke-width:1;" x1="269.9883" x2="269.9883" y1="443.0547" y2="456.0547"/><line style="stroke:#181818;stroke-width:1;" x1="228.9883" x2="269.9883" y1="456.0547" y2="456.0547"/><polygon fill="#181818" points="238.9883,452.0547,228.9883,456.0547,238.9883,460.0547,234.9883,456.0547" style="stroke:#181818;stroke-width:1;"/><text fill="#000000" font-family="sans-serif" font-size="13" lengthAdjust="spacing" textLength="131.9043" x="234.9883" y="437.9888">add to deliveries list</text></g><g class="message" data-participant-1="XMLParser" data-participant-2="Client"><polygon fill="#181818" points="43.2651,488.1875,33.2651,492.1875,43.2651,496.1875,39.2651,492.1875" style="stroke:#181818;stroke-width:1;"/><line style="stroke:#181818;stroke-width:1;stroke-dasharray:2.0,2.0;" x1="37.2651" x2="226.9883" y1="492.1875" y2="492.1875"/><text fill="#000000" font-family="sans-serif" font-size="13" lengthAdjust="spacing" textLength="86.8296" x="49.2651" y="487.1216">List[Delivery]</text></g><!--SRC=[VP7FRi8m3CRlVWeVwO4Nw66NJJk1jEEa2LMcCMkc45Uk6V3sIrPQ513avZ_VxxCTynOOUzA16yV1_x9w7XOLhjawSG2fPBxrFKN3r-0vMf7wNAy-ibYBxBiFN2JUHlGPO6JWykKghU_zTmdGz6HT1NDRrcHmZShaiXnp6-GSBalWQH-QLgBbSKl2hUi_HqNiOHkVJAarxEIWQSQyra4P88Zqk1D5fhR3DBgI7oGY1zvdNqpl4VER8oiPDzujggUTa_lbE6TqP7Ilc0vSO-JZ75tOKtXxfPafsnzkdqzCpg49NlyeRJmOS7J5WPDe_E4QLwd-DLblu0y0]--></g></svg>