<svg xmlns="http://www.w3.org/2000/svg" xmlns:xlink="http://www.w3.org/1999/xlink" contentStyleType="text/css" data-diagram-type="SEQUENCE" height="735px" preserveAspectRatio="none" style="width:683px;height:735px;background:#FFFFFF;" version="1.1" viewBox="0 0 683 735" width="683px" zoomAndPan="magnify"><title>parse_map() Method</title><defs/><g><text fill="#000000" font-family="sans-serif" font-size="14" font-weight="bold" lengthAdjust="spacing" textLength="162.6543" x="259.2932" y="27.9951">parse_map() Method</text><rect fill="none" height="159.6641" style="stroke:#000000;stroke-width:1.5;" width="370.9146" x="140.0225" y="220.125"/><rect fill="none" height="201.7969" style="stroke:#000000;stroke-width:1.5;" width="493.6733" x="140.0225" y="393.7891"/><g><title>Client</title><rect fill="#000000" fill-opacity="0.00000" height="626.3906" width="8" x="28.2651" y="73.5938"/><line style="stroke:#181818;stroke-width:0.5;stroke-dasharray:5.0,5.0;" x1="32" x2="32" y1="73.5938" y2="699.9844"/></g><g><title>XMLParser</title><rect fill="#000000" fill-opacity="0.00000" height="626.3906" width="8" x="189.9775" y="73.5938"/><line style="stroke:#181818;stroke-width:0.5;stroke-dasharray:5.0,5.0;" x1="193.0225" x2="193.0225" y1="73.5938" y2="699.9844"/></g><g><title>File</title><rect fill="#000000" fill-opacity="0.00000" height="626.3906" width="8" x="370.4321" y="73.5938"/><line style="stroke:#181818;stroke-width:0.5;stroke-dasharray:5.0,5.0;" x1="374.2095" x2="374.2095" y1="73.5938" y2="699.9844"/></g><g><title>Intersection</title><rect fill="#000000" fill-opacity="0.00000" height="626.3906" width="8" x="448.2959" y="73.5938"/><line style="stroke:#181818;stroke-width:0.5;stroke-dasharray:5.0,5.0;" x1="451.6548" x2="451.6548" y1="73.5938" y2="699.9844"/></g><g><title>RoadSegment</title><rect fill="#000000" fill-opacity="0.00000" height="626.3906" width="8" x="563.3164" y="73.5938"/><line style="stroke:#181818;stroke-width:0.5;stroke-dasharray:5.0,5.0;" x1="566.937" x2="566.937" y1="73.5938" y2="699.9844"/></g><g><title>Map</title><rect fill="#000000" fill-opacity="0.00000" height="626.3906" width="8" x="651.4683" y="73.5938"/><line style="stroke:#181818;stroke-width:0.5;stroke-dasharray:5.0,5.0;" x1="654.6958" x2="654.6958" y1="73.5938" y2="699.9844"/></g><g class="participant participant-head" data-participant="Client"><rect fill="#E2E2F0" height="30.2969" rx="2.5" ry="2.5" style="stroke:#181818;stroke-width:0.5;" width="54.5303" x="5" y="42.2969"/><text fill="#000000" font-family="sans-serif" font-size="14" lengthAdjust="spacing" textLength="40.5303" x="12" y="62.292">Client</text></g><g class="participant participant-tail" data-participant="Client"><rect fill="#E2E2F0" height="30.2969" rx="2.5" ry="2.5" style="stroke:#181818;stroke-width:0.5;" width="54.5303" x="5" y="698.9844"/><text fill="#000000" font-family="sans-serif" font-size="14" lengthAdjust="spacing" textLength="40.5303" x="12" y="718.9795">Client</text></g><g class="participant participant-head" data-participant="XMLParser"><rect fill="#E2E2F0" height="30.2969" rx="2.5" ry="2.5" style="stroke:#181818;stroke-width:0.5;" width="87.9102" x="150.0225" y="42.2969"/><text fill="#000000" font-family="sans-serif" font-size="14" lengthAdjust="spacing" textLength="73.9102" x="157.0225" y="62.292">XMLParser</text></g><g class="participant participant-tail" data-participant="XMLParser"><rect fill="#E2E2F0" height="30.2969" rx="2.5" ry="2.5" style="stroke:#181818;stroke-width:0.5;" width="87.9102" x="150.0225" y="698.9844"/><text fill="#000000" font-family="sans-serif" font-size="14" lengthAdjust="spacing" textLength="73.9102" x="157.0225" y="718.9795">XMLParser</text></g><g class="participant participant-head" data-participant="File"><rect fill="#E2E2F0" height="30.2969" rx="2.5" ry="2.5" style="stroke:#181818;stroke-width:0.5;" width="38.4453" x="355.2095" y="42.2969"/><text fill="#000000" font-family="sans-serif" font-size="14" lengthAdjust="spacing" textLength="24.4453" x="362.2095" y="62.292">File</text></g><g class="participant participant-tail" data-participant="File"><rect fill="#E2E2F0" height="30.2969" rx="2.5" ry="2.5" style="stroke:#181818;stroke-width:0.5;" width="38.4453" x="355.2095" y="698.9844"/><text fill="#000000" font-family="sans-serif" font-size="14" lengthAdjust="spacing" textLength="24.4453" x="362.2095" y="718.9795">File</text></g><g class="participant participant-head" data-participant="Intersection"><rect fill="#E2E2F0" height="30.2969" rx="2.5" ry="2.5" style="stroke:#181818;stroke-width:0.5;" width="97.2822" x="403.6548" y="42.2969"/><text fill="#000000" font-family="sans-serif" font-size="14" lengthAdjust="spacing" textLength="83.2822" x="410.6548" y="62.292">Intersection</text></g><g class="participant participant-tail" data-participant="Intersection"><rect fill="#E2E2F0" height="30.2969" rx="2.5" ry="2.5" style="stroke:#181818;stroke-width:0.5;" width="97.2822" x="403.6548" y="698.9844"/><text fill="#000000" font-family="sans-serif" font-size="14" lengthAdjust="spacing" textLength="83.2822" x="410.6548" y="718.9795">Intersection</text></g><g class="participant participant-head" data-participant="RoadSegment"><rect fill="#E2E2F0" height="30.2969" rx="2.5" ry="2.5" style="stroke:#181818;stroke-width:0.5;" width="112.7588" x="510.937" y="42.2969"/><text fill="#000000" font-family="sans-serif" font-size="14" lengthAdjust="spacing" textLength="98.7588" x="517.937" y="62.292">RoadSegment</text></g><g class="participant participant-tail" data-participant="RoadSegment"><rect fill="#E2E2F0" height="30.2969" rx="2.5" ry="2.5" style="stroke:#181818;stroke-width:0.5;" width="112.7588" x="510.937" y="698.9844"/><text fill="#000000" font-family="sans-serif" font-size="14" lengthAdjust="spacing" textLength="98.7588" x="517.937" y="718.9795">RoadSegment</text></g><g class="participant participant-head" data-participant="Map"><rect fill="#E2E2F0" height="30.2969" rx="2.5" ry="2.5" style="stroke:#181818;stroke-width:0.5;" width="43.5449" x="633.6958" y="42.2969"/><text fill="#000000" font-family="sans-serif" font-size="14" lengthAdjust="spacing" textLength="29.5449" x="640.6958" y="62.292">Map</text></g><g class="participant participant-tail" data-participant="Map"><rect fill="#E2E2F0" height="30.2969" rx="2.5" ry="2.5" style="stroke:#181818;stroke-width:0.5;" width="43.5449" x="633.6958" y="698.9844"/><text fill="#000000" font-family="sans-serif" font-size="14" lengthAdjust="spacing" textLength="29.5449" x="640.6958" y="718.9795">Map</text></g><g class="message" data-participant-1="Client" data-participant-2="XMLParser"><polygon fill="#181818" points="181.9775,100.7266,191.9775,104.7266,181.9775,108.7266,185.9775,104.7266" style="stroke:#181818;stroke-width:1;"/><line style="stroke:#181818;stroke-width:1;" x1="32.2651" x2="187.9775" y1="104.7266" y2="104.7266"/><text fill="#000000" font-family="sans-serif" font-size="13" lengthAdjust="spacing" textLength="137.7124" x="39.2651" y="99.6606">parse_map(file_path)</text></g><g class="message" data-participant-1="XMLParser" data-participant-2="File"><polygon fill="#181818" points="362.4321,129.8594,372.4321,133.8594,362.4321,137.8594,366.4321,133.8594" style="stroke:#181818;stroke-width:1;"/><line style="stroke:#181818;stroke-width:1;" x1="193.9775" x2="368.4321" y1="133.8594" y2="133.8594"/><text fill="#000000" font-family="sans-serif" font-size="13" lengthAdjust="spacing" textLength="84.9888" x="200.9775" y="128.7935">read XML file</text></g><g class="message" data-participant-1="File" data-participant-2="XMLParser"><polygon fill="#181818" points="204.9775,158.9922,194.9775,162.9922,204.9775,166.9922,200.9775,162.9922" style="stroke:#181818;stroke-width:1;"/><line style="stroke:#181818;stroke-width:1;stroke-dasharray:2.0,2.0;" x1="198.9775" x2="373.4321" y1="162.9922" y2="162.9922"/><text fill="#000000" font-family="sans-serif" font-size="13" lengthAdjust="spacing" textLength="80.2407" x="210.9775" y="157.9263">xml_content</text></g><g class="message" data-participant-1="XMLParser" data-participant-2="XMLParser"><line style="stroke:#181818;stroke-width:1;" x1="193.9775" x2="235.9775" y1="192.125" y2="192.125"/><line style="stroke:#181818;stroke-width:1;" x1="235.9775" x2="235.9775" y1="192.125" y2="205.125"/><line style="stroke:#181818;stroke-width:1;" x1="194.9775" x2="235.9775" y1="205.125" y2="205.125"/><polygon fill="#181818" points="204.9775,201.125,194.9775,205.125,204.9775,209.125,200.9775,205.125" style="stroke:#181818;stroke-width:1;"/><text fill="#000000" font-family="sans-serif" font-size="13" lengthAdjust="spacing" textLength="98.3125" x="200.9775" y="187.0591">parse XML root</text></g><path d="M140.0225,220.125 L216.6465,220.125 L216.6465,227.2578 L206.6465,237.2578 L140.0225,237.2578 L140.0225,220.125" fill="#EEEEEE" style="stroke:#000000;stroke-width:1.5;"/><rect fill="none" height="159.6641" style="stroke:#000000;stroke-width:1.5;" width="370.9146" x="140.0225" y="220.125"/><text fill="#000000" font-family="sans-serif" font-size="13" font-weight="bold" lengthAdjust="spacing" textLength="31.624" x="155.0225" y="233.1919">loop</text><text fill="#000000" font-family="sans-serif" font-size="11" font-weight="bold" lengthAdjust="spacing" textLength="157.8027" x="231.6465" y="232.3354">[for each noeud element]</text><g class="message" data-participant-1="XMLParser" data-participant-2="XMLParser"><line style="stroke:#181818;stroke-width:1;" x1="193.9775" x2="235.9775" y1="258.3906" y2="258.3906"/><line style="stroke:#181818;stroke-width:1;" x1="235.9775" x2="235.9775" y1="258.3906" y2="271.3906"/><line style="stroke:#181818;stroke-width:1;" x1="194.9775" x2="235.9775" y1="271.3906" y2="271.3906"/><polygon fill="#181818" points="204.9775,267.3906,194.9775,271.3906,204.9775,275.3906,200.9775,271.3906" style="stroke:#181818;stroke-width:1;"/><text fill="#000000" font-family="sans-serif" font-size="13" lengthAdjust="spacing" textLength="116.3335" x="200.9775" y="253.3247">extract node data</text></g><g class="message" data-participant-1="XMLParser" data-participant-2="Intersection"><polygon fill="#181818" points="440.2959,296.5234,450.2959,300.5234,440.2959,304.5234,444.2959,300.5234" style="stroke:#181818;stroke-width:1;"/><line style="stroke:#181818;stroke-width:1;" x1="193.9775" x2="446.2959" y1="300.5234" y2="300.5234"/><text fill="#000000" font-family="sans-serif" font-size="13" lengthAdjust="spacing" textLength="118.479" x="200.9775" y="295.4575">new Intersection()</text></g><g class="message" data-participant-1="Intersection" data-participant-2="XMLParser"><polygon fill="#181818" points="204.9775,325.6563,194.9775,329.6563,204.9775,333.6563,200.9775,329.6563" style="stroke:#181818;stroke-width:1;"/><line style="stroke:#181818;stroke-width:1;stroke-dasharray:2.0,2.0;" x1="198.9775" x2="451.2959" y1="329.6563" y2="329.6563"/><text fill="#000000" font-family="sans-serif" font-size="13" lengthAdjust="spacing" textLength="121.3037" x="210.9775" y="324.5903">intersection object</text></g><g class="message" data-participant-1="XMLParser" data-participant-2="XMLParser"><line style="stroke:#181818;stroke-width:1;" x1="193.9775" x2="235.9775" y1="358.7891" y2="358.7891"/><line style="stroke:#181818;stroke-width:1;" x1="235.9775" x2="235.9775" y1="358.7891" y2="371.7891"/><line style="stroke:#181818;stroke-width:1;" x1="194.9775" x2="235.9775" y1="371.7891" y2="371.7891"/><polygon fill="#181818" points="204.9775,367.7891,194.9775,371.7891,204.9775,375.7891,200.9775,371.7891" style="stroke:#181818;stroke-width:1;"/><text fill="#000000" font-family="sans-serif" font-size="13" lengthAdjust="spacing" textLength="152.896" x="200.9775" y="353.7231">add to intersections list</text></g><path d="M140.0225,393.7891 L216.6465,393.7891 L216.6465,400.9219 L206.6465,410.9219 L140.0225,410.9219 L140.0225,393.7891" fill="#EEEEEE" style="stroke:#000000;stroke-width:1.5;"/><rect fill="none" height="201.7969" style="stroke:#000000;stroke-width:1.5;" width="493.6733" x="140.0225" y="393.7891"/><text fill="#000000" font-family="sans-serif" font-size="13" font-weight="bold" lengthAdjust="spacing" textLength="31.624" x="155.0225" y="406.856">loop</text><text fill="#000000" font-family="sans-serif" font-size="11" font-weight="bold" lengthAdjust="spacing" textLength="167.229" x="231.6465" y="405.9995">[for each troncon element]</text><g class="message" data-participant-1="XMLParser" data-participant-2="XMLParser"><line style="stroke:#181818;stroke-width:1;" x1="193.9775" x2="235.9775" y1="432.0547" y2="432.0547"/><line style="stroke:#181818;stroke-width:1;" x1="235.9775" x2="235.9775" y1="432.0547" y2="445.0547"/><line style="stroke:#181818;stroke-width:1;" x1="194.9775" x2="235.9775" y1="445.0547" y2="445.0547"/><polygon fill="#181818" points="204.9775,441.0547,194.9775,445.0547,204.9775,449.0547,200.9775,445.0547" style="stroke:#181818;stroke-width:1;"/><text fill="#000000" font-family="sans-serif" font-size="13" lengthAdjust="spacing" textLength="140.9116" x="200.9775" y="426.9888">extract segment data</text></g><g class="message" data-participant-1="XMLParser" data-participant-2="XMLParser"><line style="stroke:#181818;stroke-width:1;" x1="193.9775" x2="235.9775" y1="474.1875" y2="474.1875"/><line style="stroke:#181818;stroke-width:1;" x1="235.9775" x2="235.9775" y1="474.1875" y2="487.1875"/><line style="stroke:#181818;stroke-width:1;" x1="194.9775" x2="235.9775" y1="487.1875" y2="487.1875"/><polygon fill="#181818" points="204.9775,483.1875,194.9775,487.1875,204.9775,491.1875,200.9775,487.1875" style="stroke:#181818;stroke-width:1;"/><text fill="#000000" font-family="sans-serif" font-size="13" lengthAdjust="spacing" textLength="149.7729" x="200.9775" y="469.1216">calculate travel_time_s</text></g><g class="message" data-participant-1="XMLParser" data-participant-2="RoadSegment"><polygon fill="#181818" points="555.3164,512.3203,565.3164,516.3203,555.3164,520.3203,559.3164,516.3203" style="stroke:#181818;stroke-width:1;"/><line style="stroke:#181818;stroke-width:1;" x1="193.9775" x2="561.3164" y1="516.3203" y2="516.3203"/><text fill="#000000" font-family="sans-serif" font-size="13" lengthAdjust="spacing" textLength="132.8501" x="200.9775" y="511.2544">new RoadSegment()</text></g><g class="message" data-participant-1="RoadSegment" data-participant-2="XMLParser"><polygon fill="#181818" points="204.9775,541.4531,194.9775,545.4531,204.9775,549.4531,200.9775,545.4531" style="stroke:#181818;stroke-width:1;"/><line style="stroke:#181818;stroke-width:1;stroke-dasharray:2.0,2.0;" x1="198.9775" x2="566.3164" y1="545.4531" y2="545.4531"/><text fill="#000000" font-family="sans-serif" font-size="13" lengthAdjust="spacing" textLength="134.8623" x="210.9775" y="540.3872">road segment object</text></g><g class="message" data-participant-1="XMLParser" data-participant-2="XMLParser"><line style="stroke:#181818;stroke-width:1;" x1="193.9775" x2="235.9775" y1="574.5859" y2="574.5859"/><line style="stroke:#181818;stroke-width:1;" x1="235.9775" x2="235.9775" y1="574.5859" y2="587.5859"/><line style="stroke:#181818;stroke-width:1;" x1="194.9775" x2="235.9775" y1="587.5859" y2="587.5859"/><polygon fill="#181818" points="204.9775,583.5859,194.9775,587.5859,204.9775,591.5859,200.9775,587.5859" style="stroke:#181818;stroke-width:1;"/><text fill="#000000" font-family="sans-serif" font-size="13" lengthAdjust="spacing" textLength="166.4546" x="200.9775" y="569.52">add to road segments list</text></g><g class="message" data-participant-1="XMLParser" data-participant-2="Map"><polygon fill="#181818" points="643.4683,619.7188,653.4683,623.7188,643.4683,627.7188,647.4683,623.7188" style="stroke:#181818;stroke-width:1;"/><line style="stroke:#181818;stroke-width:1;" x1="193.9775" x2="649.4683" y1="623.7188" y2="623.7188"/><text fill="#000000" font-family="sans-serif" font-size="13" lengthAdjust="spacing" textLength="259.2065" x="200.9775" y="618.6528">new Map(intersections, RoadSegments)</text></g><g class="message" data-participant-1="Map" data-participant-2="XMLParser"><polygon fill="#181818" points="204.9775,648.8516,194.9775,652.8516,204.9775,656.8516,200.9775,652.8516" style="stroke:#181818;stroke-width:1;"/><line style="stroke:#181818;stroke-width:1;stroke-dasharray:2.0,2.0;" x1="198.9775" x2="654.4683" y1="652.8516" y2="652.8516"/><text fill="#000000" font-family="sans-serif" font-size="13" lengthAdjust="spacing" textLength="73.0742" x="210.9775" y="647.7856">map object</text></g><g class="message" data-participant-1="XMLParser" data-participant-2="Client"><polygon fill="#181818" points="43.2651,677.9844,33.2651,681.9844,43.2651,685.9844,39.2651,681.9844" style="stroke:#181818;stroke-width:1;"/><line style="stroke:#181818;stroke-width:1;stroke-dasharray:2.0,2.0;" x1="37.2651" x2="192.9775" y1="681.9844" y2="681.9844"/><text fill="#000000" font-family="sans-serif" font-size="13" lengthAdjust="spacing" textLength="27.4346" x="49.2651" y="676.9185">Map</text></g><!--SRC=[bLD1JiGm3Bpd5Jws4lk17hWW8I5H2S65MsKIBmrAuohrmZuVjuKbwMeHz1IDFPxnD14lWM34D54tu5ZLq9Bqx8nHJBpr8qQ1c-0fIW4zj_SFCoiLwAqFL01tKKYxh7YEHU6HqJtHwx2Ts-9epAe7k-iVcIOpkLULRaJfQtEgpyspUWE9qCqycDlCZC6kd7GSGcTPdQbsEM4hjyn9pDeNc4VOSm92sqDaEZYWGCi2eD-bENIKX5QKuGWS2fvtvo4r4EcZGAfwOUJGTY6Vr_ZbJK-_UaBdGBYWJH3y98QYswugYQEczQzbf_NFNjWt8rWCzX1GI6NmdK8dVg1kEkTazsMDA0E-4igGRK19IoTJVmyef-K15JIziQiZFLH5f5UvfQassh0rfjVvsqysL7lM9z0ix-4J]--></g></svg>