<svg xmlns="http://www.w3.org/2000/svg" xmlns:xlink="http://www.w3.org/1999/xlink" contentStyleType="text/css" data-diagram-type="DESCRIPTION" height="667px" preserveAspectRatio="none" style="width:1065px;height:667px;background:#FFFFFF;" version="1.1" viewBox="0 0 1065 667" width="1065px" zoomAndPan="magnify"><title>Pickup &amp; Delivery Bike Tours - Use Case Diagram</title><defs/><g><text fill="#000000" font-family="sans-serif" font-size="14" font-weight="bold" lengthAdjust="spacing" textLength="387.2559" x="331.9243" y="22.9951">Pickup &amp; Delivery Bike Tours - Use Case Diagram</text><!--cluster System--><g class="cluster" data-entity="System" data-source-line="12" data-uid="ent0004" id="cluster_System"><rect fill="none" height="530" rx="2.5" ry="2.5" style="stroke:#181818;stroke-width:1;" width="676.74" x="355" y="44.2969"/><text fill="#000000" font-family="sans-serif" font-size="14" font-weight="bold" lengthAdjust="spacing" textLength="173.332" x="606.704" y="59.292">Tour Planning System</text></g><g class="entity" data-entity="UC_Load" data-source-line="14" data-uid="ent0005" id="entity_UC_Load"><ellipse cx="501.616" cy="191.3001" fill="#EEF7FF" rx="130.616" ry="28.5232" style="stroke:#2B6CB0;stroke-width:0.5;"/><text fill="#000000" font-family="sans-serif" font-size="14" font-style="italic" lengthAdjust="spacing" textLength="47.7627" x="475.61" y="179.1093">&#171;core&#187;</text><text fill="#000000" font-family="sans-serif" font-size="14" lengthAdjust="spacing" textLength="229.5098" x="384.7364" y="195.4062">Load and display City Map (XML)</text></g><g class="entity" data-entity="UC_Receive" data-source-line="15" data-uid="ent0006" id="entity_UC_Receive"><ellipse cx="501.6195" cy="531.2988" fill="#EEF7FF" rx="120.6095" ry="26.5219" style="stroke:#2B6CB0;stroke-width:0.5;"/><text fill="#000000" font-family="sans-serif" font-size="14" font-style="italic" lengthAdjust="spacing" textLength="47.7627" x="472.4323" y="521.3096">&#171;core&#187;</text><text fill="#000000" font-family="sans-serif" font-size="14" lengthAdjust="spacing" textLength="203.1846" x="394.7213" y="537.6065">Load Delivery Request (XML)</text></g><g class="entity" data-entity="UC_Compute" data-source-line="16" data-uid="ent0007" id="entity_UC_Compute"><ellipse cx="501.6206" cy="446.2942" fill="#EEF7FF" rx="97.3806" ry="23.8574" style="stroke:#2B6CB0;stroke-width:0.5;"/><text fill="#000000" font-family="sans-serif" font-size="14" font-style="italic" lengthAdjust="spacing" textLength="47.7627" x="471.1529" y="439.3504">&#171;core&#187;</text><text fill="#000000" font-family="sans-serif" font-size="14" lengthAdjust="spacing" textLength="135.4883" x="427.2901" y="455.6473">Compute Best Tour</text></g><g class="entity" data-entity="UC_SetCouriers" data-source-line="18" data-uid="ent0008" id="entity_UC_SetCouriers"><ellipse cx="875.1742" cy="191.2957" fill="#F1F1F1" rx="100.2442" ry="22.4488" style="stroke:#2B6CB0;stroke-width:0.5;"/><text fill="#000000" font-family="sans-serif" font-size="14" lengthAdjust="spacing" textLength="164.5957" x="792.8764" y="194.1424">Set Number of Couriers</text></g><g class="entity" data-entity="UC_SelectCourier" data-source-line="20" data-uid="ent0009" id="entity_UC_SelectCourier"><ellipse cx="875.1674" cy="526.2984" fill="#F1F1F1" rx="72.2574" ry="16.8515" style="stroke:#2B6CB0;stroke-width:0.5;"/><text fill="#000000" font-family="sans-serif" font-size="14" lengthAdjust="spacing" textLength="98.8682" x="822.7333" y="530.0459">Select Courier</text></g><g class="entity" data-entity="UC_Pickup_Delivery" data-source-line="21" data-uid="ent0010" id="entity_UC_Pickup_Delivery"><ellipse cx="875.1699" cy="444.3009" fill="#F1F1F1" rx="140.5699" ry="30.514" style="stroke:#2B6CB0;stroke-width:0.5;"/><text fill="#000000" font-family="sans-serif" font-size="14" lengthAdjust="spacing" textLength="250.7969" x="749.7715" y="447.1475">Select Pickup and Delivery Location</text></g><g class="entity" data-entity="UC_ServiceTimes" data-source-line="22" data-uid="ent0011" id="entity_UC_ServiceTimes"><ellipse cx="875.1746" cy="359.3018" fill="#F1F1F1" rx="82.9746" ry="18.9949" style="stroke:#2B6CB0;stroke-width:0.5;"/><text fill="#000000" font-family="sans-serif" font-size="14" lengthAdjust="spacing" textLength="125.6172" x="811.7643" y="362.3517">Set Service Times</text></g><g class="entity" data-entity="UC_DisplayTour" data-source-line="24" data-uid="ent0012" id="entity_UC_DisplayTour"><ellipse cx="501.6198" cy="275.2988" fill="#F1F1F1" rx="90.8598" ry="20.572" style="stroke:#2B6CB0;stroke-width:0.5;"/><text fill="#000000" font-family="sans-serif" font-size="14" lengthAdjust="spacing" textLength="143.6846" x="429.7775" y="278.1455">Display Tour on Map</text></g><g class="entity" data-entity="UC_Save" data-source-line="26" data-uid="ent0013" id="entity_UC_Save"><ellipse cx="501.6167" cy="103.2962" fill="#F1F1F1" rx="108.5967" ry="24.1193" style="stroke:#2B6CB0;stroke-width:0.5;"/><text fill="#000000" font-family="sans-serif" font-size="14" lengthAdjust="spacing" textLength="182.8408" x="410.1963" y="106.1429">Save Current Tours to File</text></g><g class="entity" data-entity="UC_Restore" data-source-line="27" data-uid="ent0014" id="entity_UC_Restore"><ellipse cx="875.165" cy="275.2919" fill="#F1F1F1" rx="99.875" ry="22.375" style="stroke:#2B6CB0;stroke-width:0.5;"/><text fill="#000000" font-family="sans-serif" font-size="14" lengthAdjust="spacing" textLength="163.7822" x="793.2739" y="278.1386">Restore Tours from File</text></g><g class="entity" data-entity="UC_addDeliveryManual" data-source-line="29" data-uid="ent0015" id="entity_UC_addDeliveryManual"><ellipse cx="501.6214" cy="359.2932" fill="#EEF7FF" rx="129.9814" ry="28.3963" style="stroke:#2B6CB0;stroke-width:0.5;"/><text fill="#000000" font-family="sans-serif" font-size="14" font-style="italic" lengthAdjust="spacing" textLength="47.7627" x="475.3648" y="347.2426">&#171;core&#187;</text><text fill="#000000" font-family="sans-serif" font-size="14" lengthAdjust="spacing" textLength="228.0811" x="385.2056" y="363.5395">Add a delivery request manually</text></g><!--entity Dispatcher--><g class="entity" data-entity="Dispatcher" data-source-line="9" data-uid="ent0002" id="entity_Dispatcher"><ellipse cx="158.4992" cy="148.6569" fill="#F1F1F1" rx="8" ry="8" style="stroke:#181818;stroke-width:0.5;"/><path d="M158.4992,156.6569 L158.4992,183.6569 M145.4992,164.6569 L171.4992,164.6569 M158.4992,183.6569 L145.4992,198.6569 M158.4992,183.6569 L171.4992,198.6569" fill="none" style="stroke:#181818;stroke-width:0.5;"/><text fill="#000000" font-family="sans-serif" font-size="14" lengthAdjust="spacing" textLength="75.8584" x="120.57" y="213.152">Dispatcher</text></g><!--entity Courier--><g class="entity" data-entity="Courier" data-source-line="10" data-uid="ent0003" id="entity_Courier"><ellipse cx="158.5043" cy="259.6569" fill="#F1F1F1" rx="8" ry="8" style="stroke:#181818;stroke-width:0.5;"/><path d="M158.5043,267.6569 L158.5043,294.6569 M145.5043,275.6569 L171.5043,275.6569 M158.5043,294.6569 L145.5043,309.6569 M158.5043,294.6569 L171.5043,309.6569" fill="none" style="stroke:#181818;stroke-width:0.5;"/><text fill="#000000" font-family="sans-serif" font-size="14" lengthAdjust="spacing" textLength="51.2285" x="132.89" y="324.152">Courier</text></g><g class="entity" data-entity="GMN42" data-source-line="74" data-uid="ent0043" id="entity_GMN42"><path d="M692.23,590.0369 L692.23,660.5681 L1058.1045,660.5681 L1058.1045,600.0369 L1048.1045,590.0369 L692.23,590.0369" fill="#FEFFDD" style="stroke:#181818;stroke-width:0.5;"/><path d="M1048.1045,590.0369 L1048.1045,600.0369 L1058.1045,600.0369 L1048.1045,590.0369" fill="#FEFFDD" style="stroke:#181818;stroke-width:1;"/><text fill="#000000" font-family="sans-serif" font-size="13" lengthAdjust="spacing" textLength="344.8745" x="698.23" y="607.1038">- Objective: minimize arrival time back at warehouse</text><text fill="#000000" font-family="sans-serif" font-size="13" lengthAdjust="spacing" textLength="291.0972" x="698.23" y="622.2366">- All tours start at 08:00 from the warehouse</text><text fill="#000000" font-family="sans-serif" font-size="13" lengthAdjust="spacing" textLength="214.5127" x="698.23" y="637.3694">- Constant travel speed: 15 km/h</text><text fill="#000000" font-family="sans-serif" font-size="13" lengthAdjust="spacing" textLength="288.3677" x="698.23" y="652.5022">- Respect pickup-before-delivery constraints</text></g><g class="entity" data-entity="GMN45" data-source-line="81" data-uid="ent0046" id="entity_GMN45"><path d="M6,518.7369 L6,543.8697 A0,0 0 0 0 6,543.8697 L311.0005,543.8697 A0,0 0 0 0 311.0005,543.8697 L311.0005,536.7369 L380.58,531.2969 L311.0005,528.7369 L311.0005,528.7369 L301.0005,518.7369 L6,518.7369 A0,0 0 0 0 6,518.7369" fill="#FEFFDD" style="stroke:#181818;stroke-width:0.5;"/><path d="M301.0005,518.7369 L301.0005,528.7369 L311.0005,528.7369 L301.0005,518.7369" fill="#FEFFDD" style="stroke:#181818;stroke-width:0.5;"/><text fill="#000000" font-family="sans-serif" font-size="13" lengthAdjust="spacing" textLength="284.0005" x="12" y="535.8038">A delivery request is send by the customer.</text></g><!--link UC_Load to UC_Receive--><!--link UC_Receive to UC_Compute--><!--link UC_Compute to UC_addDeliveryManual--><!--link UC_addDeliveryManual to UC_DisplayTour--><!--link UC_DisplayTour to UC_Save--><!--link UC_SetCouriers to UC_SelectCourier--><!--link UC_SelectCourier to UC_Pickup_Delivery--><!--link UC_Pickup_Delivery to UC_ServiceTimes--><!--link UC_ServiceTimes to UC_Restore--><!--link UC_Load to UC_SetCouriers--><!--link UC_Receive to UC_SelectCourier--><!--link UC_Receive to UC_SelectCourier--><g class="link" data-entity-1="UC_Receive" data-entity-2="UC_SelectCourier" data-source-line="70" data-uid="lnk41" id="link_UC_Receive_UC_SelectCourier"><path d="M620.32,536.4169 C685.59,536.4169 757.7,536.4169 810.09,536.4169" fill="none" id="UC_Receive-to-UC_SelectCourier" style="stroke:#181818;stroke-width:1;stroke-dasharray:7.0,7.0;"/><polygon fill="#181818" points="816.09,536.4169,807.09,532.4169,811.09,536.4169,807.09,540.4169,816.09,536.4169" style="stroke:#181818;stroke-width:1;"/><text fill="#000000" font-family="sans-serif" font-size="13" lengthAdjust="spacing" textLength="63.0068" x="654.21" y="549.4838">&#171;include&#187;</text></g><!--link UC_Compute to UC_Pickup_Delivery--><!--link UC_addDeliveryManual to UC_ServiceTimes--><!--link UC_addDeliveryManual to UC_ServiceTimes--><g class="link" data-entity-1="UC_addDeliveryManual" data-entity-2="UC_ServiceTimes" data-source-line="67" data-uid="lnk38" id="link_UC_addDeliveryManual_UC_ServiceTimes"><path d="M628.87,365.6369 C684.37,365.6369 741.7,365.6369 790.25,365.6369" fill="none" id="UC_addDeliveryManual-to-UC_ServiceTimes" style="stroke:#181818;stroke-width:1;stroke-dasharray:7.0,7.0;"/><polygon fill="#181818" points="796.25,365.6369,787.25,361.6369,791.25,365.6369,787.25,369.6369,796.25,365.6369" style="stroke:#181818;stroke-width:1;"/><text fill="#000000" font-family="sans-serif" font-size="13" lengthAdjust="spacing" textLength="63.0068" x="648.56" y="378.7038">&#171;include&#187;</text></g><!--link UC_DisplayTour to UC_Restore--><!--link Dispatcher to UC_Load--><g class="link" data-entity-1="Dispatcher" data-entity-2="UC_Load" data-source-line="56" data-uid="lnk30" id="link_Dispatcher_UC_Load"><path d="M196.86,180.6669 C240.93,180.6669 309.44,180.6669 373.76,180.6669" fill="none" id="Dispatcher-to-UC_Load" style="stroke:#0000FF;stroke-width:1;"/><polygon fill="#0000FF" points="379.76,180.6669,370.76,176.6669,374.76,180.6669,370.76,184.6669,379.76,180.6669" style="stroke:#0000FF;stroke-width:1;"/></g><!--link Dispatcher to UC_SetCouriers--><g class="link" data-entity-1="Dispatcher" data-entity-2="UC_SetCouriers" data-source-line="57" data-uid="lnk31" id="link_Dispatcher_UC_SetCouriers"><path d="M196.83,147.6969 C345.53,147.6969 876.11,147.6969 876.11,147.6969 C876.11,147.6969 876.11,151.9269 876.11,162.4769" fill="none" id="Dispatcher-to-UC_SetCouriers" style="stroke:#0000FF;stroke-width:1;"/><polygon fill="#0000FF" points="876.11,168.4769,880.11,159.4769,876.11,163.4769,872.11,159.4769,876.11,168.4769" style="stroke:#0000FF;stroke-width:1;"/></g><!--link Dispatcher to UC_addDeliveryManual--><g class="link" data-entity-1="Dispatcher" data-entity-2="UC_addDeliveryManual" data-source-line="58" data-uid="lnk32" id="link_Dispatcher_UC_addDeliveryManual"><path d="M194.11,216.6869 C194.11,269.8169 194.11,359.2969 194.11,359.2969 C194.11,359.2969 281.39,359.2969 365.2,359.2969" fill="none" id="Dispatcher-to-UC_addDeliveryManual" style="stroke:#0000FF;stroke-width:1;"/><polygon fill="#0000FF" points="371.2,359.2969,362.2,355.2969,366.2,359.2969,362.2,363.2969,371.2,359.2969" style="stroke:#0000FF;stroke-width:1;"/></g><!--link Dispatcher to UC_Receive--><g class="link" data-entity-1="Dispatcher" data-entity-2="UC_Receive" data-source-line="59" data-uid="lnk33" id="link_Dispatcher_UC_Receive"><path d="M188.11,216.8169 C188.11,305.0169 188.11,514.0869 188.11,514.0869 C188.11,514.0869 309.99,514.0869 402.4,514.0869" fill="none" id="Dispatcher-to-UC_Receive" style="stroke:#0000FF;stroke-width:1;"/><polygon fill="#0000FF" points="408.4,514.0869,399.4,510.0869,403.4,514.0869,399.4,518.0869,408.4,514.0869" style="stroke:#0000FF;stroke-width:1;"/></g><!--link Dispatcher to UC_Save--><g class="link" data-entity-1="Dispatcher" data-entity-2="UC_Save" data-source-line="60" data-uid="lnk34" id="link_Dispatcher_UC_Save"><path d="M159.11,139.6969 C159.11,118.0169 159.11,95.2569 159.11,95.2569 C159.11,95.2569 291.96,95.2569 392.85,95.2569" fill="none" id="Dispatcher-to-UC_Save" style="stroke:#0000FF;stroke-width:1;"/><polygon fill="#0000FF" points="398.85,95.2569,389.85,91.2569,393.85,95.2569,389.85,99.2569,398.85,95.2569" style="stroke:#0000FF;stroke-width:1;"/></g><!--link Dispatcher to UC_Restore--><g class="link" data-entity-1="Dispatcher" data-entity-2="UC_Restore" data-source-line="61" data-uid="lnk35" id="link_Dispatcher_UC_Restore"><path d="M196.84,155.2369 C314.6,155.2369 663.11,155.2369 663.11,155.2369 C663.11,155.2369 663.11,268.4469 663.11,268.4469 C663.11,268.4469 717.4,268.4469 773.68,268.4469" fill="none" id="Dispatcher-to-UC_Restore" style="stroke:#0000FF;stroke-width:1;"/><polygon fill="#0000FF" points="779.68,268.4469,770.68,264.4469,774.68,268.4469,770.68,272.4469,779.68,268.4469" style="stroke:#0000FF;stroke-width:1;"/></g><!--link Dispatcher to UC_Compute--><g class="link" data-entity-1="Dispatcher" data-entity-2="UC_Compute" data-source-line="62" data-uid="lnk36" id="link_Dispatcher_UC_Compute"><path d="M191.11,216.6969 C191.11,290.8069 191.11,446.2969 191.11,446.2969 C191.11,446.2969 306.78,446.2969 397.8,446.2969" fill="none" id="Dispatcher-to-UC_Compute" style="stroke:#0000FF;stroke-width:1;"/><polygon fill="#0000FF" points="403.8,446.2969,394.8,442.2969,398.8,446.2969,394.8,450.2969,403.8,446.2969" style="stroke:#0000FF;stroke-width:1;"/></g><!--link Courier to UC_DisplayTour--><g class="link" data-entity-1="Courier" data-entity-2="UC_DisplayTour" data-source-line="64" data-uid="lnk37" id="link_Courier_UC_DisplayTour"><path d="M184.57,282.1569 C233.13,282.1569 333.39,282.1569 409.51,282.1569" fill="none" id="Courier-to-UC_DisplayTour" style="stroke:#008000;stroke-width:1;"/><polygon fill="#008000" points="415.51,282.1569,406.51,278.1569,410.51,282.1569,406.51,286.1569,415.51,282.1569" style="stroke:#008000;stroke-width:1;"/></g><!--link UC_addDeliveryManual to UC_SelectCourier--><g class="link" data-entity-1="UC_addDeliveryManual" data-entity-2="UC_SelectCourier" data-source-line="68" data-uid="lnk39" id="link_UC_addDeliveryManual_UC_SelectCourier"><path d="M626.11,367.6369 C626.11,400.9869 626.11,522.9269 626.11,522.9269 C626.11,522.9269 724.2,522.9269 797.8,522.9269" fill="none" id="UC_addDeliveryManual-to-UC_SelectCourier" style="stroke:#181818;stroke-width:1;stroke-dasharray:7.0,7.0;"/><polygon fill="#181818" points="803.8,522.9269,794.8,518.9269,798.8,522.9269,794.8,526.9269,803.8,522.9269" style="stroke:#181818;stroke-width:1;"/><text fill="#000000" font-family="sans-serif" font-size="13" lengthAdjust="spacing" textLength="63.0068" x="638.31" y="518.9938">&#171;include&#187;</text></g><!--link UC_addDeliveryManual to UC_Pickup_Delivery--><g class="link" data-entity-1="UC_addDeliveryManual" data-entity-2="UC_Pickup_Delivery" data-source-line="69" data-uid="lnk40" id="link_UC_addDeliveryManual_UC_Pickup_Delivery"><path d="M629.11,365.1569 C629.11,380.0369 629.11,418.1169 629.11,418.1169 C629.11,418.1169 721.34,418.1169 793.67,418.1169" fill="none" id="UC_addDeliveryManual-to-UC_Pickup_Delivery" style="stroke:#181818;stroke-width:1;stroke-dasharray:7.0,7.0;"/><polygon fill="#181818" points="799.67,418.1169,790.67,414.1169,794.67,418.1169,790.67,422.1169,799.67,418.1169" style="stroke:#181818;stroke-width:1;"/><text fill="#000000" font-family="sans-serif" font-size="13" lengthAdjust="spacing" textLength="63.0068" x="623.91" y="431.1838">&#171;include&#187;</text></g><!--link UC_Compute to GMN42--><g class="link" data-entity-1="UC_Compute" data-entity-2="GMN42" data-source-line="74" data-uid="lnk44" id="link_UC_Compute_GMN42"><path d="M593.84,454.2569 C648.47,454.2569 707.11,454.2569 707.11,454.2569 C707.11,454.2569 707.11,539.7569 707.11,589.8569" fill="none" id="UC_Compute-GMN42" style="stroke:#181818;stroke-width:1;stroke-dasharray:7.0,7.0;"/></g><!--SRC=[ZLRXRjis4FwlfpWum6O3KfiDQ3SOHG3RIR02Jb8aBbPiA0fQEjkS9L8ZAGVkCA2_-W33dh1FigD4seGa9_CFmpxUnxlx-1sFXfiSuHrFjrK9ty4bvdo7QWzJlaLOo4ffIE2zHfWn-hhaRArO4UMuCc0aABxU6CYumjHmAIAzvQ9av04v5sZs9O9KPYE3XKfZQhVwAmBwJ5cwNIjPYMmcSwdUl4cbmeiBEBkwklxf-hhnaIf3LQ_3sO_JrxFfUVHt5B7KaE6IwvAPT8FA6MQKCwT_aSs9YJLLDx1rmBkS2S756Xxssc0n0ARTJygb3kHJUp_xD9Si0_yXnq5jO2AZOdMPiptCkDd33IjX-E5cFXg0JxszqpscI9IsTZhmV8z_LgZDSxlCP55M9jZ56wOMREiBi6tm0nh7Ycx0P83RgbYY0hdoZEb13p0d4jswGrgBXmpQW4P7dmxL1H0dCKlXONakKsPrC-W6LZkUue8Ng0yPEoFKrcwobyt1r6TTOvoXPWUai8VLKoBpP-E8hGspIYaKnZK02VsQvpZe7gqcnGM7uWqDRALauO1j9CioJy8D4nNBQ_Wa8ub1vjbHJXf5xP7lsoVyFIH90dEsbvM1L0fj5EF2w35SVPZC5c0U9VnoT__sjxlRnMGEztU_Fi3mDLLJnl0Abj8OMOpi7cwtXIn1oKSOrjsTN3JTFHgxPV1z4GUoZWDnnhsLnQspYJthzRQ-rPBVDppBK7oiOoP11E_c-wZ7qyNtdhurUZmxsNbCzq1wq44L7XUAhWTHr-duczQ4FyjmqAnnfmVZdYQBsmqJ1zhqUOPNG5-UOP0Z9kp-7bGh4OzhNmAzyOxf7iC5FT-hXwOYHzOavsjXsTH0KGnFROl0Sa-Ta5U5q31SSKNTixAYAQNczgBHetxLPV9H92sUJWelSEvXhQE-W_i9kfwGNX2forUlz0u8pnODIkAgdepVllvJJt9x2UdeE3W9VRRCA_n8WdJCd5uD2Jhfr6spaww-oqy7P4-j-Z9FElYx8Jhg-6ojaAXgriEU9gRUYZIlCXBWCCEKe4ut8_ZsvLzWoZRl1aavfRGthPqCPeF06rH66qQz9_hYegFmCTtc3aSN-fEei0t_DwpTXHsWr_NpKOYNMsaevvUmh3GzxBG6LUKa8a5czmYaXqH0Tm9top_iet27OoYuu0N_Z9P0lgCC3J40Ithw0JFmo1Hk90r70aroMgo7fpPC6Rjy_lFu_BoPfPRgq7jcPnwZCKs3RuSvw18n6yCFhs1RlDoG0wcZj6-FikOYMUAAj98S1cmmCoEaTucj9cfggY_efYIlq4btCdFAqmBfrh6vfHM9iK3r8jZjFm00]--></g></svg>