<svg xmlns="http://www.w3.org/2000/svg" xmlns:xlink="http://www.w3.org/1999/xlink" contentStyleType="text/css" data-diagram-type="DESCRIPTION" height="979px" preserveAspectRatio="none" style="width:1085px;height:979px;background:#FFFFFF;" version="1.1" viewBox="0 0 1085 979" width="1085px" zoomAndPan="magnify"><title>Pickup &amp; Delivery Bike Tours - Use Case Diagram</title><defs/><g><text fill="#000000" font-family="sans-serif" font-size="14" font-weight="bold" lengthAdjust="spacing" textLength="387.2559" x="341.8793" y="22.9951">Pickup &amp; Delivery Bike Tours - Use Case Diagram</text><!--cluster System--><g class="cluster" data-entity="System" data-source-line="12" data-uid="ent0004" id="cluster_System"><rect fill="none" height="927" rx="2.5" ry="2.5" style="stroke:#181818;stroke-width:1;" width="313.14" x="355" y="44.2969"/><text fill="#000000" font-family="sans-serif" font-size="14" font-weight="bold" lengthAdjust="spacing" textLength="173.332" x="424.904" y="59.292">Tour Planning System</text></g><g class="entity" data-entity="UC_Load" data-source-line="14" data-uid="ent0005" id="entity_UC_Load"><ellipse cx="511.566" cy="600.3001" fill="#EEF7FF" rx="130.616" ry="28.5232" style="stroke:#2B6CB0;stroke-width:0.5;"/><text fill="#000000" font-family="sans-serif" font-size="14" font-style="italic" lengthAdjust="spacing" textLength="47.7627" x="485.56" y="588.1093">&#171;core&#187;</text><text fill="#000000" font-family="sans-serif" font-size="14" lengthAdjust="spacing" textLength="229.5098" x="394.6864" y="604.4062">Load and display City Map (XML)</text></g><g class="entity" data-entity="UC_Receive" data-source-line="15" data-uid="ent0006" id="entity_UC_Receive"><ellipse cx="511.5695" cy="852.2988" fill="#EEF7FF" rx="120.6095" ry="26.5219" style="stroke:#2B6CB0;stroke-width:0.5;"/><text fill="#000000" font-family="sans-serif" font-size="14" font-style="italic" lengthAdjust="spacing" textLength="47.7627" x="482.3823" y="842.3096">&#171;core&#187;</text><text fill="#000000" font-family="sans-serif" font-size="14" lengthAdjust="spacing" textLength="203.1846" x="404.6713" y="858.6065">Load Delivery Request (XML)</text></g><g class="entity" data-entity="UC_Compute" data-source-line="16" data-uid="ent0007" id="entity_UC_Compute"><ellipse cx="511.5706" cy="687.2942" fill="#EEF7FF" rx="97.3806" ry="23.8574" style="stroke:#2B6CB0;stroke-width:0.5;"/><text fill="#000000" font-family="sans-serif" font-size="14" font-style="italic" lengthAdjust="spacing" textLength="47.7627" x="481.1029" y="680.3504">&#171;core&#187;</text><text fill="#000000" font-family="sans-serif" font-size="14" lengthAdjust="spacing" textLength="135.4883" x="437.2401" y="696.6473">Compute Best Tour</text></g><g class="entity" data-entity="UC_SetCouriers" data-source-line="18" data-uid="ent0008" id="entity_UC_SetCouriers"><ellipse cx="511.5742" cy="768.2957" fill="#F1F1F1" rx="100.2442" ry="22.4488" style="stroke:#2B6CB0;stroke-width:0.5;"/><text fill="#000000" font-family="sans-serif" font-size="14" lengthAdjust="spacing" textLength="164.5957" x="429.2764" y="771.1424">Set Number of Couriers</text></g><g class="entity" data-entity="UC_SelectCourier" data-source-line="20" data-uid="ent0009" id="entity_UC_SelectCourier"><ellipse cx="511.5674" cy="96.2984" fill="#F1F1F1" rx="72.2574" ry="16.8515" style="stroke:#2B6CB0;stroke-width:0.5;"/><text fill="#000000" font-family="sans-serif" font-size="14" lengthAdjust="spacing" textLength="98.8682" x="459.1333" y="100.0459">Select Courier</text></g><g class="entity" data-entity="UC_Pickup_Delivery" data-source-line="21" data-uid="ent0010" id="entity_UC_Pickup_Delivery"><ellipse cx="511.5699" cy="178.3009" fill="#F1F1F1" rx="140.5699" ry="30.514" style="stroke:#2B6CB0;stroke-width:0.5;"/><text fill="#000000" font-family="sans-serif" font-size="14" lengthAdjust="spacing" textLength="250.7969" x="386.1715" y="181.1475">Select Pickup and Delivery Location</text></g><g class="entity" data-entity="UC_ServiceTimes" data-source-line="22" data-uid="ent0011" id="entity_UC_ServiceTimes"><ellipse cx="511.5746" cy="263.3018" fill="#F1F1F1" rx="82.9746" ry="18.9949" style="stroke:#2B6CB0;stroke-width:0.5;"/><text fill="#000000" font-family="sans-serif" font-size="14" lengthAdjust="spacing" textLength="125.6172" x="448.1643" y="266.3517">Set Service Times</text></g><g class="entity" data-entity="UC_DisplayTour" data-source-line="24" data-uid="ent0012" id="entity_UC_DisplayTour"><ellipse cx="511.5698" cy="934.2988" fill="#F1F1F1" rx="90.8598" ry="20.572" style="stroke:#2B6CB0;stroke-width:0.5;"/><text fill="#000000" font-family="sans-serif" font-size="14" lengthAdjust="spacing" textLength="143.6846" x="439.7275" y="937.1455">Display Tour on Map</text></g><g class="entity" data-entity="UC_Save" data-source-line="26" data-uid="ent0013" id="entity_UC_Save"><ellipse cx="511.5667" cy="341.2962" fill="#F1F1F1" rx="108.5967" ry="24.1193" style="stroke:#2B6CB0;stroke-width:0.5;"/><text fill="#000000" font-family="sans-serif" font-size="14" lengthAdjust="spacing" textLength="182.8408" x="420.1463" y="344.1429">Save Current Tours to File</text></g><g class="entity" data-entity="UC_Restore" data-source-line="27" data-uid="ent0014" id="entity_UC_Restore"><ellipse cx="511.565" cy="422.2919" fill="#F1F1F1" rx="99.875" ry="22.375" style="stroke:#2B6CB0;stroke-width:0.5;"/><text fill="#000000" font-family="sans-serif" font-size="14" lengthAdjust="spacing" textLength="163.7822" x="429.6739" y="425.1386">Restore Tours from File</text></g><g class="entity" data-entity="UC_addDeliveryManual" data-source-line="29" data-uid="ent0015" id="entity_UC_addDeliveryManual"><ellipse cx="511.5714" cy="508.2932" fill="#EEF7FF" rx="129.9814" ry="28.3963" style="stroke:#2B6CB0;stroke-width:0.5;"/><text fill="#000000" font-family="sans-serif" font-size="14" font-style="italic" lengthAdjust="spacing" textLength="47.7627" x="485.3148" y="496.2426">&#171;core&#187;</text><text fill="#000000" font-family="sans-serif" font-size="14" lengthAdjust="spacing" textLength="228.0811" x="395.1556" y="512.5395">Add a delivery request manually</text></g><!--entity Dispatcher--><g class="entity" data-entity="Dispatcher" data-source-line="9" data-uid="ent0002" id="entity_Dispatcher"><ellipse cx="158.4992" cy="570.6469" fill="#F1F1F1" rx="8" ry="8" style="stroke:#181818;stroke-width:0.5;"/><path d="M158.4992,578.6469 L158.4992,605.6469 M145.4992,586.6469 L171.4992,586.6469 M158.4992,605.6469 L145.4992,620.6469 M158.4992,605.6469 L171.4992,620.6469" fill="none" style="stroke:#181818;stroke-width:0.5;"/><text fill="#000000" font-family="sans-serif" font-size="14" lengthAdjust="spacing" textLength="75.8584" x="120.57" y="635.142">Dispatcher</text></g><!--entity Courier--><g class="entity" data-entity="Courier" data-source-line="10" data-uid="ent0003" id="entity_Courier"><ellipse cx="158.5043" cy="906.6469" fill="#F1F1F1" rx="8" ry="8" style="stroke:#181818;stroke-width:0.5;"/><path d="M158.5043,914.6469 L158.5043,941.6469 M145.5043,922.6469 L171.5043,922.6469 M158.5043,941.6469 L145.5043,956.6469 M158.5043,941.6469 L171.5043,956.6469" fill="none" style="stroke:#181818;stroke-width:0.5;"/><text fill="#000000" font-family="sans-serif" font-size="14" lengthAdjust="spacing" textLength="51.2285" x="132.89" y="971.142">Courier</text></g><g class="entity" data-entity="GMN28" data-source-line="51" data-uid="ent0029" id="entity_GMN28"><path d="M712.14,652.0269 L712.14,683.2969 L609.34,687.2969 L712.14,691.2969 L712.14,722.5581 A0,0 0 0 0 712.14,722.5581 L1078.0145,722.5581 A0,0 0 0 0 1078.0145,722.5581 L1078.0145,662.0269 L1068.0145,652.0269 L712.14,652.0269 A0,0 0 0 0 712.14,652.0269" fill="#FEFFDD" style="stroke:#181818;stroke-width:0.5;"/><path d="M1068.0145,652.0269 L1068.0145,662.0269 L1078.0145,662.0269 L1068.0145,652.0269" fill="#FEFFDD" style="stroke:#181818;stroke-width:0.5;"/><text fill="#000000" font-family="sans-serif" font-size="13" lengthAdjust="spacing" textLength="344.8745" x="718.14" y="669.0938">- Objective: minimize arrival time back at warehouse</text><text fill="#000000" font-family="sans-serif" font-size="13" lengthAdjust="spacing" textLength="291.0972" x="718.14" y="684.2266">- All tours start at 08:00 from the warehouse</text><text fill="#000000" font-family="sans-serif" font-size="13" lengthAdjust="spacing" textLength="214.5127" x="718.14" y="699.3594">- Constant travel speed: 15 km/h</text><text fill="#000000" font-family="sans-serif" font-size="13" lengthAdjust="spacing" textLength="288.3677" x="718.14" y="714.4922">- Respect pickup-before-delivery constraints</text></g><g class="entity" data-entity="GMN31" data-source-line="58" data-uid="ent0032" id="entity_GMN31"><path d="M6,837.7269 L6,862.8597 A0,0 0 0 0 6,862.8597 L311.0005,862.8597 A0,0 0 0 0 311.0005,862.8597 L311.0005,855.7269 L390.98,850.2969 L311.0005,847.7269 L311.0005,847.7269 L301.0005,837.7269 L6,837.7269 A0,0 0 0 0 6,837.7269" fill="#FEFFDD" style="stroke:#181818;stroke-width:0.5;"/><path d="M301.0005,837.7269 L301.0005,847.7269 L311.0005,847.7269 L301.0005,837.7269" fill="#FEFFDD" style="stroke:#181818;stroke-width:0.5;"/><text fill="#000000" font-family="sans-serif" font-size="13" lengthAdjust="spacing" textLength="284.0005" x="12" y="854.7938">A delivery request is send by the customer.</text></g><!--link Dispatcher to UC_Load--><g class="link" data-entity-1="Dispatcher" data-entity-2="UC_Load" data-source-line="33" data-uid="lnk16" id="link_Dispatcher_UC_Load"><path d="M196.62,600.2969 C240.57,600.2969 309.21,600.2969 374.79,600.2969" fill="none" id="Dispatcher-to-UC_Load" style="stroke:#0000FF;stroke-width:1;"/><polygon fill="#0000FF" points="380.79,600.2969,371.79,596.2969,375.79,600.2969,371.79,604.2969,380.79,600.2969" style="stroke:#0000FF;stroke-width:1;"/></g><!--link Dispatcher to UC_SetCouriers--><g class="link" data-entity-1="Dispatcher" data-entity-2="UC_SetCouriers" data-source-line="34" data-uid="lnk17" id="link_Dispatcher_UC_SetCouriers"><path d="M146.01,638.8369 C146.01,688.4369 146.01,768.2969 146.01,768.2969 C146.01,768.2969 296.98,768.2969 405.2,768.2969" fill="none" id="Dispatcher-to-UC_SetCouriers" style="stroke:#0000FF;stroke-width:1;"/><polygon fill="#0000FF" points="411.2,768.2969,402.2,764.2969,406.2,768.2969,402.2,772.2969,411.2,768.2969" style="stroke:#0000FF;stroke-width:1;"/></g><!--link Dispatcher to UC_addDeliveryManual--><g class="link" data-entity-1="Dispatcher" data-entity-2="UC_addDeliveryManual" data-source-line="35" data-uid="lnk18" id="link_Dispatcher_UC_addDeliveryManual"><path d="M178.01,561.8169 C178.01,536.6069 178.01,508.2969 178.01,508.2969 C178.01,508.2969 281.62,508.2969 375.18,508.2969" fill="none" id="Dispatcher-to-UC_addDeliveryManual" style="stroke:#0000FF;stroke-width:1;"/><polygon fill="#0000FF" points="381.18,508.2969,372.18,504.2969,376.18,508.2969,372.18,512.2969,381.18,508.2969" style="stroke:#0000FF;stroke-width:1;"/></g><!--link Dispatcher to UC_Receive--><g class="link" data-entity-1="Dispatcher" data-entity-2="UC_Receive" data-source-line="36" data-uid="lnk19" id="link_Dispatcher_UC_Receive"><path d="M196.82,633.6369 C265.39,633.6369 402.01,633.6369 402.01,633.6369 C402.01,633.6369 402.01,789.8569 402.01,834.8469" fill="none" id="Dispatcher-to-UC_Receive" style="stroke:#0000FF;stroke-width:1;"/><polygon fill="#0000FF" points="402.01,840.8469,406.01,831.8469,402.01,835.8469,398.01,831.8469,402.01,840.8469" style="stroke:#0000FF;stroke-width:1;"/></g><!--link Dispatcher to UC_Save--><g class="link" data-entity-1="Dispatcher" data-entity-2="UC_Save" data-source-line="37" data-uid="lnk20" id="link_Dispatcher_UC_Save"><path d="M140.01,561.7969 C140.01,489.6569 140.01,341.2969 140.01,341.2969 C140.01,341.2969 286.97,341.2969 396.6,341.2969" fill="none" id="Dispatcher-to-UC_Save" style="stroke:#0000FF;stroke-width:1;"/><polygon fill="#0000FF" points="402.6,341.2969,393.6,337.2969,397.6,341.2969,393.6,345.2969,402.6,341.2969" style="stroke:#0000FF;stroke-width:1;"/></g><!--link Dispatcher to UC_Restore--><g class="link" data-entity-1="Dispatcher" data-entity-2="UC_Restore" data-source-line="38" data-uid="lnk21" id="link_Dispatcher_UC_Restore"><path d="M159.01,561.6769 C159.01,509.3269 159.01,422.2969 159.01,422.2969 C159.01,422.2969 301.25,422.2969 405.49,422.2969" fill="none" id="Dispatcher-to-UC_Restore" style="stroke:#0000FF;stroke-width:1;"/><polygon fill="#0000FF" points="411.49,422.2969,402.49,418.2969,406.49,422.2969,402.49,426.2969,411.49,422.2969" style="stroke:#0000FF;stroke-width:1;"/></g><!--link Dispatcher to UC_Compute--><g class="link" data-entity-1="Dispatcher" data-entity-2="UC_Compute" data-source-line="39" data-uid="lnk22" id="link_Dispatcher_UC_Compute"><path d="M172.01,638.7069 C172.01,662.0169 172.01,687.2969 172.01,687.2969 C172.01,687.2969 307.5,687.2969 407.81,687.2969" fill="none" id="Dispatcher-to-UC_Compute" style="stroke:#0000FF;stroke-width:1;"/><polygon fill="#0000FF" points="413.81,687.2969,404.81,683.2969,408.81,687.2969,404.81,691.2969,413.81,687.2969" style="stroke:#0000FF;stroke-width:1;"/></g><!--link Courier to UC_DisplayTour--><g class="link" data-entity-1="Courier" data-entity-2="UC_DisplayTour" data-source-line="41" data-uid="lnk23" id="link_Courier_UC_DisplayTour"><path d="M184.46,934.2969 C233.51,934.2969 335.92,934.2969 414.52,934.2969" fill="none" id="Courier-to-UC_DisplayTour" style="stroke:#008000;stroke-width:1;"/><polygon fill="#008000" points="420.52,934.2969,411.52,930.2969,415.52,934.2969,411.52,938.2969,420.52,934.2969" style="stroke:#008000;stroke-width:1;"/></g><!--link UC_addDeliveryManual to UC_ServiceTimes--><g class="link" data-entity-1="UC_addDeliveryManual" data-entity-2="UC_ServiceTimes" data-source-line="44" data-uid="lnk24" id="link_UC_addDeliveryManual_UC_ServiceTimes"><path d="M396.01,495.1269 C396.01,444.2369 396.01,263.2969 396.01,263.2969 C396.01,263.2969 403.98,263.2969 422.2,263.2969" fill="none" id="UC_addDeliveryManual-to-UC_ServiceTimes" style="stroke:#181818;stroke-width:1;stroke-dasharray:7.0,7.0;"/><polygon fill="#181818" points="428.2,263.2969,419.2,259.2969,423.2,263.2969,419.2,267.2969,428.2,263.2969" style="stroke:#181818;stroke-width:1;"/><text fill="#000000" font-family="sans-serif" font-size="13" lengthAdjust="spacing" textLength="63.0068" x="332.01" y="376.1838">&#171;include&#187;</text></g><!--link UC_addDeliveryManual to UC_SelectCourier--><g class="link" data-entity-1="UC_addDeliveryManual" data-entity-2="UC_SelectCourier" data-source-line="45" data-uid="lnk25" id="link_UC_addDeliveryManual_UC_SelectCourier"><path d="M641.95,508.2969 C665.64,508.2969 683.01,508.2969 683.01,508.2969 C683.01,508.2969 683.01,96.2969 683.01,96.2969 C683.01,96.2969 637.01,96.2969 590.28,96.2969" fill="none" id="UC_addDeliveryManual-to-UC_SelectCourier" style="stroke:#181818;stroke-width:1;stroke-dasharray:7.0,7.0;"/><polygon fill="#181818" points="584.28,96.2969,593.28,100.2969,589.28,96.2969,593.28,92.2969,584.28,96.2969" style="stroke:#181818;stroke-width:1;"/><text fill="#000000" font-family="sans-serif" font-size="13" lengthAdjust="spacing" textLength="63.0068" x="619.01" y="286.5238">&#171;include&#187;</text></g><!--link UC_addDeliveryManual to UC_Pickup_Delivery--><g class="link" data-entity-1="UC_addDeliveryManual" data-entity-2="UC_Pickup_Delivery" data-source-line="46" data-uid="lnk26" id="link_UC_addDeliveryManual_UC_Pickup_Delivery"><path d="M389.01,498.4169 C389.01,451.4469 389.01,256.5669 389.01,199.4769" fill="none" id="UC_addDeliveryManual-to-UC_Pickup_Delivery" style="stroke:#181818;stroke-width:1;stroke-dasharray:7.0,7.0;"/><polygon fill="#181818" points="389.01,193.4769,385.01,202.4769,389.01,198.4769,393.01,202.4769,389.01,193.4769" style="stroke:#181818;stroke-width:1;"/><text fill="#000000" font-family="sans-serif" font-size="13" lengthAdjust="spacing" textLength="63.0068" x="325.01" y="359.0138">&#171;include&#187;</text></g><!--link UC_Receive to UC_SelectCourier--><g class="link" data-entity-1="UC_Receive" data-entity-2="UC_SelectCourier" data-source-line="47" data-uid="lnk27" id="link_UC_Receive_UC_SelectCourier"><path d="M433.28,831.7569 C388.44,831.7569 341.01,831.7569 341.01,831.7569 C341.01,831.7569 341.01,96.2969 341.01,96.2969 C341.01,96.2969 386.75,96.2969 433.24,96.2969" fill="none" id="UC_Receive-to-UC_SelectCourier" style="stroke:#181818;stroke-width:1;stroke-dasharray:7.0,7.0;"/><polygon fill="#181818" points="439.24,96.2969,430.24,92.2969,434.24,96.2969,430.24,100.2969,439.24,96.2969" style="stroke:#181818;stroke-width:1;"/><text fill="#000000" font-family="sans-serif" font-size="13" lengthAdjust="spacing" textLength="63.0068" x="277.01" y="474.1138">&#171;include&#187;</text></g><!--SRC=[ZLNRQjj047tNLmmAjCc34xVG2oOOR3c6Gcxa0eLImaeQMrklTjNTbODR2dtg1vH-ORwaiwkLA-mugHwCFJDdD7FcpDXoAn0kURQeAtW14nHyYNe5Oxv0k56rDj23MuEGCFgOS3RNh8m4pYnO1PhF2mivrvXPhcHa5bnMZ290S8bsLI4eRGlLSTG6CvVgUmJqZ5csc6jLopnHGkdZuqnf70vXx-Ha-cuwRMAKpb5xF-oz7hzDnlteHnInp99Xmat5R5QW3eQ4QkRqAt8rCJcdxcBN1rmA9YMNSxXU6Ojb3Co4hrIBVr5RscroTwfO3kr3WR4tC9bJiwOIR0K9joiuOnNiVpmxFOYXBNqpqnLcI9HkP5hpV8LVQpJskIo9AglQThAqXh43k_uws4tmDTh0Ycd0P83pkanHWvgrZ9du4Q0W4eC_89sbXSIRW4P7T-lkEf0WCKVXsdsgCkPq4s-_M2zvXZUyHBEkE1Z1MxUBdJI3yRFsc63mx82IRbYFjCZQsGHYlI6fjKPfmmAGqATSOBmzMaEAwmobDJImcLPb06uYMPwt99mnMJFXuQES90PvouuEqYXzX5Xr9apoVmaZh_U7Nx_zVhhK9lgt3j3xj9UA6Z_tXgsWTtix2jaTj5Nqxj0W-YTUo9xo1Xvt1mJrHr6hJNBFDQ8C_euM75CVP2RgdAIqdsD6K6Muazq1FFpy0qnhTGy5qbPMYalhvsqB1DwWSaeOFJgpm-6MLWSqeu2ZCJs9wgxMVyCs5smBs9wRvzz2l9mhIpKVGLeREjV6WAu5YKYIEPnsEWyTkdjmaNvnftw90oYvv2N_Xev0lgGABJ40AHrqO1RkcSP2aUG9D1Baz2jXBDFMkVll1_r-io6EwcvqeYI5qV9PJI8HO2h4V02lti2YF2eeWDHHkOjIUIvwASv8AxtrscGEhvcRP8HqRLmtKTEJ_zjgMceLEjhUDqvrEc2wyhLbDOcnH7tOoVON]--></g></svg>